<?xml version="1.0" standalone="no"?>
<!DOCTYPE svg PUBLIC "-//W3C//DTD SVG 20010904//EN"
 "http://www.w3.org/TR/2001/REC-SVG-20010904/DTD/svg10.dtd">
<svg version="1.0" xmlns="http://www.w3.org/2000/svg"
 width="725.000000pt" height="453.000000pt" viewBox="0 0 725.000000 453.000000"
 preserveAspectRatio="xMidYMid meet">

<g transform="translate(0.000000,453.000000) scale(0.100000,-0.100000)"
fill="#000000" stroke="none">
<path d="M3617 3720 c-3 -12 -1 -17 5 -14 6 4 7 -17 2 -58 -6 -58 1 -79 11
-29 10 52 29 54 45 5 7 -19 14 -33 17 -30 3 3 -6 29 -19 58 -14 29 -28 61 -31
71 -8 23 -23 22 -30 -3z"/>
<path d="M3568 3600 c-22 -47 -40 -107 -39 -125 1 -20 -36 -82 -65 -107 -19
-17 -42 -44 -51 -61 -19 -38 -22 -111 -5 -162 13 -38 12 -44 -22 -117 -19 -43
-46 -92 -59 -110 -17 -22 -31 -65 -44 -130 -21 -101 -19 -112 20 -155 l20 -22
-31 -89 c-17 -48 -51 -160 -76 -247 -39 -141 -59 -223 -122 -497 -9 -37 -14
-72 -12 -78 2 -6 12 29 22 77 60 282 151 619 222 813 4 12 9 10 25 -9 10 -13
19 -18 19 -11 0 7 -20 35 -45 61 -25 26 -45 54 -45 61 1 48 40 181 65 221 33
52 44 58 46 25 1 -18 2 -19 6 -5 3 10 0 24 -7 31 -8 11 -6 23 8 52 38 78 39
84 21 137 -16 47 -17 69 -5 124 8 38 24 59 65 88 23 15 41 32 41 36 0 5 5 9
10 9 6 0 10 -15 10 -34 0 -29 -4 -35 -27 -41 -42 -10 -104 -95 -70 -95 13 0
14 -6 6 -32 -12 -42 8 -112 23 -84 6 10 12 41 15 69 5 55 23 79 51 70 12 -3
13 -2 5 4 -14 10 -10 46 8 80 9 17 8 30 -4 62 -14 35 -15 46 -2 93 19 75 32
105 45 110 7 2 10 13 8 23 -4 15 -11 6 -30 -35z"/>
<path d="M3590 3568 c0 -4 9 -8 20 -8 11 0 20 4 20 8 0 4 -9 8 -20 8 -11 0
-20 -4 -20 -8z"/>
<path d="M3700 3575 c0 -5 5 -17 10 -25 5 -8 10 -10 10 -5 0 6 -5 17 -10 25
-5 8 -10 11 -10 5z"/>
<path d="M3725 3508 c4 -23 -3 -35 -44 -75 -45 -43 -51 -54 -56 -103 -5 -43
-2 -65 14 -100 16 -37 20 -41 20 -20 1 14 -5 35 -13 46 -9 13 -12 35 -9 66 4
36 13 54 42 82 l37 36 12 -48 c10 -36 19 -50 40 -60 35 -15 72 -70 88 -130 10
-36 13 -41 13 -19 1 36 -21 80 -69 138 -46 54 -73 116 -66 146 4 12 1 32 -4
45 -10 22 -10 22 -5 -4z"/>
<path d="M3670 3311 c0 -5 18 -23 39 -41 52 -41 73 -83 72 -147 0 -59 15 -71
24 -20 13 65 -11 123 -74 180 -40 36 -61 46 -61 28z"/>
<path d="M3512 3241 c-11 -7 -11 -9 2 -14 10 -4 16 -1 16 8 0 17 -1 17 -18 6z"/>
<path d="M3680 3234 c0 -3 10 -19 23 -35 17 -24 22 -42 20 -81 -2 -44 -1 -48
13 -37 9 7 12 15 7 16 -5 2 -8 16 -5 32 4 32 -22 97 -44 105 -8 3 -14 3 -14 0z"/>
<path d="M3860 3126 c0 -9 -9 -35 -19 -56 -11 -22 -15 -40 -11 -40 9 0 99
-172 126 -240 13 -33 14 -33 9 -5 -4 17 -31 81 -62 143 -55 112 -55 113 -43
157 7 25 10 48 6 52 -3 3 -6 -1 -6 -11z"/>
<path d="M3520 3115 c0 -8 -3 -15 -7 -15 -5 0 -9 -21 -9 -48 -1 -26 0 -38 3
-27 3 11 12 29 19 40 16 23 19 65 4 65 -5 0 -10 -7 -10 -15z"/>
<path d="M3588 3098 c7 -7 12 -19 12 -28 0 -21 31 -50 54 -50 19 0 18 -28 -8
-212 -7 -49 -9 -88 -5 -88 11 0 18 37 25 135 3 50 10 109 14 133 6 33 4 42 -6
42 -8 0 -14 5 -14 11 0 6 -7 9 -15 5 -18 -6 -37 26 -29 48 5 12 0 16 -17 16
-18 0 -20 -3 -11 -12z"/>
<path d="M2788 3022 c-16 -3 -20 -10 -20 -32 0 -3 3 -22 6 -43 5 -25 4 -37 -2
-33 -6 3 -5 -5 1 -18 10 -22 13 -22 34 -9 21 14 22 13 28 -24 3 -21 8 -47 10
-59 3 -15 -4 -24 -28 -36 -30 -14 -34 -23 -56 -113 -21 -86 -22 -98 -8 -112
13 -14 20 -12 59 11 25 14 47 26 49 26 3 0 3 -18 1 -39 -3 -35 -9 -42 -48 -63
-31 -16 -51 -36 -68 -69 -21 -42 -24 -61 -25 -175 -2 -107 -5 -130 -19 -140
-9 -8 -12 -14 -6 -14 5 0 15 5 22 12 8 8 14 5 22 -16 5 -15 10 -33 10 -41 0
-9 23 -1 69 25 49 26 73 34 80 27 25 -25 26 -7 6 213 -8 91 -16 207 -19 258
-3 51 -8 97 -11 102 -3 5 -6 38 -6 74 -1 37 -5 68 -9 71 -5 3 -6 19 -3 35 6
38 -25 177 -40 182 -7 3 -20 3 -29 0z m38 -277 c-11 -8 -25 -15 -30 -15 -6 1
0 7 14 15 32 19 40 18 16 0z"/>
<path d="M2742 2958 c-23 -56 -44 -141 -39 -164 2 -14 1 -27 -3 -29 -5 -3 -11
-33 -15 -67 -3 -35 -11 -88 -16 -118 -6 -30 -11 -68 -13 -85 -25 -294 -41
-412 -57 -433 -10 -13 -24 -44 -33 -70 -15 -50 -28 -194 -16 -187 4 3 10 37
12 77 5 78 38 171 69 200 12 10 15 18 8 20 -12 4 -1 165 23 328 10 72 13 97
16 148 1 13 6 21 11 18 5 -4 7 3 4 13 -3 11 0 28 6 38 9 15 10 13 6 -12 -4
-24 -3 -26 4 -10 6 11 7 46 4 78 l-6 59 32 -16 c27 -14 31 -15 31 -2 0 16 -39
43 -41 29 0 -4 -4 1 -8 12 -4 11 -5 29 -2 40 4 17 6 16 13 -10 6 -27 7 -26 3
7 -3 28 1 41 13 48 12 8 14 13 5 16 -10 4 -10 11 -2 25 5 11 9 32 7 47 l-4 27
-12 -27z"/>
<path d="M3489 2922 c-3 -20 -2 -29 4 -23 5 5 7 19 5 32 -3 20 -5 19 -9 -9z"/>
<path d="M3382 2835 c0 -16 2 -22 5 -12 2 9 2 23 0 30 -3 6 -5 -1 -5 -18z"/>
<path d="M3482 2830 c-1 -19 -9 -97 -19 -172 -12 -97 -21 -138 -30 -138 -7 0
-13 -3 -13 -6 0 -13 35 -64 44 -64 7 0 6 4 0 10 -7 7 -4 63 8 167 10 87 17
176 15 198 -3 39 -4 39 -5 5z"/>
<path d="M2721 2724 c0 -11 3 -14 6 -6 3 7 2 16 -1 19 -3 4 -6 -2 -5 -13z"/>
<path d="M3982 2675 c0 -16 2 -22 5 -12 2 9 2 23 0 30 -3 6 -5 -1 -5 -18z"/>
<path d="M4745 2578 c-7 -80 -9 -132 -6 -249 1 -30 -3 -68 -9 -83 -6 -17 -6
-25 0 -21 6 4 10 -6 9 -22 0 -25 -1 -26 -9 -8 -7 17 -9 15 -9 -11 -1 -20 5
-34 14 -38 8 -3 14 -16 14 -28 l-2 -23 -4 23 c-11 58 -18 6 -21 -161 -2 -100
-8 -187 -13 -194 -7 -7 -6 -14 1 -18 5 -3 10 -35 10 -71 0 -35 3 -64 8 -64 4
0 22 24 40 53 31 51 32 54 32 170 0 111 -2 121 -31 178 -17 34 -28 63 -26 65
3 3 19 -22 36 -55 30 -58 31 -65 31 -183 0 -89 -4 -131 -15 -152 -13 -25 -13
-28 1 -22 9 3 19 6 23 6 4 0 8 62 9 138 2 133 1 138 -27 192 -19 35 -28 67
-26 88 1 17 -1 32 -6 32 -15 0 -10 22 8 35 14 11 15 18 3 61 -24 94 -28 114
-21 114 9 0 45 -148 43 -177 -1 -15 4 -23 14 -23 10 0 14 6 10 18 -23 78 -46
187 -42 198 8 22 33 16 40 -8 3 -13 6 -37 6 -55 0 -17 5 -35 12 -39 14 -9 5
101 -11 120 -6 7 -6 17 -1 26 8 12 10 10 10 -7 0 -14 6 -23 15 -23 21 0 19 16
-5 40 -11 11 -16 20 -11 20 4 0 6 11 3 25 -2 14 -11 25 -19 25 -11 0 -13 -9
-7 -45 6 -40 4 -45 -13 -45 -34 0 -40 109 -12 198 13 40 24 41 27 2 2 -20 -3
-33 -13 -36 -21 -8 -19 -17 6 -29 12 -6 31 -35 44 -69 13 -33 29 -62 35 -66 8
-5 6 -9 -5 -13 -14 -6 -14 -9 4 -34 11 -16 22 -39 25 -53 4 -15 -2 -10 -14 15
-11 22 -18 31 -15 21 38 -133 133 -792 116 -809 -6 -6 -7 -38 -4 -80 5 -60 10
-74 32 -93 14 -12 28 -21 29 -19 2 2 -2 27 -8 57 -7 29 -10 67 -8 83 l3 30 13
-23 c7 -13 17 -61 22 -107 5 -47 14 -92 20 -102 10 -16 11 -15 6 7 -3 14 -8
52 -11 85 -8 79 -22 123 -51 162 -17 22 -24 45 -24 77 0 24 -4 55 -9 68 -5 13
-14 75 -21 138 -11 111 -44 349 -55 400 -3 14 -7 48 -10 75 -8 87 -71 305 -87
305 -5 0 -7 4 -4 9 9 14 -38 76 -60 79 -19 3 -22 -4 -29 -80z"/>
<path d="M3977 2600 c-9 -23 -21 -39 -26 -36 -8 5 -30 -15 -44 -39 -3 -5 6
-10 19 -10 13 0 22 5 20 10 -1 6 10 25 25 43 16 18 29 42 29 52 0 28 -3 25
-23 -20z"/>
<path d="M2443 2588 c-28 -31 -45 -66 -38 -78 3 -6 1 -10 -5 -10 -6 0 -8 -4
-5 -10 3 -5 2 -10 -4 -10 -6 0 -8 -7 -5 -15 4 -8 1 -15 -6 -15 -6 0 -9 -4 -5
-9 3 -5 0 -13 -6 -16 -5 -4 -8 -13 -5 -20 2 -7 2 -16 -2 -19 -3 -4 -7 -12 -8
-19 -2 -7 -10 -37 -18 -67 -20 -70 -20 -93 0 -60 l15 25 -7 -25 c-4 -14 -12
-29 -19 -35 -10 -8 -41 -205 -60 -380 -19 -168 -25 -216 -35 -264 -6 -30 -10
-65 -7 -78 2 -12 1 -20 -4 -18 -8 6 -33 -39 -56 -100 -16 -45 -28 -195 -15
-195 5 0 8 10 7 22 -1 15 10 31 34 49 51 37 61 51 67 100 3 24 7 50 9 57 3 6
0 12 -5 12 -5 0 -9 35 -7 80 1 44 5 80 8 80 4 0 10 30 13 68 13 123 47 386 61
472 8 47 16 95 18 107 2 12 6 25 9 29 4 3 3 17 -3 31 -5 15 -5 22 0 18 6 -3 9
3 9 12 -1 10 5 34 14 53 26 61 48 134 48 163 0 36 11 34 33 -4 17 -30 15 -58
-2 -31 -6 10 -11 10 -21 -3 -11 -13 -8 -15 19 -15 29 0 32 -3 26 -22 -5 -18
-4 -20 4 -8 8 11 10 1 8 -41 -5 -70 -9 -77 -47 -71 -29 4 -31 7 -29 43 2 21 0
41 -4 45 -4 4 -7 -6 -7 -22 0 -16 -7 -40 -16 -52 -9 -13 -14 -25 -11 -28 2 -3
27 -7 54 -11 l51 -5 -13 -48 c-7 -26 -12 -69 -11 -96 2 -42 6 -49 27 -55 21
-5 25 -3 27 19 1 14 -4 30 -10 35 -9 5 -9 10 -2 13 10 4 1 140 -10 151 -3 3
-1 14 5 25 6 11 7 65 3 143 -6 108 -9 125 -24 125 -9 0 -26 -10 -37 -22z m44
-360 c-3 -8 -6 -5 -6 6 -1 11 2 17 5 13 3 -3 4 -12 1 -19z m-10 -40 c-3 -8 -6
-5 -6 6 -1 11 2 17 5 13 3 -3 4 -12 1 -19z m-258 -805 c-1 -32 -3 -49 -6 -38
-3 11 -8 24 -13 28 -6 7 9 67 17 67 2 0 2 -26 2 -57z m-24 -70 c-3 -31 -7 -59
-10 -61 -7 -8 -6 83 1 102 12 30 15 16 9 -41z m22 -30 c-3 -10 -5 -4 -5 12 0
17 2 24 5 18 2 -7 2 -21 0 -30z"/>
<path d="M2842 2530 c0 -14 2 -19 5 -12 2 6 2 18 0 25 -3 6 -5 1 -5 -13z"/>
<path d="M3951 2490 c0 -8 6 -28 14 -45 l14 -30 -6 30 c-7 38 -22 68 -22 45z"/>
<path d="M4800 2490 c0 -5 5 -10 10 -10 6 0 10 5 10 10 0 6 -4 10 -10 10 -5 0
-10 -4 -10 -10z"/>
<path d="M2425 2440 c-3 -5 3 -10 15 -10 12 0 18 5 15 10 -3 6 -10 10 -15 10
-5 0 -12 -4 -15 -10z"/>
<path d="M3986 2385 c11 -48 25 -76 18 -35 -4 19 -10 42 -15 50 -6 10 -7 5 -3
-15z"/>
<path d="M3460 2350 c0 -5 -10 -89 -21 -187 -12 -98 -22 -213 -23 -255 0 -43
-3 -78 -7 -78 -3 0 -3 -21 1 -47 4 -27 7 -179 6 -339 l-1 -291 62 -15 c69 -17
111 -7 47 11 -21 6 -50 11 -64 11 l-25 0 -3 373 c-3 303 -1 403 14 542 10 94
22 173 27 176 5 4 5 9 -1 13 -5 3 -7 26 -4 51 2 25 2 45 -2 45 -3 0 -6 -4 -6
-10z"/>
<path d="M4010 2300 c0 -8 5 -22 10 -30 9 -13 10 -13 10 0 0 8 -5 22 -10 30
-9 13 -10 13 -10 0z"/>
<path d="M4477 2213 c-7 -11 -18 -67 -24 -116 -2 -23 -6 -55 -8 -72 -2 -16 -7
-50 -10 -74 -4 -26 -3 -41 2 -38 5 3 4 -29 -3 -71 -25 -152 -28 -218 -10 -243
9 -13 16 -30 16 -39 -1 -8 -7 -1 -14 15 l-13 30 -6 -49 c-4 -27 -7 -68 -7 -92
0 -47 -8 -55 -26 -26 -6 9 -35 26 -64 37 -60 23 -133 81 -126 101 3 8 0 11
-10 7 -11 -4 -12 -9 -3 -19 15 -18 -11 -59 -51 -82 -28 -16 -39 -48 -40 -117
-1 -27 -2 -28 -12 -11 -6 11 -12 29 -13 40 -1 12 -3 27 -4 34 0 6 -13 13 -28
13 -25 1 -24 2 7 8 30 6 90 37 90 47 0 1 -19 -5 -42 -16 -24 -10 -72 -24 -108
-31 -36 -6 -71 -17 -79 -23 -8 -7 -59 -10 -132 -9 -66 1 -119 -3 -119 -8 0
-14 254 -11 268 3 9 9 12 -57 12 -298 l0 -310 -44 -31 c-31 -22 -51 -30 -67
-26 -15 4 -20 3 -15 -5 12 -20 49 -13 91 19 23 17 41 25 43 19 2 -6 2 -12 1
-13 -42 -24 -149 -101 -149 -108 0 -5 36 15 80 44 60 39 82 59 86 80 5 19 25
42 63 69 69 50 81 65 81 99 0 38 15 44 34 14 9 -14 21 -23 27 -20 5 4 22 -8
37 -26 61 -73 62 -74 62 -218 l0 -133 38 7 c20 4 41 7 47 8 5 1 8 -14 7 -33
-2 -30 2 -37 30 -53 l33 -19 -20 23 c-17 19 -18 22 -2 16 46 -18 49 -17 18 4
-31 21 -33 25 -28 63 4 30 3 36 -4 24 -6 -10 -15 -18 -20 -18 -6 0 -7 5 -3 12
5 8 2 9 -12 4 -10 -4 -31 -10 -45 -13 l-26 -5 4 126 c4 97 2 131 -9 143 -9 12
-9 15 0 9 8 -5 12 0 12 13 0 12 7 21 15 21 8 0 15 5 15 10 0 14 -36 -5 -43
-22 -4 -10 -6 -10 -6 -1 -1 7 10 20 24 29 38 25 34 79 -8 135 -18 24 -39 59
-46 77 -8 18 -31 47 -51 65 -60 51 -83 99 -81 165 1 31 4 58 6 60 7 7 53 -50
74 -91 22 -44 75 -77 123 -77 18 0 46 -1 63 -3 43 -5 39 -43 -13 -105 -35 -41
-42 -56 -40 -88 l1 -39 4 34 c3 23 21 53 54 91 48 55 61 79 37 64 -8 -5 -8 -2
1 10 8 9 24 22 35 27 18 9 19 8 5 -3 -14 -12 -14 -15 2 -31 9 -10 19 -15 22
-10 3 4 8 71 12 148 6 120 5 147 -10 180 -22 53 -36 188 -19 181 7 -3 15 0 18
7 2 7 5 0 5 -15 1 -16 6 -28 11 -28 12 0 13 -3 -5 105 -22 133 -23 127 31 119
34 -5 45 -4 40 5 -4 6 -11 36 -16 67 -9 53 -27 91 -38 79 -3 -2 1 -11 7 -19
13 -15 24 -116 13 -116 -27 2 -41 30 -43 93 -1 37 1 70 4 74 4 3 7 14 7 23 0
10 8 24 18 31 14 11 15 11 5 -1 -15 -17 -17 -60 -3 -60 15 0 37 -50 44 -105 5
-27 9 -59 11 -70 36 -198 56 -358 85 -670 23 -245 28 -278 40 -270 5 3 7 11 5
18 -2 7 -6 53 -9 102 -7 109 -35 410 -41 445 -2 14 -7 52 -11 85 -5 55 -12 89
-29 155 -6 23 -5 23 12 -5 11 -17 20 -37 20 -45 0 -8 8 -78 17 -155 9 -77 24
-207 32 -290 24 -245 26 -265 33 -265 4 0 3 35 -1 78 -5 42 -7 86 -5 97 9 53
52 -110 56 -214 2 -48 10 -80 32 -123 16 -31 29 -73 29 -93 0 -19 4 -35 8 -35
15 0 -4 105 -26 141 -26 42 -21 69 10 61 12 -3 19 -1 15 4 -3 5 14 10 38 11
24 1 52 6 64 12 11 6 31 11 44 11 32 0 112 85 127 136 6 22 10 64 8 94 l-3 55
-8 -70 c-11 -95 -22 -118 -73 -160 -34 -28 -55 -37 -91 -40 -27 -2 -65 -7 -85
-11 -26 -4 -43 -2 -55 7 -14 12 -16 12 -8 0 5 -10 4 -12 -3 -7 -19 12 -14 24
16 35 l27 11 -27 -4 c-32 -4 -30 -10 -28 132 1 52 -3 82 -9 82 -6 0 -11 -11
-11 -25 0 -33 -16 -32 -24 0 -4 14 -10 24 -14 21 -4 -2 -9 3 -10 12 -1 9 -12
114 -25 232 l-24 215 24 33 c14 18 23 36 20 39 -3 3 -15 -10 -26 -28 -23 -38
-27 -33 -40 56 -5 33 -9 47 -10 31 -1 -18 -5 -26 -10 -20 -13 14 -40 114 -31
119 6 4 -9 85 -35 190 -6 22 -5 27 4 20 10 -10 41 -145 55 -233 5 -40 16 -55
16 -23 0 67 -59 287 -90 339 -18 30 -43 41 -53 25z m52 -85 c-5 -17 -14 -36
-20 -42 -9 -8 -10 -5 -4 14 3 14 7 33 6 43 0 9 6 17 14 17 11 0 12 -7 4 -32z
m-66 -397 c-7 -9 -11 6 -16 64 l-5 60 12 -60 c7 -33 11 -62 9 -64z m124 57
c-3 -8 -6 -5 -6 6 -1 11 2 17 5 13 3 -3 4 -12 1 -19z m-128 -338 c0 -30 -3
-60 -7 -66 -4 -7 -7 26 -7 72 0 46 3 76 7 66 4 -9 7 -42 7 -72z m-476 -17 c-7
-2 -19 -2 -25 0 -7 3 -2 5 12 5 14 0 19 -2 13 -5z m-10 -260 c15 -34 27 -72
27 -83 0 -12 17 -41 37 -65 40 -49 46 -66 33 -101 -8 -20 -76 -73 -91 -70 -3
1 -14 -8 -25 -18 -19 -19 -19 -19 -22 59 -3 80 2 110 16 101 4 -2 8 12 9 32 0
27 -1 29 -4 10 -12 -73 -18 -9 -19 185 -1 152 1 184 6 112 5 -77 12 -115 33
-162z m474 110 c-2 -16 -4 -3 -4 27 0 30 2 43 4 28 2 -16 2 -40 0 -55z"/>
<path d="M4041 2194 c0 -11 3 -14 6 -6 3 7 2 16 -1 19 -3 4 -6 -2 -5 -13z"/>
<path d="M4051 2154 c0 -11 3 -14 6 -6 3 7 2 16 -1 19 -3 4 -6 -2 -5 -13z"/>
<path d="M2446 2138 c-8 -30 -7 -38 2 -38 4 0 8 14 9 30 3 36 -2 39 -11 8z"/>
<path d="M2936 2087 c3 -10 9 -15 12 -12 3 3 0 11 -7 18 -10 9 -11 8 -5 -6z"/>
<path d="M4072 2080 c0 -8 4 -26 8 -40 6 -20 8 -21 8 -5 0 11 -3 29 -8 40 -5
12 -8 14 -8 5z"/>
<path d="M2490 2018 c0 -3 -7 -22 -15 -42 -8 -20 -13 -36 -10 -36 8 0 36 73
30 78 -3 3 -5 3 -5 0z"/>
<path d="M2975 1910 c0 -67 4 -106 10 -104 10 4 5 197 -5 207 -3 3 -5 -43 -5
-103z"/>
<path d="M2495 1979 c-19 -42 -48 -90 -41 -66 4 11 2 16 -5 12 -5 -4 -8 -14
-5 -23 3 -10 8 -71 12 -137 4 -66 10 -122 13 -125 4 -3 17 -21 29 -40 l22 -35
0 58 c0 31 4 57 9 57 11 0 58 -62 71 -92 8 -20 9 -20 9 -4 1 11 -17 41 -39 67
l-40 47 -5 153 c-3 84 -8 155 -10 157 -3 3 -12 -10 -20 -29z"/>
<path d="M4091 1994 c0 -11 3 -14 6 -6 3 7 2 16 -1 19 -3 4 -6 -2 -5 -13z"/>
<path d="M2813 1940 c0 -25 2 -35 4 -22 2 12 2 32 0 45 -2 12 -4 2 -4 -23z"/>
<path d="M4101 1954 c0 -11 3 -14 6 -6 3 7 2 16 -1 19 -3 4 -6 -2 -5 -13z"/>
<path d="M4068 1934 c-3 -5 -6 -67 -5 -139 l1 -130 6 125 c3 69 7 116 9 105 1
-11 5 -15 7 -9 6 14 -11 60 -18 48z"/>
<path d="M4933 1913 c4 -18 9 -63 13 -100 4 -37 8 -75 10 -83 1 -8 3 -39 3
-67 1 -30 6 -53 11 -53 11 0 9 45 -11 205 -13 109 -14 113 -23 122 -5 4 -6 -6
-3 -24z"/>
<path d="M4112 1910 c0 -14 2 -19 5 -12 2 6 2 18 0 25 -3 6 -5 1 -5 -13z"/>
<path d="M3232 1795 l2 -120 6 105 c3 58 2 112 -2 120 -4 8 -7 -39 -6 -105z"/>
<path d="M2811 1864 c0 -11 3 -14 6 -6 3 7 2 16 -1 19 -3 4 -6 -2 -5 -13z"/>
<path d="M3582 1855 c0 -16 2 -22 5 -12 2 9 2 23 0 30 -3 6 -5 -1 -5 -18z"/>
<path d="M3774 1861 c20 -22 26 -25 26 -13 0 4 -10 13 -22 21 -23 14 -23 14
-4 -8z"/>
<path d="M4121 1864 c0 -11 3 -14 6 -6 3 7 2 16 -1 19 -3 4 -6 -2 -5 -13z"/>
<path d="M3823 1824 c10 -13 17 -37 17 -64 0 -50 8 -49 14 2 4 29 0 40 -22 59
-21 19 -23 19 -9 3z"/>
<path d="M4132 1820 c0 -14 2 -19 5 -12 2 6 2 18 0 25 -3 6 -5 1 -5 -13z"/>
<path d="M3572 1795 c0 -16 2 -22 5 -12 2 9 2 23 0 30 -3 6 -5 -1 -5 -18z"/>
<path d="M3020 1746 c0 -36 4 -67 9 -70 4 -3 8 26 8 64 0 39 -4 70 -8 70 -5 0
-9 -29 -9 -64z"/>
<path d="M4141 1774 c0 -11 3 -14 6 -6 3 7 2 16 -1 19 -3 4 -6 -2 -5 -13z"/>
<path d="M3567 1663 c-9 -132 -9 -261 1 -266 4 -3 8 78 10 179 2 101 1 184 -1
184 -2 0 -7 -44 -10 -97z"/>
<path d="M4121 1724 c0 -11 3 -14 6 -6 3 7 2 16 -1 19 -3 4 -6 -2 -5 -13z"/>
<path d="M4151 1724 c0 -11 3 -14 6 -6 3 7 2 16 -1 19 -3 4 -6 -2 -5 -13z"/>
<path d="M2970 1701 c0 -14 18 -23 31 -15 8 4 7 9 -2 15 -18 11 -29 11 -29 0z"/>
<path d="M3840 1693 c0 -10 -3 -28 -6 -40 -4 -13 -2 -23 3 -23 5 0 10 18 11
40 2 22 0 40 -3 40 -3 0 -5 -8 -5 -17z"/>
<path d="M4162 1680 c0 -14 2 -19 5 -12 2 6 2 18 0 25 -3 6 -5 1 -5 -13z"/>
<path d="M4131 1674 c0 -11 3 -14 6 -6 3 7 2 16 -1 19 -3 4 -6 -2 -5 -13z"/>
<path d="M3066 1672 c-2 -4 -18 -9 -35 -10 -39 -3 -81 -19 -81 -31 0 -5 -8
-11 -17 -13 -14 -2 -17 -16 -18 -76 0 -62 2 -72 17 -72 22 0 68 20 91 39 9 8
19 12 21 10 11 -10 -25 -37 -87 -67 -37 -17 -70 -38 -73 -47 -3 -8 -26 -26
-51 -40 -40 -24 -48 -26 -75 -14 -17 7 -45 25 -62 41 -17 15 -36 28 -42 28 -7
0 -15 8 -17 18 -3 10 -5 6 -6 -11 0 -16 3 -26 8 -23 5 3 14 -1 21 -9 7 -8 16
-15 21 -15 11 0 69 -51 69 -60 0 -3 -15 -14 -34 -23 l-34 -16 4 -92 c3 -51 6
-95 8 -97 9 -8 64 28 68 45 10 39 121 83 211 83 48 0 103 35 126 82 12 24 33
57 46 73 l25 30 0 -262 c0 -256 1 -263 21 -273 26 -14 38 -4 17 13 -13 10 -17
62 -27 327 -6 173 -9 324 -7 334 1 12 -12 32 -36 54 -23 20 -37 41 -34 49 3 8
1 11 -4 8 -6 -3 -10 1 -10 9 0 17 -15 22 -24 8z"/>
<path d="M2690 1567 c0 -48 5 -80 14 -93 13 -17 14 -14 5 26 -6 25 -9 66 -7
93 2 26 0 47 -4 47 -5 0 -8 -33 -8 -73z"/>
<path d="M4172 1620 c0 -14 2 -19 5 -12 2 6 2 18 0 25 -3 6 -5 1 -5 -13z"/>
<path d="M2461 1614 c0 -11 3 -14 6 -6 3 7 2 16 -1 19 -3 4 -6 -2 -5 -13z"/>
<path d="M4141 1614 c0 -11 3 -14 6 -6 3 7 2 16 -1 19 -3 4 -6 -2 -5 -13z"/>
<path d="M4070 1543 c-3 -29 -1 -48 3 -44 5 5 7 28 5 52 l-3 44 -5 -52z"/>
<path d="M2276 1571 c-4 -7 -5 -15 -2 -18 9 -9 19 4 14 18 -4 11 -6 11 -12 0z"/>
<path d="M2602 1540 c0 -14 2 -19 5 -12 2 6 2 18 0 25 -3 6 -5 1 -5 -13z"/>
<path d="M3240 1521 c0 -5 21 -17 48 -27 26 -9 51 -21 57 -26 5 -4 14 -8 20
-8 14 1 -37 40 -53 40 -7 0 -26 7 -42 15 -17 9 -30 11 -30 6z"/>
<path d="M3390 1471 c0 -6 4 -13 10 -16 6 -3 7 1 4 9 -7 18 -14 21 -14 7z"/>
<path d="M2670 1443 c0 -6 11 -15 25 -21 14 -6 25 -18 25 -26 0 -7 7 -16 15
-20 8 -3 15 -1 15 4 0 6 -4 10 -9 10 -4 0 -7 11 -6 25 2 14 -2 28 -7 32 -7 4
-8 1 -3 -7 6 -10 4 -12 -8 -7 -10 4 -24 10 -32 13 -8 3 -15 2 -15 -3z"/>
<path d="M2841 1418 c-1 -17 -8 -29 -21 -33 -11 -3 -20 -10 -20 -15 0 -5 16 0
35 11 19 12 35 28 35 36 0 8 -4 12 -9 9 -5 -4 -12 0 -14 6 -3 7 -6 1 -6 -14z"/>
<path d="M4980 1382 c0 -34 4 -62 9 -62 9 0 3 109 -5 119 -2 2 -4 -23 -4 -57z"/>
<path d="M3402 1400 c0 -14 2 -19 5 -12 2 6 2 18 0 25 -3 6 -5 1 -5 -13z"/>
<path d="M2759 1384 c5 -20 21 -34 21 -19 0 3 0 11 0 19 0 8 -6 16 -14 19 -10
4 -12 0 -7 -19z"/>
<path d="M2631 1353 c-1 -36 8 -46 29 -32 13 7 12 9 -2 9 -10 0 -18 10 -21 28
-4 26 -4 25 -6 -5z"/>
<path d="M2260 1264 c0 -8 5 -12 10 -9 6 4 8 11 5 16 -9 14 -15 11 -15 -7z"/>
<path d="M2487 1161 c-3 -16 -3 -61 0 -100 l6 -72 58 -32 c37 -20 59 -39 59
-49 0 -10 -4 -18 -9 -18 -5 0 -12 -8 -14 -17 -4 -15 -5 -15 -6 -2 -1 14 -24
17 -153 23 -141 7 -155 9 -185 32 -46 35 -60 30 -18 -7 21 -19 50 -33 70 -36
19 -2 45 -7 57 -12 13 -5 39 -6 58 -4 28 4 32 2 20 -7 -12 -9 -6 -10 25 -5 31
4 37 3 25 -5 -12 -9 -8 -11 16 -6 18 3 34 2 38 -1 3 -3 19 -8 36 -10 21 -2 32
3 39 16 6 10 8 21 4 24 -3 4 2 18 11 33 10 14 16 27 14 28 -2 1 -20 11 -41 21
-81 42 -86 51 -89 148 -2 88 -11 111 -21 58z"/>
<path d="M2145 1085 c6 -72 33 -145 43 -116 2 7 -3 20 -11 29 -10 11 -17 41
-18 85 -1 37 -6 70 -11 74 -6 3 -7 -25 -3 -72z"/>
<path d="M2640 1000 c0 -5 9 -10 19 -10 11 0 23 5 26 10 4 6 -5 10 -19 10 -14
0 -26 -4 -26 -10z"/>
<path d="M4708 984 c-5 -4 -8 -14 -8 -21 0 -23 -25 -44 -38 -31 -16 16 -30
-20 -34 -88 -2 -59 -1 -62 37 -102 21 -23 40 -41 41 -39 1 1 -3 28 -11 59 -8
35 -10 71 -5 97 8 46 17 61 24 40 20 -70 26 -106 26 -163 0 -37 4 -66 10 -66
15 0 15 149 0 168 -2 1 -3 5 -4 10 -1 4 -7 27 -14 52 -6 25 -13 56 -14 68 -2
13 -6 20 -10 16z"/>
<path d="M3640 880 c0 -73 -3 -90 -15 -90 -8 0 -15 -5 -15 -11 0 -5 4 -8 9 -5
7 5 26 -66 23 -86 -2 -7 95 -38 117 -38 27 0 7 18 -26 24 -78 14 -73 2 -73
157 0 86 -4 139 -10 139 -6 0 -10 -37 -10 -90z"/>
<path d="M2453 933 c15 -2 37 -2 50 0 12 2 0 4 -28 4 -27 0 -38 -2 -22 -4z"/>
<path d="M2493 903 c9 -2 25 -2 35 0 9 3 1 5 -18 5 -19 0 -27 -2 -17 -5z"/>
<path d="M2563 903 c9 -2 23 -2 30 0 6 3 -1 5 -18 5 -16 0 -22 -2 -12 -5z"/>
<path d="M3364 798 c0 -23 2 -36 4 -30 4 14 32 16 32 4 0 -5 6 -9 13 -9 6 0
26 -4 42 -7 17 -4 48 -9 70 -12 22 -4 50 -10 63 -15 13 -5 22 -5 22 1 0 5 -12
12 -27 16 -16 3 -41 10 -58 14 -16 5 -49 12 -72 15 -37 6 -43 10 -43 31 0 14
-4 22 -10 19 -5 -3 -10 -1 -10 4 0 6 -6 11 -12 11 -8 0 -13 -15 -14 -42z"/>
<path d="M3245 765 c36 -16 105 -26 105 -15 0 7 -101 31 -124 29 -6 0 3 -7 19
-14z"/>
<path d="M4820 637 l0 -64 -54 -37 c-29 -20 -62 -46 -72 -58 -11 -12 16 2 59
31 l77 53 0 69 c0 38 -2 69 -5 69 -3 0 -5 -29 -5 -63z"/>
<path d="M4304 521 c9 -10 16 -28 16 -40 0 -14 7 -25 20 -28 11 -3 20 -9 20
-12 0 -4 14 -5 31 -3 21 3 30 1 25 -6 -4 -6 2 -8 14 -5 16 4 18 8 9 19 -10 12
-9 13 5 8 11 -4 15 -13 11 -25 -5 -15 -1 -19 15 -19 11 0 37 -7 57 -15 36 -15
37 -15 90 20 29 19 53 40 53 46 0 7 -9 5 -22 -5 -13 -9 -39 -25 -59 -35 l-36
-20 -59 33 c-32 18 -65 31 -73 28 -8 -2 -11 0 -8 5 3 5 -3 10 -14 11 -10 1
-28 3 -39 4 -12 1 -23 12 -26 24 -3 12 -15 24 -26 27 -18 5 -19 4 -4 -12z"/>
</g>
</svg>
