<?xml version="1.0" standalone="no"?>
<!DOCTYPE svg PUBLIC "-//W3C//DTD SVG 20010904//EN"
 "http://www.w3.org/TR/2001/REC-SVG-20010904/DTD/svg10.dtd">
<svg version="1.0" xmlns="http://www.w3.org/2000/svg"
 width="340.000000pt" height="270.000000pt" viewBox="0 0 340.000000 270.000000"
 preserveAspectRatio="xMidYMid meet">

<g transform="translate(0.000000,270.000000) scale(0.100000,-0.100000)"
fill="#000000" stroke="none">
<path d="M200 2665 c0 -3 30 -53 66 -111 48 -75 76 -110 98 -121 28 -13 47
-45 141 -234 61 -120 112 -219 115 -219 3 0 27 43 53 95 l47 95 145 0 146 0
-15 -28 c-35 -68 -64 -142 -53 -136 21 13 79 57 148 111 l66 53 279 0 279 0
49 105 48 104 77 46 76 45 -121 0 c-115 0 -122 -1 -136 -22 -15 -23 -17 -23
-331 -26 -197 -3 -321 -1 -333 6 -14 8 -10 11 24 17 100 17 42 25 -177 25
-157 0 -231 -3 -231 -11 0 -6 5 -20 11 -31 9 -17 7 -31 -12 -69 -12 -27 -25
-49 -28 -49 -12 0 -40 86 -35 106 3 13 -4 41 -19 70 l-25 50 -169 67 c-170 67
-183 72 -183 62z m213 -110 c109 -44 119 -50 138 -86 13 -27 17 -45 11 -57 -7
-12 1 -41 28 -101 l38 -84 44 89 c25 49 43 97 40 107 -3 15 7 17 98 17 102 0
126 -12 48 -24 -24 -4 -47 -10 -53 -14 -5 -4 -48 -85 -95 -179 -46 -95 -87
-173 -90 -173 -3 0 -50 89 -104 199 -87 174 -103 200 -130 210 -22 8 -43 31
-74 82 -24 40 -37 69 -30 66 7 -2 66 -26 131 -52z m1413 -130 c-11 -8 -24 -15
-28 -15 -5 0 -31 -47 -58 -105 -43 -92 -52 -105 -74 -105 -22 0 -25 6 -34 53
l-9 52 -12 -30 c-7 -16 -17 -40 -22 -52 -6 -17 -17 -23 -39 -23 -16 0 -30 2
-30 4 0 2 20 44 45 95 42 85 47 91 75 91 29 0 30 -1 31 -52 l0 -53 33 65 c45
93 42 90 94 90 44 -1 46 -2 28 -15z m-856 -40 c0 -3 -14 -32 -30 -65 -22 -43
-36 -60 -50 -60 -25 0 -25 2 0 50 25 49 25 50 -4 50 -19 0 -27 -10 -42 -47
-11 -27 -20 -51 -22 -55 -2 -5 15 -8 37 -8 44 0 50 -9 25 -34 -11 -11 -35 -16
-80 -16 -35 0 -64 2 -64 4 0 8 73 162 82 174 10 12 148 18 148 7z m90 0 c0 -3
-13 -32 -30 -65 -16 -33 -30 -62 -30 -65 0 -3 11 -5 25 -5 28 0 29 -3 15 -31
-9 -15 -22 -19 -65 -19 -30 0 -55 2 -55 5 0 3 20 46 45 95 39 77 49 90 70 90
14 0 25 -2 25 -5z m184 -10 c-10 -8 -25 -15 -32 -15 -7 0 -34 -43 -59 -95 -35
-73 -55 -102 -86 -125 -22 -16 -42 -28 -44 -26 -2 1 15 40 37 85 22 45 40 86
40 92 0 5 7 23 15 39 15 28 14 30 -5 30 -20 0 -26 11 -13 23 3 4 42 7 87 7 72
0 78 -1 60 -15z m146 10 c0 -18 -43 -85 -54 -85 -17 0 -29 27 -16 35 17 10 11
25 -10 25 -10 0 -24 -9 -30 -19 -14 -27 -13 -30 8 -24 15 3 23 -7 39 -51 21
-58 20 -66 -7 -66 -11 0 -23 15 -32 38 l-15 37 -36 -37 c-19 -21 -45 -38 -56
-38 -12 0 -21 2 -21 3 0 2 15 35 34 74 41 83 77 111 149 112 26 1 47 -1 47 -4z
m178 -7 c-3 -7 -25 -14 -51 -16 -45 -3 -48 -5 -72 -52 -30 -60 -30 -60 -2 -60
18 0 29 11 47 50 16 33 30 50 42 50 10 0 18 -2 18 -4 0 -2 -13 -33 -30 -68
-31 -70 -41 -78 -100 -78 -33 0 -40 4 -48 28 -8 22 -3 39 25 95 l33 67 71 0
c52 0 70 -3 67 -12z"/>
<path d="M2129 2283 c-13 -16 -12 -17 4 -4 9 7 17 15 17 17 0 8 -8 3 -21 -13z"/>
<path d="M2246 1978 c4 -47 7 -53 29 -45 10 4 15 20 15 47 0 35 -3 40 -24 40
-21 0 -23 -4 -20 -42z"/>
<path d="M1610 1957 c0 -13 -9 -32 -20 -42 -11 -10 -20 -29 -20 -43 l0 -25 23
21 23 22 22 -22 22 -22 0 67 c0 65 -1 67 -25 67 -20 0 -25 -5 -25 -23z"/>
<path d="M2870 1913 l0 -67 22 22 22 22 23 -22 23 -21 0 25 c0 14 -9 33 -20
43 -11 10 -20 29 -20 42 0 18 -5 23 -25 23 -24 0 -25 -2 -25 -67z"/>
<path d="M397 1824 c-13 -13 -8 -249 5 -262 13 -13 85 -16 112 -6 11 4 16 19
16 50 0 37 -3 44 -20 44 -16 0 -20 -7 -20 -30 0 -27 -3 -30 -30 -30 l-31 0 3
103 c3 101 3 102 28 102 20 0 26 -6 28 -27 2 -20 9 -28 23 -28 17 0 20 6 17
43 l-3 42 -60 3 c-34 2 -64 0 -68 -4z"/>
<path d="M952 1693 c3 -122 5 -138 21 -141 15 -3 17 9 17 137 0 135 -1 141
-20 141 -20 0 -20 -5 -18 -137z"/>
<path d="M860 1755 c0 -14 -4 -25 -10 -25 -5 0 -10 -7 -10 -15 0 -8 5 -15 10
-15 6 0 10 -30 10 -69 0 -72 6 -81 51 -81 12 0 19 7 19 20 0 11 -7 20 -15 20
-12 0 -15 13 -15 55 0 42 3 55 15 55 8 0 15 7 15 15 0 8 -7 15 -15 15 -9 0
-15 9 -15 25 0 18 -5 25 -20 25 -15 0 -20 -7 -20 -25z"/>
<path d="M567 1723 c-15 -15 -7 -43 13 -43 11 0 20 5 20 10 0 6 9 10 20 10 13
0 20 -7 20 -19 0 -16 -8 -20 -37 -23 -38 -3 -38 -3 -41 -50 -2 -27 1 -48 5
-49 4 0 32 -2 61 -4 l52 -3 0 89 0 89 -53 0 c-30 0 -57 -3 -60 -7z m71 -119
c-2 -10 -11 -20 -21 -22 -12 -3 -17 3 -17 21 0 26 18 41 33 27 5 -4 7 -16 5
-26z"/>
<path d="M710 1695 c0 -29 6 -39 35 -57 35 -23 47 -58 20 -58 -8 0 -15 7 -15
15 0 8 -9 15 -21 15 -16 0 -20 -5 -17 -27 3 -26 6 -28 53 -28 l50 0 3 40 c3
37 0 42 -33 59 -19 11 -35 25 -35 33 0 18 26 17 34 -2 10 -28 36 -17 36 15 0
30 -1 30 -55 30 l-55 0 0 -35z"/>
<path d="M1027 1723 c-12 -12 -8 -148 5 -161 13 -13 66 -16 92 -6 22 8 22 64
0 64 -9 0 -18 -9 -21 -20 -8 -30 -38 -21 -38 10 0 25 3 26 53 29 19 1 22 6 22
46 l0 45 -53 0 c-30 0 -57 -3 -60 -7z m73 -43 c0 -13 -7 -20 -20 -20 -13 0
-20 7 -20 20 0 13 7 20 20 20 13 0 20 -7 20 -20z"/>
<path d="M2050 1541 c-14 -27 -13 -31 10 -31 15 0 20 7 20 25 0 30 -15 33 -30
6z"/>
<path d="M2457 1554 c-15 -15 -7 -44 13 -44 11 0 20 4 20 8 0 15 -26 43 -33
36z"/>
<path d="M2260 1511 c-26 -10 -21 -41 6 -41 17 0 24 6 24 19 0 24 -10 31 -30
22z"/>
<path d="M1613 1429 l-43 -46 0 -141 c0 -78 4 -142 8 -142 5 0 17 9 27 20 10
11 26 20 37 20 25 0 24 46 -2 62 -29 18 -28 132 1 189 11 22 19 50 17 62 -3
20 -7 17 -45 -24z"/>
<path d="M2870 1457 c0 -15 9 -45 20 -67 14 -28 20 -59 20 -108 0 -56 -4 -72
-20 -87 -26 -23 -26 -55 -1 -55 10 0 30 -9 45 -21 l26 -20 0 143 0 144 -45 49
c-43 49 -44 49 -45 22z"/>
<path d="M467 1464 c-4 -4 -7 -26 -7 -50 0 -25 -5 -44 -12 -47 -10 -3 -10 -9
0 -26 6 -11 12 -50 12 -86 0 -57 2 -65 19 -65 16 0 18 8 16 66 -1 44 3 70 12
79 15 15 17 35 4 35 -5 0 -11 13 -13 29 -3 23 0 31 15 35 10 2 17 11 15 18 -5
14 -50 23 -61 12z"/>
<path d="M620 1330 l0 -140 55 0 c48 0 55 2 55 20 0 16 -7 20 -35 20 l-35 0 0
120 c0 113 -1 120 -20 120 -19 0 -20 -7 -20 -140z"/>
<path d="M760 1415 c0 -20 4 -26 18 -23 9 2 17 12 17 23 0 11 -8 21 -17 23
-14 3 -18 -3 -18 -23z"/>
<path d="M300 1280 l0 -90 54 0 c63 0 66 4 66 90 0 86 -3 90 -66 90 l-54 0 0
-90z m78 -3 c3 -52 1 -57 -18 -57 -18 0 -20 6 -20 61 0 52 2 60 18 57 13 -2
18 -15 20 -61z"/>
<path d="M760 1280 c0 -81 2 -90 19 -90 16 0 18 9 19 90 0 82 -2 90 -19 90
-17 0 -19 -8 -19 -90z"/>
<path d="M830 1280 l0 -90 55 0 55 0 0 90 0 90 -55 0 -55 0 0 -90z m75 0 c0
-48 -2 -55 -20 -55 -17 0 -20 7 -21 45 -1 57 4 72 25 68 12 -3 16 -16 16 -58z"/>
<path d="M980 1279 c0 -71 3 -89 14 -89 18 0 24 20 25 85 1 47 15 70 34 58 4
-3 8 -26 7 -52 -3 -83 -1 -91 20 -91 18 0 20 7 20 78 0 42 -4 82 -8 88 -4 7
-31 12 -59 12 l-53 0 0 -89z"/>
<path d="M1126 1355 c-13 -36 -5 -55 34 -81 43 -29 52 -54 20 -54 -11 0 -20 7
-20 15 0 17 -25 20 -35 5 -3 -6 -3 -19 0 -31 6 -17 14 -20 58 -17 52 3 52 3
55 40 3 33 0 38 -37 59 -44 24 -54 49 -21 49 11 0 20 -7 20 -15 0 -8 9 -15 21
-15 16 0 20 5 17 28 -3 25 -7 27 -54 30 -40 2 -53 -1 -58 -13z"/>
<path d="M1870 1035 c0 -18 5 -25 20 -25 15 0 20 7 20 25 0 18 -5 25 -20 25
-15 0 -20 -7 -20 -25z"/>
<path d="M1957 1053 c-15 -15 -7 -43 13 -43 15 0 20 7 20 25 0 24 -18 34 -33
18z"/>
<path d="M2030 1035 c0 -20 5 -25 25 -25 20 0 25 5 25 25 0 20 -5 25 -25 25
-20 0 -25 -5 -25 -25z"/>
<path d="M2459 1058 c-7 -25 -4 -40 9 -45 9 -4 20 -11 24 -17 4 -6 8 6 8 27 0
30 -4 37 -20 37 -11 0 -20 -1 -21 -2z"/>
<path d="M2540 1035 c0 -18 5 -25 20 -25 15 0 20 7 20 25 0 18 -5 25 -20 25
-15 0 -20 -7 -20 -25z"/>
<path d="M2627 1054 c-4 -4 -7 -16 -7 -26 0 -13 7 -18 26 -18 21 0 25 4 22 22
-3 23 -27 35 -41 22z"/>
<path d="M2859 1043 c-13 -16 -12 -17 4 -4 16 13 21 21 13 21 -2 0 -10 -8 -17
-17z"/>
<path d="M214 887 c-3 -8 -4 -45 -2 -83 l3 -69 43 -3 c39 -3 42 -1 42 22 0 32
-20 45 -27 17 -3 -12 -12 -21 -19 -21 -20 0 -20 116 0 123 9 4 16 -3 20 -16 4
-16 8 -19 17 -10 6 6 9 19 7 29 -4 24 -75 33 -84 11z"/>
<path d="M320 815 c0 -50 4 -85 10 -85 6 0 10 30 10 70 0 63 2 70 20 70 24 0
28 -35 5 -48 -13 -7 -13 -14 -4 -42 7 -19 16 -39 20 -44 17 -18 22 4 8 36 -10
24 -10 33 -1 36 7 2 12 22 12 48 l0 44 -40 0 -40 0 0 -85z"/>
<path d="M427 893 c-4 -3 -7 -42 -7 -85 l0 -78 45 0 45 0 0 85 0 85 -38 0
c-21 0 -42 -3 -45 -7z m54 -125 c-2 -10 -10 -18 -17 -18 -19 0 -20 116 -1 123
12 4 26 -71 18 -105z"/>
<path d="M530 869 c0 -21 9 -38 30 -56 17 -13 30 -31 30 -38 0 -22 -22 -29
-35 -12 -17 24 -25 21 -25 -8 0 -22 4 -25 40 -25 39 0 40 1 40 33 0 24 -8 41
-30 62 -35 34 -38 45 -10 45 11 0 20 -4 20 -10 0 -5 5 -10 10 -10 6 0 10 11
10 25 0 23 -4 25 -40 25 -38 0 -40 -2 -40 -31z"/>
<path d="M637 894 c-16 -16 -5 -52 23 -79 32 -31 40 -65 15 -65 -8 0 -15 7
-15 15 0 8 -7 15 -16 15 -10 0 -14 -7 -12 -22 3 -20 9 -23 43 -23 36 0 40 3
43 27 2 20 -5 34 -27 54 -33 29 -40 54 -16 54 8 0 15 -4 15 -10 0 -5 7 -10 16
-10 10 0 14 7 12 23 -2 17 -10 23 -38 25 -20 2 -39 0 -43 -4z"/>
<path d="M787 894 c-15 -15 -6 -44 23 -77 17 -19 30 -42 30 -51 0 -24 -27 -19
-34 6 -4 17 -8 20 -17 11 -6 -6 -9 -19 -7 -29 2 -15 12 -19 43 -19 35 0 40 3
43 25 2 18 -6 34 -28 55 -32 31 -39 55 -15 55 8 0 15 -4 15 -10 0 -5 7 -10 16
-10 10 0 14 7 12 23 -2 17 -10 23 -38 25 -20 2 -39 0 -43 -4z"/>
<path d="M880 890 c0 -6 7 -13 15 -16 11 -5 15 -23 15 -75 0 -52 3 -69 14 -69
11 0 13 15 9 70 -4 59 -3 70 11 70 9 0 16 7 16 15 0 11 -11 15 -40 15 -22 0
-40 -5 -40 -10z"/>
<path d="M980 815 c0 -50 4 -85 10 -85 6 0 10 35 10 85 0 50 -4 85 -10 85 -6
0 -10 -35 -10 -85z"/>
<path d="M1020 885 c0 -8 7 -15 15 -15 12 0 15 -14 15 -70 0 -40 4 -70 10 -70
6 0 10 30 10 69 0 52 4 70 15 75 29 11 15 26 -25 26 -29 0 -40 -4 -40 -15z"/>
<path d="M1117 894 c-4 -4 -7 -43 -7 -86 l0 -78 45 0 c41 0 45 2 45 25 0 16
-6 25 -15 25 -8 0 -15 -7 -15 -15 0 -8 -7 -15 -15 -15 -21 0 -22 115 -1 123 9
4 16 -3 20 -16 4 -16 8 -19 17 -10 22 22 6 48 -31 51 -20 2 -39 0 -43 -4z"/>
<path d="M1220 815 c0 -50 4 -85 10 -85 6 0 10 16 10 35 0 28 4 35 20 35 16 0
20 -7 20 -35 0 -19 5 -35 10 -35 6 0 10 35 10 85 0 50 -4 85 -10 85 -5 0 -10
-16 -10 -35 0 -28 -4 -35 -20 -35 -16 0 -20 7 -20 35 0 19 -4 35 -10 35 -6 0
-10 -35 -10 -85z"/>
<path d="M1950 717 c0 -31 -6 -49 -20 -62 -20 -18 -21 -18 -63 23 -37 36 -49
42 -85 42 l-42 0 0 -127 0 -127 42 -43 c41 -42 43 -43 109 -43 61 0 70 2 89
27 19 25 21 38 19 190 l-2 163 -23 0 c-22 0 -24 -4 -24 -43z"/>
<path d="M2539 618 c-2 -238 -2 -238 101 -238 64 0 67 1 108 43 l42 43 0 127
0 127 -42 0 c-36 0 -48 -6 -83 -40 -39 -38 -42 -39 -63 -24 -17 12 -22 25 -22
60 0 37 -3 44 -20 44 -19 0 -20 -7 -21 -142z"/>
<path d="M430 620 c0 -49 4 -90 9 -90 6 0 11 15 13 33 2 27 8 33 31 35 25 3
27 6 27 52 0 51 -9 60 -56 60 -24 0 -24 -1 -24 -90z m58 27 c3 -22 -1 -27 -17
-27 -17 0 -21 6 -21 31 0 24 4 30 18 27 10 -2 18 -14 20 -31z"/>
<path d="M555 688 c-28 -125 -31 -158 -15 -158 6 0 10 7 10 15 0 21 30 19 46
-2 12 -17 13 -16 13 7 0 14 -5 54 -12 89 -12 66 -32 90 -42 49z m25 -73 c0
-14 -4 -25 -10 -25 -5 0 -10 11 -10 25 0 14 5 25 10 25 6 0 10 -11 10 -25z"/>
<path d="M626 703 c-11 -11 -6 -23 9 -23 11 0 15 -17 17 -72 2 -40 8 -73 13
-73 6 0 11 33 13 73 l3 72 29 0 30 0 0 -76 c0 -56 3 -75 13 -72 8 3 13 30 15
76 2 40 7 72 12 72 6 0 10 6 10 13 0 10 -21 14 -79 15 -43 0 -81 -2 -85 -5z"/>
<path d="M810 621 l0 -91 35 0 c24 0 35 5 35 15 0 9 -9 15 -25 15 -20 0 -25 5
-25 25 0 18 5 25 20 25 11 0 20 4 20 9 0 5 -9 11 -20 14 -12 3 -20 14 -20 26
0 16 6 21 26 21 37 0 25 24 -14 28 l-32 3 0 -90z"/>
<path d="M900 621 c0 -54 4 -91 10 -91 6 0 10 32 10 75 0 68 2 75 20 75 15 0
20 -7 20 -25 0 -16 -6 -25 -16 -25 -12 0 -15 -6 -10 -25 12 -46 25 -75 36 -75
13 0 13 12 0 46 -7 18 -7 30 0 40 6 7 10 30 8 51 -3 36 -5 38 -40 41 l-38 3 0
-90z"/>
<path d="M1006 703 c-3 -3 -6 -44 -6 -90 0 -63 3 -84 13 -81 6 3 14 24 15 49
l4 44 16 -44 c29 -77 43 -65 40 36 -2 54 -7 86 -13 83 -5 -3 -10 -22 -10 -43
0 -48 -9 -47 -24 3 -12 40 -23 54 -35 43z"/>
<path d="M2850 656 c0 -2 8 -10 18 -17 15 -13 16 -12 3 4 -13 16 -21 21 -21
13z"/>
<path d="M1401 604 c0 -11 3 -14 6 -6 3 7 2 16 -1 19 -3 4 -6 -2 -5 -13z"/>
<path d="M2825 430 c-3 -5 -1 -10 4 -10 6 0 11 5 11 10 0 6 -2 10 -4 10 -3 0
-8 -4 -11 -10z"/>
<path d="M1450 338 c0 -41 2 -46 20 -41 15 4 20 0 20 -16 0 -21 16 -26 62 -23
10 1 18 -7 20 -21 2 -18 10 -23 46 -25 l42 -3 0 45 0 46 -62 0 c-60 0 -64 2
-105 42 l-43 42 0 -46z"/>
<path d="M3035 340 c-37 -38 -42 -40 -102 -40 l-63 0 0 -46 0 -45 43 3 c35 3
43 7 45 26 2 14 10 22 20 21 46 -4 62 1 62 22 0 15 5 20 23 17 20 -3 22 1 23
40 1 23 -2 42 -5 42 -4 0 -25 -18 -46 -40z"/>
<path d="M2080 50 l0 -40 65 0 65 0 -2 40 -1 40 -64 0 -63 0 0 -40z"/>
<path d="M2330 45 l0 -46 63 3 62 3 3 43 3 42 -65 0 -66 0 0 -45z"/>
</g>
</svg>
