<?xml version="1.0" standalone="no"?>
<!DOCTYPE svg PUBLIC "-//W3C//DTD SVG 20010904//EN"
 "http://www.w3.org/TR/2001/REC-SVG-20010904/DTD/svg10.dtd">
<svg version="1.0" xmlns="http://www.w3.org/2000/svg"
 width="600.000000pt" height="886.000000pt" viewBox="0 0 600.000000 886.000000"
 preserveAspectRatio="xMidYMid meet">

<g transform="translate(0.000000,886.000000) scale(0.100000,-0.100000)"
fill="#000000" stroke="none">
<path d="M5678 6808 c-19 -6 -35 -25 -50 -59 -16 -35 -29 -49 -43 -49 -12 0
-16 -3 -8 -8 7 -4 -12 -25 -54 -57 -36 -28 -93 -72 -126 -100 -68 -55 -204
-157 -284 -211 -42 -30 -55 -34 -72 -25 -11 6 -22 7 -25 2 -8 -12 4 -20 22
-14 13 3 13 1 -2 -11 -11 -9 -26 -16 -33 -16 -7 0 -12 -6 -10 -12 1 -7 -5 -12
-14 -10 -9 1 -23 -5 -30 -15 -12 -14 -12 -16 0 -8 10 5 12 4 7 -4 -4 -6 -11
-9 -16 -6 -5 3 -58 -31 -117 -76 -59 -45 -115 -84 -123 -87 -17 -7 -33 -19
-61 -47 l-20 -20 60 -7 c34 -4 65 -10 71 -13 5 -3 10 -28 10 -54 0 -26 3 -51
6 -54 8 -7 52 39 62 64 4 10 153 137 332 285 179 147 344 283 368 303 52 43
147 68 173 45 8 -8 18 -14 21 -14 12 0 29 59 23 82 -4 14 -1 44 5 67 7 28 8
47 1 54 -5 7 -12 29 -16 50 -8 39 -13 42 -57 25z"/>
<path d="M5590 6795 c-7 -8 -9 -23 -5 -32 6 -16 8 -16 18 5 5 12 14 22 19 22
4 0 8 5 8 10 0 15 -26 12 -40 -5z"/>
<path d="M2696 6164 c-3 -9 -6 -54 -6 -100 l0 -84 29 0 c25 0 48 -23 175 -176
81 -97 151 -186 156 -199 13 -34 30 -41 30 -11 0 41 18 76 45 86 14 5 25 13
25 18 0 5 -75 78 -167 163 -260 239 -241 218 -257 292 -7 30 -21 35 -30 11z"/>
<path d="M4486 5935 c-2 -7 -40 -30 -83 -52 -151 -78 -175 -91 -196 -110 -35
-31 -131 -88 -142 -85 -5 2 15 -22 45 -53 36 -37 82 -70 135 -97 44 -22 92
-49 107 -60 22 -15 32 -17 48 -8 26 14 25 22 -5 58 -14 17 -25 38 -25 48 0 14
9 9 42 -21 37 -36 39 -37 20 -9 -12 17 -46 48 -77 69 -76 53 -70 76 10 38 l35
-17 43 41 c40 40 151 113 170 113 4 0 -1 -13 -12 -29 -29 -40 -27 -52 19 -104
22 -25 40 -49 40 -54 0 -4 -25 -30 -55 -58 l-55 -49 33 -36 32 -35 -36 33
c-43 40 -60 38 -108 -12 -32 -33 -32 -34 -17 -64 17 -32 91 -229 120 -319 17
-53 53 -87 254 -247 l25 -20 34 37 c30 33 33 42 27 75 -3 20 -12 42 -19 47
-21 17 -104 159 -98 168 3 4 11 0 19 -10 23 -30 15 -5 -11 37 -14 22 -34 63
-45 92 -18 47 -79 118 -102 118 -18 0 -6 37 21 66 16 17 32 46 35 64 2 18 9
37 15 43 6 6 11 29 11 52 0 64 -29 294 -40 314 -17 34 -203 64 -214 36z m254
-676 c12 -23 19 -43 16 -46 -3 -3 -21 5 -40 17 -37 22 -59 20 -49 -5 3 -8 29
-22 59 -31 43 -12 55 -21 60 -40 4 -14 4 -28 1 -31 -10 -9 -113 36 -158 69
-30 22 -38 33 -30 41 8 8 14 8 23 -1 19 -19 26 -14 20 13 -5 30 11 32 65 10
25 -11 33 -11 26 -3 -12 16 -24 48 -18 48 3 0 14 -18 25 -41z m70 -196 c0 -6
-44 18 -62 35 -36 31 -17 32 22 1 22 -18 40 -34 40 -36z"/>
<path d="M3828 5743 c-27 -28 -27 -28 -8 -53 25 -34 42 -16 38 39 l-3 43 -27
-29z"/>
<path d="M3637 5726 c-3 -7 -23 -16 -45 -20 -29 -4 -47 -14 -61 -35 -12 -16
-21 -33 -21 -39 0 -8 -25 -40 -66 -84 -12 -12 -13 -21 -5 -36 13 -24 3 -36
-17 -19 -13 11 -14 9 -2 -10 8 -12 18 -19 22 -17 4 3 8 -4 8 -15 0 -12 4 -21
8 -21 20 0 32 28 32 71 0 26 3 54 6 63 9 24 41 19 47 -6 8 -30 22 -14 23 25 2
61 6 92 10 81 3 -8 20 -10 44 -7 25 4 46 1 55 -7 12 -10 18 -10 32 1 61 49 67
59 34 59 -10 0 -21 7 -25 15 -7 19 -72 20 -79 1z"/>
<path d="M3748 5664 c-21 -19 -38 -40 -38 -47 0 -6 13 2 29 17 21 20 35 26 50
21 17 -5 21 -14 21 -54 0 -26 -3 -51 -7 -55 -5 -4 -8 -11 -8 -14 -1 -4 -5 -18
-9 -31 -7 -19 -13 -22 -40 -18 l-31 6 33 -15 c32 -14 41 -29 21 -36 -6 -2 -13
-17 -14 -32 -2 -16 -9 -32 -16 -36 -6 -4 -8 -13 -5 -19 11 -17 22 -6 48 47 15
30 22 60 20 85 -2 20 1 37 7 37 5 0 14 15 20 33 9 25 14 29 21 17 8 -13 10
-13 10 2 0 17 -60 128 -70 128 -3 0 -22 -16 -42 -36z"/>
<path d="M3137 5637 c-25 -20 -29 -32 -43 -142 -19 -143 -9 -306 17 -289 5 3
9 3 9 0 0 -3 -18 -15 -40 -26 -23 -12 -46 -32 -52 -45 -6 -14 -15 -25 -20 -25
-4 0 -8 -6 -8 -14 0 -8 -8 -21 -18 -28 -10 -7 -27 -25 -36 -41 -24 -36 -16
-131 14 -162 11 -12 20 -27 20 -33 0 -7 3 -12 8 -12 4 0 15 -15 25 -32 17 -29
17 -33 3 -44 -9 -6 -16 -19 -16 -28 0 -10 -4 -15 -10 -11 -11 7 -31 -14 -63
-64 -12 -19 -29 -37 -37 -41 -71 -33 -90 -45 -90 -56 0 -6 -20 -29 -45 -49
-24 -21 -42 -41 -40 -45 12 -19 -8 -41 -31 -36 -13 4 -24 2 -24 -3 0 -5 -8
-12 -18 -16 -19 -5 -82 -93 -82 -113 0 -5 -6 -15 -14 -21 -8 -7 -14 -35 -15
-75 -1 -35 -5 -76 -10 -93 -7 -26 -4 -34 30 -71 22 -23 39 -39 39 -36 0 2 27
-9 61 -26 51 -26 65 -29 92 -21 18 5 59 18 92 28 64 19 120 49 147 79 21 24
88 154 88 172 0 7 9 26 21 41 16 22 21 44 21 97 1 38 -2 87 -6 109 -6 40 6 76
21 61 4 -4 8 -22 8 -39 0 -42 34 -50 52 -12 6 14 7 23 2 19 -5 -3 -9 0 -9 5 0
6 5 11 11 11 5 0 8 4 5 9 -3 5 2 15 11 22 14 12 16 12 11 -1 -3 -9 0 -24 8
-35 8 -10 14 -30 14 -44 0 -17 3 -21 8 -14 6 9 22 -2 57 -37 l48 -49 31 16
c17 9 36 23 42 31 12 17 71 26 79 12 3 -6 15 -10 26 -10 13 0 18 -4 13 -11 -5
-9 4 -10 31 -5 33 7 37 5 27 -7 -7 -7 -9 -16 -6 -19 8 -9 -36 -109 -60 -136
-11 -12 -53 -43 -94 -68 -67 -42 -76 -45 -98 -34 -44 24 -67 59 -89 137 -12
42 -28 79 -35 81 -14 5 -10 -11 27 -110 18 -50 35 -77 66 -103 22 -19 47 -35
55 -35 8 0 38 14 66 31 120 73 141 91 172 153 26 49 37 62 59 64 15 2 25 0 22
-5 -3 -5 8 -7 25 -5 23 4 29 2 23 -8 -6 -9 -4 -11 5 -5 6 4 36 -1 66 -11 56
-19 76 -15 54 11 -20 24 -19 64 1 60 13 -3 16 2 12 18 -3 16 -2 18 5 9 7 -11
11 -10 17 5 5 10 8 25 7 33 -1 10 0 11 4 3 14 -32 68 -1 160 92 64 65 114 89
167 82 44 -6 80 -29 111 -71 30 -39 28 -189 -4 -301 -15 -53 -22 -104 -21
-150 2 -91 20 -227 32 -241 5 -7 8 -16 7 -20 -2 -5 7 -20 20 -34 13 -14 36
-41 52 -60 l29 -35 1 28 c0 16 -9 40 -20 54 -35 44 -53 127 -41 181 10 48 26
146 37 236 6 54 20 70 113 141 29 22 58 38 64 37 7 -2 9 0 5 4 -4 4 -2 14 5
22 10 13 9 15 -10 10 -16 -4 -23 -2 -23 7 0 20 40 45 73 45 15 0 57 17 92 37
57 33 65 41 65 68 0 16 6 41 13 55 7 14 12 31 11 38 -1 6 -2 16 -3 21 0 5 -9
12 -18 15 -14 6 -14 3 3 -16 l19 -23 -22 19 c-13 10 -20 22 -18 27 7 10 -45
50 -56 43 -5 -3 -8 0 -7 8 2 7 -3 12 -10 10 -8 -1 -11 2 -8 6 3 5 -3 17 -14
27 -11 10 -20 15 -20 11 0 -4 -12 7 -26 24 -15 17 -32 29 -38 27 -7 -3 -20 1
-31 9 -10 8 -14 14 -9 14 6 0 16 -6 24 -12 12 -11 12 -10 1 4 -7 10 -29 27
-47 39 -19 11 -41 34 -50 51 -9 16 -18 27 -21 24 -3 -3 0 -14 8 -23 12 -16 11
-16 -3 -3 -8 8 -30 42 -48 75 -18 33 -50 90 -72 128 -21 37 -36 72 -32 79 4 6
3 8 -3 5 -6 -4 -29 20 -52 53 -23 33 -44 60 -47 60 -3 0 9 -20 26 -45 28 -40
29 -46 14 -52 -10 -4 -19 -2 -22 5 -7 23 -52 13 -64 -13 -13 -30 -24 -32 -33
-6 -9 30 -39 34 -76 12 -18 -11 -36 -18 -41 -15 -4 3 -8 -1 -8 -9 0 -23 -23
-36 -97 -58 -73 -21 -322 -60 -363 -57 -14 1 -71 -4 -127 -11 -57 -7 -109 -11
-118 -8 -8 4 -17 1 -21 -5 -4 -7 -9 -6 -15 3 -5 8 -9 9 -9 3 0 -6 -7 -11 -15
-11 -12 0 -14 7 -10 29 3 15 8 41 11 57 3 17 20 44 37 62 20 19 24 27 12 21
-24 -12 -64 -53 -64 -66 0 -6 -8 -11 -18 -12 -10 -2 -28 -14 -39 -28 -12 -13
-36 -31 -53 -40 -17 -9 -48 -39 -68 -66 -51 -68 -84 -68 -57 0 18 43 72 84 90
69 13 -11 16 -9 182 146 35 33 80 84 100 114 l36 54 -40 36 c-21 20 -61 55
-88 77 -43 37 -46 42 -27 47 12 3 18 1 15 -4 -3 -5 11 -16 30 -24 35 -15 53
-33 20 -21 -14 5 -15 4 -4 -9 11 -14 14 -13 25 2 15 21 0 47 -21 39 -8 -3 -13
-1 -11 5 2 11 -76 59 -96 59 -8 0 -7 -4 3 -10 9 -6 10 -10 3 -10 -6 0 -15 5
-18 10 -3 6 -11 10 -16 10 -6 0 -8 -4 -5 -8 3 -5 -1 -9 -9 -9 -8 0 -12 4 -9 9
11 17 -22 7 -49 -15z m48 -123 c31 -20 85 -101 85 -127 0 -29 -41 -107 -57
-107 -21 0 -56 26 -80 59 l-22 29 20 38 c13 26 19 53 17 82 -3 46 1 50 37 26z
m752 -396 c31 1 31 1 15 -16 -10 -9 -60 -37 -112 -62 -72 -34 -118 -66 -195
-134 -92 -82 -298 -236 -315 -236 -23 0 -240 315 -240 350 0 14 29 27 78 35
35 6 41 4 36 -8 -9 -24 74 -26 226 -5 87 11 150 26 177 39 50 25 201 50 258
42 22 -3 54 -5 72 -5z m463 -69 c0 -19 -8 -29 -34 -41 l-33 -16 -17 35 c-12
25 -14 39 -7 46 6 6 11 8 11 4 0 -3 15 0 32 8 37 15 48 7 48 -36z m160 -134
c11 -13 10 -14 -4 -9 -9 3 -16 10 -16 15 0 13 6 11 20 -6z m95 -75 c10 -11 16
-20 13 -20 -3 0 -13 9 -23 20 -10 11 -16 20 -13 20 3 0 13 -9 23 -20z m-91
-19 c4 -5 -4 -7 -16 -4 -23 5 -23 5 -3 -11 20 -17 20 -17 -3 -6 -12 6 -28 8
-35 5 -6 -4 -3 1 7 9 22 18 42 21 50 7z m36 -16 c-14 -17 0 -21 17 -4 7 7 18
9 26 6 16 -6 33 -77 20 -86 -14 -11 -12 -40 3 -34 8 3 14 8 14 12 0 14 59 51
65 41 4 -6 1 -9 -7 -8 -7 2 -12 -4 -10 -12 2 -8 0 -12 -4 -8 -4 4 -13 0 -20
-10 -13 -18 -10 -32 7 -32 6 0 7 5 4 10 -3 6 1 10 9 10 9 0 16 5 16 12 0 6 3
8 7 5 10 -11 -39 -58 -55 -52 -7 2 -10 0 -7 -5 6 -10 -92 -60 -119 -60 -21 0
-76 49 -56 50 9 1 6 5 -7 10 -12 5 -27 18 -33 30 -10 19 -10 20 9 8 11 -6 18
-16 15 -20 -3 -4 1 -5 9 -2 8 3 18 1 22 -5 3 -6 10 -11 14 -11 4 0 -16 24 -46
53 -54 55 -65 77 -38 77 8 0 15 4 15 9 0 9 42 8 89 -3 13 -3 21 -3 17 1 -7 8
13 33 26 33 6 0 5 -7 -2 -15z m110 -6 c0 -6 -4 -7 -10 -4 -5 3 -10 11 -10 16
0 6 5 7 10 4 6 -3 10 -11 10 -16z m-11 -33 c9 -10 8 -16 -4 -26 -13 -11 -15
-8 -15 14 0 30 3 32 19 12z m-1636 -51 c10 -14 13 -25 7 -25 -5 0 -10 5 -10
12 0 6 -3 8 -6 5 -4 -3 -16 -1 -27 4 -16 9 -17 13 -6 20 20 12 22 11 42 -16z
m0 -70 l32 -7 -34 -10 c-42 -12 -81 3 -81 30 0 29 10 33 32 13 11 -11 34 -22
51 -26z m5 32 c12 -1 22 -5 22 -9 0 -14 -45 -9 -66 8 -19 15 -19 16 1 8 11 -4
30 -7 43 -7z m1637 -73 c-8 -20 -15 -38 -15 -41 0 -2 -21 -13 -46 -24 l-46
-21 -29 28 c-34 32 -37 44 -9 37 23 -6 116 25 132 44 21 25 28 12 13 -23z
m-1150 7 c-3 -6 -11 -11 -16 -11 -5 0 -4 6 3 14 14 16 24 13 13 -3z m-281 -53
c-4 -6 -3 -8 4 -4 6 3 14 1 17 -4 4 -6 19 -16 33 -22 21 -9 23 -12 10 -15 -20
-5 -13 -33 8 -33 19 0 38 -37 21 -43 -6 -3 -7 -6 -1 -6 5 -1 19 6 30 14 16 13
16 14 2 9 -10 -3 -18 -1 -18 5 0 13 36 15 44 3 3 -5 -12 -19 -33 -30 l-39 -22
-51 56 c-28 30 -52 61 -52 67 -7 58 -7 57 13 46 10 -5 15 -15 12 -21z m224 23
c9 -5 0 -13 -30 -24 -54 -21 -64 -21 -48 -3 6 8 19 12 27 9 10 -4 14 -2 10 4
-4 6 -1 14 5 16 19 8 22 8 36 -2z m-535 -19 c-2 -6 3 -9 11 -6 8 3 19 -11 30
-41 10 -25 27 -52 39 -60 11 -8 18 -18 14 -21 -9 -9 -147 84 -147 99 0 16 32
48 44 43 6 -2 10 -8 9 -14z m136 -36 c-11 -19 -17 -42 -13 -52 5 -18 5 -18 -6
-2 -8 14 -7 26 6 53 9 19 20 35 25 35 4 0 -1 -15 -12 -34z m428 28 c-3 -3 -12
-4 -19 -1 -8 3 -5 6 6 6 11 1 17 -2 13 -5z m-133 -29 c-4 -8 -13 -15 -21 -15
-13 0 -13 3 -3 15 7 8 16 15 21 15 5 0 6 -7 3 -15z m110 -3 c16 8 18 8 10 -1
-6 -7 -20 -14 -30 -15 -11 -2 -19 -9 -19 -17 -1 -8 -7 -12 -15 -10 -8 3 -27 5
-42 5 -16 1 -28 4 -28 7 0 11 40 18 46 8 3 -5 10 -9 15 -9 6 0 7 5 4 10 -4 6
-1 9 7 8 7 -2 12 4 10 12 -3 12 -1 12 9 3 9 -9 18 -9 33 -1z m-637 -17 c9 -24
-1 -27 -15 -5 -8 13 -8 20 -2 20 6 0 13 -7 17 -15z m688 5 c-3 -5 -1 -10 5
-10 6 0 8 -5 4 -11 -4 -8 -9 -7 -15 2 -7 12 -3 29 7 29 3 0 2 -4 -1 -10z m244
-16 c9 -8 -55 -2 -74 6 -13 6 -5 7 25 3 25 -3 47 -7 49 -9z m-205 -10 c3 -8 2
-12 -4 -9 -6 3 -10 10 -10 16 0 14 7 11 14 -7z m-70 -13 c-10 -10 -21 -16 -24
-14 -3 3 4 11 14 19 28 20 33 17 10 -5z m100 -26 c-4 -8 -11 -12 -16 -9 -6 4
-5 10 3 15 19 12 19 11 13 -6z m264 -10 c-3 -3 -9 2 -12 12 -6 14 -5 15 5 6 7
-7 10 -15 7 -18z m-165 8 c-7 -2 -21 -2 -30 0 -10 3 -4 5 12 5 17 0 24 -2 18
-5z m-56 -9 c-3 -3 -12 -4 -19 -1 -8 3 -5 6 6 6 11 1 17 -2 13 -5z m33 -8 c0
-2 -7 -7 -16 -10 -8 -3 -12 -2 -9 4 6 10 25 14 25 6z m-59 -23 c12 -16 12 -17
-1 -7 -8 6 -22 14 -30 17 -13 5 -12 6 1 6 9 1 23 -7 30 -16z m-841 -9 c0 -8
-4 -12 -10 -9 -5 3 -10 10 -10 16 0 5 5 9 10 9 6 0 10 -7 10 -16z m907 0 c-3
-3 -12 -4 -19 -1 -8 3 -5 6 6 6 11 1 17 -2 13 -5z m43 -14 c8 -5 11 -10 5 -10
-5 0 -17 5 -25 10 -8 5 -10 10 -5 10 6 0 17 -5 25 -10z m90 -20 c0 -5 -5 -12
-12 -16 -7 -5 -8 -3 -3 6 5 9 2 10 -11 6 -11 -3 -25 -2 -31 2 -8 5 1 8 22 9
19 1 35 -3 35 -7z m-1117 -102 c24 -25 28 -36 23 -62 -17 -88 -115 -129 -155
-64 -13 22 -13 23 6 6 22 -21 43 -23 43 -6 0 6 -3 8 -6 5 -4 -4 -20 1 -35 10
-36 21 -39 67 -8 107 42 53 85 55 132 4z"/>
<path d="M3578 5033 c7 -3 16 -2 19 1 4 3 -2 6 -13 5 -11 0 -14 -3 -6 -6z"/>
<path d="M3460 5012 c0 -5 11 -15 25 -22 14 -7 25 -20 26 -29 0 -11 2 -12 6
-3 3 7 -7 24 -22 37 -28 27 -35 30 -35 17z"/>
<path d="M3216 4975 c-9 -26 -7 -32 5 -12 6 10 9 21 6 23 -2 3 -7 -2 -11 -11z"/>
<path d="M3486 4905 c-9 -26 -7 -32 5 -12 6 10 9 21 6 23 -2 3 -7 -2 -11 -11z"/>
<path d="M3344 4744 c-18 -14 -18 -15 4 -4 12 6 22 13 22 15 0 8 -5 6 -26 -11z"/>
<path d="M4467 4775 c-12 -8 -14 -15 -8 -20 6 -3 11 -1 11 4 0 6 4 11 9 11 6
0 8 -9 6 -19 -2 -13 1 -18 10 -15 7 3 11 14 8 25 -7 26 -15 30 -36 14z"/>
<path d="M4578 4733 c6 -2 18 -2 25 0 6 3 1 5 -13 5 -14 0 -19 -2 -12 -5z"/>
<path d="M4515 4711 c-3 -5 -1 -12 4 -15 5 -3 11 1 15 9 6 16 -9 21 -19 6z"/>
<path d="M4595 4659 c-29 -13 -34 -19 -19 -19 12 0 32 9 45 20 29 24 25 24
-26 -1z"/>
<path d="M3269 4525 c6 -11 22 -33 37 -50 14 -16 21 -21 15 -10 -6 11 -22 34
-37 50 -14 17 -21 21 -15 10z"/>
<path d="M2661 4249 c25 -23 30 -48 14 -79 -20 -39 -19 -47 5 -25 29 27 24 83
-10 102 -17 11 -20 11 -9 2z"/>
<path d="M3447 5629 c7 -7 15 -10 18 -7 3 3 -2 9 -12 12 -14 6 -15 5 -6 -5z"/>
<path d="M3681 5574 c-23 -29 -20 -44 8 -44 19 0 51 30 51 47 0 9 -22 23 -35
23 -2 0 -13 -12 -24 -26z"/>
<path d="M3860 5525 c0 -15 4 -24 10 -20 6 3 10 12 10 20 0 8 -4 17 -10 20 -6
4 -10 -5 -10 -20z"/>
<path d="M3656 5494 c-11 -8 -16 -14 -10 -14 13 0 39 18 34 24 -3 2 -14 -2
-24 -10z"/>
<path d="M3563 5479 c-7 -7 -13 -30 -13 -51 0 -43 -13 -48 -40 -15 -17 20 -20
21 -35 6 -16 -15 -16 -19 -1 -48 9 -17 20 -31 24 -31 4 0 6 -18 4 -40 -4 -35
-1 -40 16 -40 25 0 36 16 37 55 3 71 6 85 15 85 6 0 19 -13 28 -30 17 -30 52
-36 60 -11 3 9 -2 11 -16 7 -21 -7 -35 13 -26 38 3 8 -3 22 -14 32 -11 11 -21
27 -23 37 -3 15 -6 16 -16 6z"/>
<path d="M3678 5448 c5 -5 16 -8 23 -6 8 3 3 7 -10 11 -17 4 -21 3 -13 -5z"/>
<path d="M4180 5456 c0 -2 8 -10 18 -17 15 -13 16 -12 3 4 -13 16 -21 21 -21
13z"/>
<path d="M3798 5374 c-5 -43 9 -52 52 -34 37 15 38 28 3 36 -16 4 -33 13 -39
21 -9 11 -13 6 -16 -23z"/>
<path d="M4840 5070 c6 -11 13 -20 16 -20 2 0 0 9 -6 20 -6 11 -13 20 -16 20
-2 0 0 -9 6 -20z"/>
<path d="M2972 4785 c0 -16 2 -22 5 -12 2 9 2 23 0 30 -3 6 -5 -1 -5 -18z"/>
<path d="M4861 4488 c0 -9 -4 -25 -7 -35 -5 -17 -5 -17 6 0 6 10 9 25 7 35 -4
15 -5 15 -6 0z"/>
<path d="M4982 4410 c0 -14 2 -19 5 -12 2 6 2 18 0 25 -3 6 -5 1 -5 -13z"/>
<path d="M3444 4408 c-4 -6 -3 -8 4 -5 14 9 43 -3 36 -14 -3 -5 2 -6 11 -3 11
5 13 10 6 17 -16 16 -49 19 -57 5z"/>
<path d="M3170 4401 c0 -6 5 -13 10 -16 6 -3 10 1 10 9 0 9 -4 16 -10 16 -5 0
-10 -4 -10 -9z"/>
<path d="M4643 4383 c9 -2 23 -2 30 0 6 3 -1 5 -18 5 -16 0 -22 -2 -12 -5z"/>
<path d="M3576 4367 c3 -10 9 -15 12 -12 3 3 0 11 -7 18 -10 9 -11 8 -5 -6z"/>
<path d="M4705 4370 c12 -4 33 -25 48 -46 34 -50 111 -135 99 -109 -6 11 -22
31 -36 44 -15 14 -40 46 -57 73 -22 34 -38 48 -53 47 -21 0 -21 0 -1 -9z"/>
<path d="M4840 4368 c0 -7 12 -26 26 -43 14 -16 23 -25 21 -20 -26 69 -47 96
-47 63z"/>
<path d="M4982 4350 c0 -19 2 -27 5 -17 2 9 2 25 0 35 -3 9 -5 1 -5 -18z"/>
<path d="M4915 4345 c4 -11 16 -44 26 -74 11 -30 21 -56 24 -59 8 -8 -8 73
-16 83 -5 5 -9 17 -9 26 0 9 -8 23 -17 30 -15 12 -16 12 -8 -6z"/>
<path d="M3810 4186 c-49 -18 -214 -102 -281 -142 l-57 -34 11 -41 c7 -31 12
-37 19 -26 4 9 36 29 71 46 49 24 69 29 92 23 38 -10 43 -35 13 -56 -13 -9
-43 -31 -66 -49 -24 -18 -57 -42 -74 -54 -17 -13 -34 -21 -38 -18 -3 2 -15
-21 -24 -52 -17 -53 -19 -56 -32 -38 -17 23 -18 12 -3 -17 16 -30 -12 -48 -75
-48 -73 0 -95 15 -117 80 -11 31 -30 63 -44 73 -14 10 -25 23 -25 29 0 6 -20
33 -45 59 -49 53 -57 83 -23 92 15 4 33 -5 66 -34 35 -30 48 -37 58 -28 8 6
12 14 10 18 -3 4 -1 13 4 21 6 10 -3 27 -31 57 -32 35 -39 50 -39 85 l0 41
-22 -20 c-13 -11 -31 -23 -40 -26 -25 -9 -48 -71 -48 -128 0 -30 -8 -62 -20
-84 -11 -20 -20 -43 -20 -53 0 -9 -9 -41 -20 -71 -20 -55 -26 -196 -8 -207 4
-3 8 -40 9 -82 0 -42 3 -71 6 -64 7 19 19 15 30 -11 7 -15 9 -64 6 -128 l-5
-104 36 -54 c20 -29 36 -55 36 -58 0 -2 7 -11 15 -20 8 -8 13 -19 10 -24 -4
-5 1 -6 9 -3 12 5 16 -2 17 -27 2 -29 3 -30 6 -8 4 24 9 27 65 33 34 3 75 6
91 6 29 0 30 -1 11 -15 -10 -8 -14 -15 -8 -15 21 0 55 48 69 96 17 63 50 152
58 161 4 3 7 17 7 29 0 13 5 26 10 29 6 3 10 18 10 33 0 15 9 38 20 52 11 14
20 30 20 36 0 18 35 44 58 44 17 0 28 -13 47 -53 13 -30 31 -60 40 -67 8 -7
15 -18 15 -25 0 -7 7 -18 15 -25 19 -16 45 -68 45 -91 0 -10 5 -21 10 -24 6
-3 10 -15 10 -26 0 -10 4 -27 9 -37 5 -9 14 -30 21 -47 7 -16 16 -38 21 -47 5
-10 9 -24 9 -33 0 -8 12 -36 27 -62 15 -26 32 -58 38 -70 9 -18 14 -20 25 -10
7 7 10 7 7 2 -3 -6 1 -19 9 -30 8 -10 14 -14 14 -9 0 6 -5 15 -10 20 -8 8 -6
15 6 25 16 12 17 12 11 -4 -4 -11 -3 -16 3 -12 6 3 10 2 10 -3 0 -5 6 -9 14
-9 8 0 14 5 13 11 -1 5 7 12 18 14 11 2 23 9 26 14 4 7 14 6 27 -1 31 -16 56
-13 81 10 19 18 22 28 17 58 -5 28 -4 33 4 21 9 -12 10 -10 6 10 -4 14 -8 42
-10 64 -2 21 -7 41 -12 45 -5 3 -10 21 -11 40 0 18 -7 38 -13 45 -10 8 -11 5
-8 -16 3 -15 1 -25 -3 -22 -5 3 -9 11 -9 19 0 8 -4 16 -8 19 -5 3 -7 -9 -5
-27 2 -18 0 -26 -3 -19 -3 6 -11 9 -17 5 -7 -4 -8 0 -4 11 4 11 3 15 -4 10 -6
-3 -9 -17 -6 -30 2 -13 0 -24 -4 -24 -5 0 -10 12 -11 28 -1 30 -1 30 -12 84
-6 28 -4 44 10 67 10 17 22 31 26 31 4 0 8 8 7 18 0 10 -3 12 -6 5 -2 -7 -9
-13 -15 -13 -5 0 0 12 11 26 19 25 21 40 21 195 0 147 -2 173 -19 202 -25 45
-36 66 -52 102 -8 17 -25 42 -39 56 -14 14 -31 37 -39 51 -12 24 -11 29 18 65
40 49 35 66 -37 128 -58 49 -61 50 -112 31z m-663 -564 c10 -13 8 -17 -13 -29
-43 -21 -104 6 -91 41 7 19 87 10 104 -12z m788 -62 c10 -16 -34 -55 -76 -69
-35 -11 -89 -6 -89 8 0 41 145 94 165 61z m139 -490 c-6 -6 -10 -3 -10 10 0
13 4 16 10 10 7 -7 7 -13 0 -20z m-7 -44 c-9 -7 -17 -19 -18 -27 0 -11 -2 -11
-6 -1 -5 13 28 53 37 45 3 -3 -3 -10 -13 -17z m-43 -21 c-4 -8 -11 -15 -16
-15 -6 0 -5 6 2 15 7 8 14 15 16 15 2 0 1 -7 -2 -15z m-14 -51 c0 -8 4 -12 10
-9 6 3 7 -1 4 -10 -4 -9 -13 -13 -24 -10 -11 3 -20 -1 -24 -11 -4 -12 -2 -15
9 -10 19 7 20 -8 1 -23 -11 -10 -16 -8 -21 9 -5 17 -9 19 -21 9 -12 -10 -13
-9 -8 5 4 10 13 15 21 11 11 -4 13 -1 9 10 -4 11 -2 14 6 9 7 -5 9 -2 5 8 -6
17 11 40 25 32 4 -3 8 -12 8 -20z m30 22 c0 -3 -4 -8 -10 -11 -5 -3 -10 -1
-10 4 0 6 5 11 10 11 6 0 10 -2 10 -4z"/>
<path d="M3985 2961 c-3 -5 -2 -12 3 -15 5 -3 9 1 9 9 0 17 -3 19 -12 6z"/>
<path d="M4880 4190 c-9 -6 -10 -10 -3 -10 6 0 15 5 18 10 8 12 4 12 -15 0z"/>
<path d="M4659 4123 c-13 -16 -12 -17 4 -4 16 13 21 21 13 21 -2 0 -10 -8 -17
-17z"/>
<path d="M4955 4104 c28 -30 39 -72 30 -115 -5 -24 -11 -29 -23 -23 -10 4 -61
10 -114 12 l-98 4 0 -26 c0 -15 -6 -29 -14 -32 -8 -3 -16 -18 -19 -33 -7 -35
-68 -102 -75 -82 -2 7 0 16 6 20 18 11 42 78 41 113 -1 27 -3 24 -10 -16 -8
-53 -55 -112 -96 -122 -13 -4 -23 -12 -23 -20 0 -7 -17 -29 -37 -49 -21 -21
-33 -39 -27 -43 5 -4 18 -20 27 -35 15 -22 16 -31 6 -43 -15 -18 -10 -18 41 5
23 10 37 20 30 23 -7 2 13 5 44 6 31 1 56 -1 56 -6 0 -5 -15 -7 -32 -5 l-33 3
35 -11 c19 -6 36 -12 37 -13 1 -1 -4 -24 -12 -51 -8 -26 -15 -60 -15 -75 0
-19 -8 -31 -26 -41 -29 -15 -56 -14 -126 6 l-46 13 -4 -91 c-2 -51 -1 -103 3
-117 l7 -25 1 26 c1 14 12 36 26 49 14 13 25 31 25 41 0 10 4 20 8 23 7 4 12
-12 15 -56 2 -29 17 -8 17 25 l1 32 20 -25 c11 -14 28 -34 37 -45 9 -11 20
-31 23 -45 6 -23 7 -23 8 -3 2 35 21 38 21 3 0 -42 25 -99 47 -107 10 -4 21
-11 25 -17 8 -12 21 2 64 67 22 33 25 47 20 98 -2 34 0 57 5 53 5 -3 9 2 9 11
0 9 6 15 13 12 6 -2 20 5 29 16 11 12 25 17 38 14 12 -3 20 0 20 7 0 16 -28
38 -68 54 -17 6 -46 18 -62 24 -22 9 -35 10 -47 2 -23 -14 -51 -72 -55 -113
-3 -19 -10 -37 -16 -39 -8 -2 -12 16 -12 62 0 88 17 163 41 180 17 11 17 14 5
19 -16 6 -12 37 5 37 4 0 6 -7 2 -16 -5 -14 -3 -15 15 -5 27 14 54 15 32 1
-11 -7 -6 -8 17 -4 25 5 34 2 39 -9 5 -14 11 -12 40 11 28 22 34 34 34 65 0
30 7 44 40 76 l40 39 10 118 c13 163 13 162 -12 170 -12 3 -31 15 -42 25 -30
28 -39 23 -11 -7z m-128 -675 c35 -6 63 -14 63 -18 0 -4 -31 -8 -70 -8 -61 0
-70 2 -70 19 0 21 -4 21 77 7z m-69 -218 c15 -22 15 -23 -9 -19 -16 2 -25 10
-27 27 -4 29 15 25 36 -8z m42 -11 c0 -5 -4 -10 -10 -10 -5 0 -10 5 -10 10 0
6 5 10 10 10 6 0 10 -4 10 -10z"/>
<path d="M2405 4046 c-17 -12 -18 -18 -7 -52 6 -21 8 -41 3 -44 -4 -3 -16 -20
-25 -38 -16 -32 -16 -37 -1 -75 9 -23 26 -52 37 -64 20 -22 22 -53 2 -60 -6
-2 -15 6 -21 19 -6 15 -12 18 -17 10 -4 -7 -2 -12 3 -12 6 0 11 -7 11 -16 0
-8 -4 -12 -10 -9 -5 3 -10 -1 -10 -10 0 -13 -6 -16 -23 -11 -20 5 -26 -1 -44
-43 -15 -37 -27 -50 -44 -53 -16 -2 -31 -16 -44 -41 -11 -20 -30 -44 -42 -53
-29 -19 -29 -31 -2 -39 22 -7 20 -15 -4 -19 -17 -2 -92 -77 -89 -89 2 -5 -2
-6 -7 -3 -9 6 -41 -30 -41 -47 0 -4 10 -2 23 4 20 11 21 11 7 -5 -16 -20 -24
-56 -12 -56 4 0 26 11 49 24 23 14 53 28 65 31 13 4 37 17 53 30 27 20 95 39
95 26 0 -2 -10 -15 -22 -28 -33 -35 -16 -37 28 -4 86 66 96 75 107 100 6 14
28 44 49 67 l38 40 -30 23 c-29 21 -31 26 -28 74 l3 52 50 7 c28 4 67 11 88
16 20 6 37 8 37 5 0 -3 -11 -18 -25 -35 -15 -17 -25 -42 -25 -60 l0 -30 25 30
c14 17 25 34 25 39 0 6 9 18 20 28 11 10 20 27 20 38 0 11 7 28 15 37 11 12
13 24 7 40 -6 15 -11 19 -16 12 -4 -7 -17 -12 -29 -12 -21 0 -21 1 5 25 15 14
33 24 40 23 8 -2 14 10 16 30 3 31 2 33 -17 23 -40 -22 -71 -14 -87 24 -16 40
-74 124 -86 126 -4 1 -20 2 -35 4 -16 1 -35 5 -43 9 -9 3 -24 0 -35 -8z m74
-180 c18 -33 10 -68 -19 -83 -30 -15 -46 -4 -55 38 -13 56 49 93 74 45z m-56
-182 c3 -4 1 -16 -5 -27 -9 -17 -8 -19 6 -14 21 8 -50 -80 -76 -94 -20 -11
-71 16 -65 35 4 12 117 106 127 106 4 0 10 -3 13 -6z m-233 -259 c0 -7 -30
-13 -34 -7 -3 4 4 9 15 9 10 1 19 0 19 -2z"/>
<path d="M4550 4010 c8 -5 20 -10 25 -10 6 0 3 5 -5 10 -8 5 -19 10 -25 10 -5
0 -3 -5 5 -10z"/>
<path d="M4587 3957 c10 -63 -43 -122 -92 -103 -8 3 -15 2 -15 -3 0 -15 48
-22 73 -10 43 20 69 86 51 133 -11 29 -23 17 -17 -17z"/>
<path d="M2594 3971 c7 -11 46 -35 46 -28 0 3 -12 12 -26 22 -15 9 -23 12 -20
6z"/>
<path d="M4450 3917 c0 -20 4 -38 9 -42 6 -3 7 10 4 32 -8 50 -13 55 -13 10z"/>
<path d="M3278 3919 c-10 -5 -18 -17 -18 -26 0 -9 3 -13 7 -10 3 4 17 0 30 -8
21 -14 26 -14 53 0 37 19 40 19 40 -4 0 -26 -54 -64 -80 -56 -11 3 -29 18 -40
32 l-20 26 0 -26 c0 -14 5 -47 11 -74 l11 -48 53 3 53 4 15 60 c14 55 14 65 0
100 -14 36 -18 38 -57 38 -22 0 -49 -5 -58 -11z"/>
<path d="M3502 3880 c0 -19 2 -27 5 -17 2 9 2 25 0 35 -3 9 -5 1 -5 -18z"/>
<path d="M4770 3586 c0 -2 8 -10 18 -17 15 -13 16 -12 3 4 -13 16 -21 21 -21
13z"/>
<path d="M4855 3550 c-3 -5 -1 -10 4 -10 6 0 11 5 11 10 0 6 -2 10 -4 10 -3 0
-8 -4 -11 -10z"/>
<path d="M4083 3278 c3 -9 1 -19 -6 -22 -9 -3 -9 -5 0 -5 18 -1 23 13 11 29
-8 12 -9 12 -5 -2z"/>
<path d="M4571 3274 c0 -11 3 -14 6 -6 3 7 2 16 -1 19 -3 4 -6 -2 -5 -13z"/>
<path d="M4611 3242 c-1 -8 -6 -10 -13 -6 -9 5 -8 2 1 -9 12 -15 11 -20 -4
-37 -18 -19 -27 -90 -12 -90 4 0 16 9 27 20 20 20 29 77 10 65 -6 -4 -8 -10
-6 -14 3 -4 -1 -8 -10 -8 -12 0 -12 3 -1 21 8 12 25 27 38 33 23 12 23 13 2
13 -12 0 -24 6 -26 13 -4 9 -6 9 -6 -1z"/>
<path d="M4090 3226 c0 -16 18 -31 27 -22 3 3 -2 12 -11 21 -14 14 -16 14 -16
1z"/>
<path d="M4518 3233 c-16 -2 -28 -9 -28 -14 0 -14 40 -10 56 6 9 8 12 14 7 14
-4 -1 -20 -4 -35 -6z"/>
<path d="M4756 3099 c-3 -13 -7 -37 -9 -54 -3 -26 -4 -27 -11 -10 -23 59 -25
60 -25 12 -1 -34 3 -49 14 -54 23 -8 28 1 36 65 6 59 4 82 -5 41z"/>
<path d="M3323 2993 c9 -2 23 -2 30 0 6 3 -1 5 -18 5 -16 0 -22 -2 -12 -5z"/>
<path d="M2907 2973 c-16 -3 -26 -10 -24 -16 3 -10 14 -12 62 -8 8 1 15 8 15
16 0 8 -6 14 -12 14 -7 -1 -26 -4 -41 -6z"/>
<path d="M3311 2967 c-6 -8 -8 -17 -4 -20 3 -4 -7 -7 -23 -8 -16 0 -49 -2 -74
-3 -41 -3 -110 10 -151 28 -10 4 -25 -3 -43 -19 -28 -26 -57 -25 -35 1 15 18
9 18 -30 -2 -18 -9 -41 -14 -52 -11 -25 7 -36 -17 -19 -38 7 -8 25 -15 41 -15
26 0 29 -3 29 -34 0 -19 -3 -41 -6 -50 -9 -24 -33 -19 -40 9 -3 14 -9 25 -13
25 -13 0 8 -118 34 -196 14 -41 25 -87 25 -102 0 -17 10 -38 25 -52 14 -13 25
-29 25 -37 0 -7 6 -13 14 -13 20 0 51 -49 51 -80 0 -14 5 -28 10 -32 6 -5 5
-8 -3 -8 -8 0 -11 -7 -7 -19 4 -13 -5 -25 -33 -45 -69 -48 -85 -71 -89 -129
-1 -28 -11 -81 -22 -117 -10 -36 -23 -83 -28 -105 -6 -28 -14 -41 -28 -43 -11
-2 -27 -10 -35 -17 -8 -8 -19 -14 -25 -14 -5 0 -11 -11 -13 -23 -1 -13 -7 -49
-13 -81 -10 -55 -9 -59 15 -88 14 -17 26 -35 26 -40 0 -5 11 -14 25 -19 29
-11 33 -38 8 -47 -10 -4 -32 -19 -50 -34 -17 -15 -40 -32 -50 -38 -17 -9 -17
-11 -1 -23 15 -11 40 -59 42 -81 1 -4 18 -25 38 -46 l38 -37 -51 -58 c-38 -42
-49 -60 -40 -69 8 -8 17 -5 34 12 l24 22 57 -21 c42 -16 57 -27 62 -46 7 -29
10 -29 53 -3 36 22 52 19 31 -6 -11 -13 -9 -19 9 -39 l22 -23 -25 -38 c-38
-56 -32 -62 18 -19 25 22 70 59 100 84 31 25 58 53 61 62 11 32 47 69 83 83
25 11 32 19 25 26 -25 25 -140 -74 -130 -112 5 -20 -1 -23 -27 -13 -30 12 -18
54 27 96 57 53 93 71 129 64 23 -5 30 -1 37 17 5 12 20 33 34 46 14 13 35 48
48 78 17 43 20 59 11 78 -7 16 -8 26 -1 30 5 4 7 10 4 15 -3 4 18 27 45 50 28
23 53 53 56 66 3 13 10 24 15 24 12 0 11 -17 -1 -41 -9 -16 -7 -19 9 -19 25 0
37 22 61 113 22 80 26 201 9 244 -25 64 -55 119 -71 131 -12 9 -18 27 -18 52
0 33 -5 41 -36 59 -22 13 -34 28 -33 39 3 18 -19 67 -27 60 -2 -3 3 -27 11
-53 15 -52 6 -81 -22 -71 -8 3 -12 2 -9 -3 3 -5 -6 -8 -19 -8 -28 0 -31 6 -12
27 6 8 3 7 -8 -2 -19 -15 -22 -15 -45 4 -21 17 -33 19 -91 13 -75 -8 -109 -1
-109 21 0 8 -5 14 -11 14 -5 0 -7 -5 -3 -12 5 -8 2 -9 -10 -5 -10 4 -22 7 -27
7 -5 0 -9 5 -9 11 0 5 5 7 12 3 7 -5 8 -3 3 6 -6 10 -1 12 19 8 14 -3 29 -1
32 3 9 16 26 9 20 -7 -5 -13 -1 -15 18 -10 18 4 25 1 29 -15 7 -27 43 -21 40
6 -2 11 -4 34 -5 50 -3 28 -6 30 -39 30 -34 0 -35 -1 -18 -13 10 -7 23 -11 28
-7 5 3 12 1 16 -5 9 -15 -25 -25 -45 -12 -10 6 -22 7 -31 1 -20 -12 -69 -11
-69 2 0 5 4 8 9 5 13 -8 71 5 71 15 0 5 -6 9 -12 9 -7 0 -35 9 -63 20 -42 17
-44 19 -15 14 19 -3 40 -10 45 -14 15 -11 105 -10 105 2 0 5 14 0 31 -12 16
-12 28 -25 25 -28 -3 -2 -14 1 -23 9 -16 13 -17 12 -4 -3 7 -10 19 -18 25 -18
19 0 59 -47 51 -59 -3 -6 -2 -11 4 -11 5 0 11 3 13 8 2 4 19 18 38 31 19 12
27 20 18 17 -10 -3 -20 -1 -23 4 -9 15 33 88 54 95 25 8 34 31 21 56 -10 18
-13 18 -41 4 -18 -10 -39 -13 -51 -9 -20 6 -21 7 -4 19 15 12 15 13 -8 11 -13
0 -22 -5 -19 -11 3 -5 0 -4 -8 3 -27 25 -51 210 -33 256 8 22 21 20 29 -4 7
-22 39 -27 51 -8 5 8 2 9 -9 5 -9 -3 -19 -2 -22 3 -4 6 -1 10 4 10 6 0 11 5
11 11 0 8 -4 8 -14 0 -12 -10 -18 -6 -32 21 -10 18 -17 37 -16 41 1 5 -2 6 -7
3 -5 -4 -12 -2 -16 3 -6 10 62 27 71 18 3 -2 7 -17 10 -33 3 -16 9 -33 14 -38
10 -10 3 46 -11 82 -5 14 -8 27 -5 29 3 3 -4 20 -15 39 -10 19 -19 42 -19 50
0 10 -6 14 -15 10 -8 -3 -15 -1 -15 4 0 6 7 10 15 10 8 0 15 5 15 10 0 15 -26
12 -39 -3z m-225 -23 c49 -20 49 -20 33 -36 -12 -11 -20 -7 -47 20 -39 37 -38
38 14 16z m249 -46 c-1 -13 3 -26 9 -30 5 -4 -5 -6 -23 -6 -18 1 -36 -5 -41
-12 -6 -9 -11 -7 -20 9 -9 17 -9 26 1 37 10 12 9 13 -7 8 -13 -5 -16 -4 -9 4
9 10 72 21 86 15 3 -1 5 -12 4 -25z m-143 10 c9 2 19 -2 23 -8 7 -11 -23 -100
-34 -100 -11 1 -71 60 -71 70 0 18 40 51 53 43 7 -4 19 -6 29 -5z m-128 -488
c3 0 3 8 -1 18 -6 16 -5 15 15 -1 11 -11 25 -16 31 -12 7 3 8 0 5 -9 -6 -16 1
-17 68 -17 29 0 36 -4 31 -16 -4 -10 -13 -12 -27 -8 -11 3 -31 8 -44 10 -13 2
-30 9 -39 17 -9 7 -26 13 -37 13 -15 0 -22 7 -23 25 -3 25 -3 25 7 3 5 -13 12
-23 14 -23z m51 -116 c-11 -12 -13 -19 -5 -24 8 -5 6 -11 -5 -20 -18 -15 -28
-8 -30 19 -1 12 3 17 12 14 7 -3 13 2 13 11 0 9 7 16 16 16 14 0 14 -2 -1 -16z
m-43 -96 c2 -25 28 -36 28 -11 0 8 -4 11 -10 8 -5 -3 -10 -1 -10 4 0 14 17 14
25 1 3 -5 15 -10 26 -10 12 0 17 -4 13 -11 -3 -6 1 -10 12 -9 11 1 21 2 24 1
15 -5 128 -5 125 -1 -2 3 8 5 23 4 44 -2 48 -4 34 -13 -10 -6 -5 -10 17 -14
17 -4 31 -11 31 -17 0 -12 -17 -13 -24 -2 -11 18 -73 12 -91 -8 -11 -12 -25
-18 -36 -15 -9 3 -21 0 -25 -6 -5 -9 -2 -10 9 -6 23 9 22 -9 0 -19 -31 -13
-76 -16 -68 -5 3 7 0 8 -9 5 -8 -3 -23 -1 -33 5 -10 6 -13 11 -6 11 18 0 66
20 61 25 -2 2 -23 -3 -46 -11 -30 -10 -48 -11 -60 -4 -10 5 -12 10 -4 10 6 0
12 4 12 10 0 5 -6 7 -13 4 -10 -4 -14 10 -16 53 -2 55 7 73 11 21z m450 -73
c2 -23 -1 -30 -14 -29 -14 1 -16 -2 -7 -17 5 -11 6 -19 2 -19 -14 1 -43 27
-43 39 0 6 -5 11 -11 11 -5 0 -7 -5 -3 -12 4 -7 3 -8 -4 -4 -20 12 -13 23 21
32 17 6 33 15 33 22 4 35 5 37 14 22 5 -9 10 -29 12 -45z m-174 -133 c10 -7 8
-12 -5 -24 -42 -36 -83 -45 -83 -17 0 8 58 49 70 49 3 0 11 -4 18 -8z m159
-84 c-2 -13 -4 -3 -4 22 0 25 2 35 4 23 2 -13 2 -33 0 -45z m-153 13 c6 -10
-29 -36 -69 -51 -41 -16 -31 16 13 39 43 23 49 24 56 12z m143 -103 c-3 -8 -6
-5 -6 6 -1 11 2 17 5 13 3 -3 4 -12 1 -19z m-588 -55 c2 -2 -2 -3 -10 -3 -8 0
-27 11 -44 25 l-30 25 40 -22 c22 -12 42 -23 44 -25z m613 11 c23 -12 28 -18
17 -24 -11 -7 -10 -12 4 -28 17 -19 24 -88 8 -78 -5 4 -7 -3 -4 -13 3 -13 -4
-25 -24 -38 -15 -10 -33 -24 -39 -32 -24 -31 -74 15 -77 71 -2 17 -6 24 -16
20 -31 -12 0 54 45 96 25 23 48 42 50 42 3 0 19 -7 36 -16z m-555 -284 c54
-26 115 -39 183 -40 47 -1 52 -3 33 -12 -13 -6 -23 -15 -23 -20 0 -4 -11 -6
-25 -2 -18 4 -25 2 -25 -9 0 -14 -57 -27 -121 -27 -33 0 -36 10 -14 44 14 21
13 24 -5 41 -17 15 -24 16 -46 6 -32 -14 -39 -9 -24 18 13 26 16 26 67 1z
m473 -59 c-16 -30 -28 -34 -39 -12 -16 29 -14 31 19 31 27 0 30 -2 20 -19z
m-483 -143 c23 -15 53 -28 67 -28 33 0 34 -18 1 -26 -35 -9 -88 3 -107 24 -9
9 -35 31 -56 47 -34 25 -62 62 -62 81 0 4 80 -45 157 -98z m-12 -89 c45 -20
68 -21 108 -4 33 14 16 -10 -29 -42 l-46 -31 -51 24 c-29 13 -58 24 -64 24
-17 0 -16 10 4 32 20 22 20 22 78 -3z"/>
<path d="M3110 2180 c0 -5 5 -10 11 -10 5 0 7 5 4 10 -3 6 -8 10 -11 10 -2 0
-4 -4 -4 -10z"/>
<path d="M3075 2160 c-3 -5 1 -10 9 -10 9 0 16 5 16 10 0 6 -4 10 -9 10 -6 0
-13 -4 -16 -10z"/>
<path d="M3138 2163 c-14 -2 -29 -11 -32 -20 -5 -13 -4 -14 8 -4 9 7 27 10 43
7 15 -3 44 -2 63 2 35 8 35 8 8 14 -16 3 -28 1 -28 -3 0 -5 -7 -9 -16 -9 -8 0
-12 5 -9 10 3 6 3 9 -2 9 -4 -1 -20 -4 -35 -6z"/>
<path d="M3270 2160 c8 -5 20 -10 25 -10 6 0 3 5 -5 10 -8 5 -19 10 -25 10 -5
0 -3 -5 5 -10z"/>
<path d="M3130 2130 c-9 -6 -10 -10 -3 -10 6 0 15 5 18 10 8 12 4 12 -15 0z"/>
<path d="M3205 2130 c-3 -6 1 -7 9 -4 18 7 21 14 7 14 -6 0 -13 -4 -16 -10z"/>
<path d="M3483 1763 c-13 -2 -23 -9 -23 -14 0 -5 -7 -9 -16 -7 -9 2 -23 -8
-31 -22 l-15 -25 23 25 c18 21 21 21 15 5 -26 -66 -21 -130 10 -142 23 -9 28
3 11 27 -26 37 0 111 43 125 18 6 30 37 13 34 -5 -1 -18 -4 -30 -6z"/>
<path d="M3480 1670 c-6 -11 -8 -20 -6 -20 3 0 10 9 16 20 6 11 8 20 6 20 -3
0 -10 -9 -16 -20z"/>
<path d="M4165 2870 c3 -5 8 -10 11 -10 2 0 4 5 4 10 0 6 -5 10 -11 10 -5 0
-7 -4 -4 -10z"/>
<path d="M4210 2848 c0 -16 5 -28 10 -28 13 0 13 20 0 40 -8 12 -10 9 -10 -12z"/>
<path d="M4073 2845 c0 -6 8 -11 18 -11 10 0 15 4 12 9 -3 5 0 8 6 6 24 -8 12
-22 -31 -37 -24 -7 -47 -18 -52 -22 -8 -8 3 -75 19 -114 6 -13 5 -17 -2 -13
-6 4 -13 1 -16 -5 -5 -14 -10 -5 -23 47 l-8 30 -5 -30 c-6 -31 -31 -47 -31
-20 0 8 -11 22 -25 31 -34 23 -31 34 9 34 19 0 38 5 42 12 4 7 3 8 -4 4 -7 -4
-18 7 -28 26 l-17 33 -15 -33 c-9 -17 -22 -32 -29 -32 -7 0 -13 -9 -13 -20 0
-12 -7 -31 -16 -44 -14 -23 -16 -41 -16 -166 1 -107 18 -163 73 -242 11 -14
19 -34 19 -44 0 -9 24 -41 54 -71 57 -55 69 -56 70 -3 1 29 28 35 32 7 4 -30
14 -33 14 -4 0 23 4 27 28 27 15 0 69 16 121 34 51 19 100 32 107 29 8 -3 17
2 20 11 9 22 31 20 39 -4 10 -31 21 -24 40 28 10 26 23 50 28 54 14 8 12 157
-2 171 -6 6 -11 19 -11 29 0 10 -4 18 -10 18 -5 0 -10 9 -10 19 0 11 -4 23
-10 26 -5 3 -10 14 -10 23 0 9 -9 28 -20 42 -11 14 -20 31 -20 39 0 16 -35 50
-86 85 -23 16 -31 26 -22 29 9 4 8 6 -3 6 -19 1 -33 -25 -19 -34 6 -4 10 -21
10 -38 l-1 -32 -13 25 c-8 14 -12 29 -9 34 4 5 1 6 -6 2 -8 -5 -10 -19 -6 -36
8 -39 -11 -47 -30 -13 l-16 28 6 -31 c4 -21 1 -35 -10 -44 -13 -11 -14 -10 -9
4 3 9 2 16 -4 16 -5 0 -13 11 -16 25 -4 14 -10 24 -14 21 -4 -2 -8 6 -8 17 -3
32 -9 55 -18 64 -12 12 -53 10 -53 -2z m245 -71 c-10 -10 -28 6 -28 24 0 15 1
15 17 -1 9 -9 14 -19 11 -23z m-143 -134 c8 -48 3 -56 -34 -62 -26 -4 -32 1
-51 35 -12 21 -20 39 -19 41 4 2 74 22 91 25 3 0 9 -17 13 -39z m142 -306 c-3
-3 -12 -4 -19 -1 -8 3 -5 6 6 6 11 1 17 -2 13 -5z m-134 -31 c-7 -2 -19 -2
-25 0 -7 3 -2 5 12 5 14 0 19 -2 13 -5z m73 -34 c-49 -17 -99 -28 -110 -27
-13 3 -1 9 34 19 157 45 203 50 76 8z"/>
<path d="M4028 2843 c6 -2 18 -2 25 0 6 3 1 5 -13 5 -14 0 -19 -2 -12 -5z"/>
<path d="M3423 2730 c1 -11 5 -20 9 -20 4 0 8 9 8 20 0 11 -4 20 -9 20 -6 0
-9 -9 -8 -20z"/>
<path d="M1580 2605 c-30 -30 -51 -58 -47 -61 4 -4 9 0 13 9 3 9 21 26 40 38
32 19 61 56 52 65 -2 2 -28 -21 -58 -51z"/>
<path d="M3341 2554 c0 -11 3 -14 6 -6 3 7 2 16 -1 19 -3 4 -6 -2 -5 -13z"/>
<path d="M3290 2268 c0 -8 6 -20 13 -26 17 -14 38 10 26 29 -7 11 -9 10 -9 -6
-1 -20 -1 -20 -15 -1 -12 16 -15 17 -15 4z"/>
<path d="M3195 2230 c-3 -5 -2 -10 4 -10 5 0 13 5 16 10 3 6 2 10 -4 10 -5 0
-13 -4 -16 -10z"/>
<path d="M4432 2181 c-12 -34 -40 -49 -142 -74 -119 -29 -159 -31 -180 -12
-19 17 -21 17 -40 0 -14 -13 -20 -31 -20 -62 0 -27 -9 -59 -22 -83 l-23 -39
25 -46 c26 -48 32 -120 15 -193 -5 -21 -3 -37 5 -47 16 -19 18 -93 4 -103 -6
-4 -14 -28 -17 -54 -8 -61 25 -160 67 -203 17 -17 39 -53 49 -81 13 -37 25
-52 46 -60 24 -10 29 -18 34 -65 4 -30 7 -69 7 -87 0 -36 21 -52 45 -32 12 10
15 10 15 -1 0 -12 2 -12 9 0 12 19 27 7 36 -31 6 -26 9 -29 12 -13 7 28 19 39
28 24 6 -8 4 -10 -5 -4 -9 5 -11 4 -6 -4 4 -6 11 -9 16 -6 5 3 12 0 16 -6 11
-18 91 -50 108 -43 20 8 21 44 1 44 -8 0 -15 -4 -15 -10 0 -5 -9 -10 -19 -10
-24 0 -81 46 -81 65 0 23 20 28 39 11 10 -9 26 -16 37 -16 15 1 14 4 -8 16
-16 8 -28 20 -28 27 0 8 3 9 8 1 4 -6 21 -10 37 -9 17 1 34 -3 38 -9 4 -6 4
21 0 59 -4 39 -8 93 -8 120 0 28 -4 53 -9 56 -10 8 78 39 109 39 12 0 22 -7
23 -17 1 -10 13 -70 26 -133 20 -97 24 -108 26 -70 1 25 4 39 7 33 3 -9 10
-10 22 -4 22 12 38 2 44 -29 3 -21 5 -19 7 10 l2 35 9 -44 c7 -36 5 -48 -8
-63 -9 -11 -18 -26 -19 -34 -2 -16 -32 -43 -47 -44 -4 0 -10 7 -14 16 -5 13
-7 13 -14 2 -13 -20 -11 -24 17 -36 19 -9 24 -9 18 0 -5 8 -2 9 12 4 10 -4 16
-4 12 -1 -3 3 5 17 18 30 13 13 24 32 24 41 0 14 3 14 16 3 13 -11 14 -9 9 14
-4 15 -4 43 -1 62 7 33 9 35 47 35 38 0 39 1 33 28 -9 38 -14 44 -30 38 -8 -3
-24 -1 -36 4 -14 5 -17 9 -8 10 13 0 13 1 0 10 -17 11 -10 13 14 4 9 -3 13
-10 10 -15 -3 -5 0 -9 5 -9 6 0 11 5 11 11 0 5 4 8 9 5 13 -8 6 75 -8 102 -12
23 -2 57 23 75 7 5 5 11 -6 18 -26 14 -24 89 2 119 13 15 17 27 11 39 -5 9
-11 30 -14 46 -8 46 -26 88 -51 115 -13 14 -29 41 -36 60 -7 19 -21 44 -30 55
-9 11 -27 37 -40 58 -12 21 -34 43 -47 48 -18 6 -23 14 -18 28 3 10 -1 24 -10
31 -8 7 -15 19 -15 26 0 8 -4 22 -9 32 -5 9 -14 29 -21 43 -6 14 -25 39 -41
55 -17 16 -41 39 -54 52 l-24 23 4 -68 c5 -107 6 -106 -178 -147 -96 -22 -120
-24 -142 -14 -36 16 -81 122 -64 149 7 11 9 11 9 1 0 -22 29 -45 48 -37 39 16
125 32 144 27 13 -3 19 -1 15 5 -9 14 35 25 59 16 13 -5 15 -3 9 7 -6 10 -4
12 9 7 9 -4 15 -3 12 2 -3 5 3 11 13 14 22 5 51 60 41 77 -5 8 -11 1 -18 -19z
m88 -101 c0 -16 -5 -30 -12 -30 -6 0 -8 3 -5 7 4 3 2 13 -5 20 -9 11 -9 17 3
24 19 12 19 13 19 -21z m-13 -127 c1 -22 -1 -24 -8 -10 -6 9 -7 22 -4 27 9 14
10 13 12 -17z m172 -262 c11 -7 6 -13 -20 -27 -41 -21 -70 -25 -86 -12 -21 17
-15 28 15 29 15 0 36 4 47 9 26 11 28 11 44 1z m-424 -121 c0 -17 -47 -30 -92
-24 -21 2 -32 0 -28 -6 3 -5 1 -10 -4 -10 -14 0 -13 11 2 32 8 10 31 18 58 20
57 5 64 4 64 -12z m295 -30 c0 -12 -111 -46 -182 -54 -92 -12 -68 9 34 28 50
10 101 22 112 26 28 12 36 12 36 0z m50 -25 c7 -8 8 -15 2 -15 -5 0 -15 7 -22
15 -7 8 -8 15 -2 15 5 0 15 -7 22 -15z m-282 -78 c-7 -14 -13 -17 -16 -9 -6
19 6 44 18 37 7 -4 6 -14 -2 -28z m436 -138 c-9 -15 -34 -10 -28 5 3 8 12 12
20 9 8 -3 11 -9 8 -14z m-456 -137 c5 -17 -45 -15 -51 2 -4 11 1 14 20 13 15
-1 28 -8 31 -15z m545 11 c-7 -2 -19 -2 -25 0 -7 3 -2 5 12 5 14 0 19 -2 13
-5z m-543 -58 c0 -21 -5 -25 -30 -25 -23 0 -30 5 -30 19 0 18 6 21 53 30 4 0
7 -10 7 -24z"/>
<path d="M2620 1119 c0 -11 48 -31 66 -27 8 2 -4 11 -26 20 -22 9 -40 12 -40
7z"/>
<path d="M2825 931 c-20 -4 -26 -9 -18 -14 11 -7 53 7 53 18 0 3 -1 4 -2 4 -2
-1 -16 -4 -33 -8z"/>
<path d="M2906 875 c-11 -8 -15 -15 -10 -15 6 0 19 7 30 15 10 8 15 14 9 14
-5 0 -19 -6 -29 -14z"/>
<path d="M4677 849 c7 -7 15 -10 18 -7 3 3 -2 9 -12 12 -14 6 -15 5 -6 -5z"/>
<path d="M4361 813 c-1 -29 -5 -33 -28 -34 -45 -2 -53 -4 -53 -11 -1 -42 0
-44 11 -25 11 19 45 23 51 6 2 -6 10 2 18 18 8 15 19 31 25 35 6 5 6 8 -2 8
-6 0 -14 8 -16 18 -3 9 -5 2 -6 -15z"/>
<path d="M4810 800 c0 -11 2 -20 4 -20 2 0 6 9 9 20 3 11 1 20 -4 20 -5 0 -9
-9 -9 -20z"/>
<path d="M4840 789 c0 -4 14 -9 30 -11 17 -3 30 -1 30 3 0 4 -13 9 -30 11 -16
3 -30 1 -30 -3z"/>
<path d="M4350 696 c0 -19 3 -37 8 -40 4 -2 6 13 4 35 -5 48 -12 51 -12 5z"/>
<path d="M4685 630 c-21 -24 -55 -26 -95 -5 -19 10 -36 12 -51 6 -22 -7 -20
-9 22 -34 25 -15 58 -27 72 -27 34 0 97 54 81 70 -7 7 -16 5 -29 -10z"/>
<path d="M4844 558 c-12 -14 -13 -18 -3 -10 9 6 18 10 21 7 2 -3 5 2 5 10 0
19 0 19 -23 -7z"/>
<path d="M4360 549 c0 -4 7 -9 15 -13 9 -3 15 0 15 8 0 7 -7 13 -15 13 -8 0
-15 -4 -15 -8z"/>
<path d="M4320 539 c0 -8 7 -24 15 -35 19 -25 19 -14 0 22 -8 16 -15 22 -15
13z"/>
<path d="M4410 520 c5 -10 16 -22 23 -26 9 -6 9 -5 0 8 -7 8 -10 17 -7 20 2 3
-2 8 -11 12 -13 4 -14 2 -5 -14z"/>
<path d="M4820 500 c-9 -6 -10 -10 -3 -10 6 0 15 5 18 10 8 12 4 12 -15 0z"/>
<path d="M4892 489 c-33 -62 -43 -74 -64 -81 -22 -6 -22 -6 -2 -7 11 -1 29 8
39 19 10 11 14 20 9 20 -5 0 2 9 15 19 13 10 22 25 20 36 -4 17 -6 16 -17 -6z"/>
<path d="M4530 491 c0 -6 4 -13 10 -16 6 -3 7 1 4 9 -7 18 -14 21 -14 7z"/>
<path d="M4354 476 c-3 -8 -12 -12 -21 -9 -26 10 2 -31 47 -70 38 -32 87 -47
163 -47 35 0 16 18 -25 25 -84 12 -95 16 -131 46 -22 18 -34 35 -31 44 4 8 10
12 15 9 5 -3 7 -9 5 -13 -3 -4 1 -8 9 -8 13 0 12 4 -2 19 -19 22 -22 22 -29 4z"/>
<path d="M4400 433 c8 -3 19 -12 23 -19 4 -8 16 -14 25 -14 15 0 15 2 2 10 -8
5 -10 10 -5 11 15 1 -27 18 -45 18 -13 -1 -13 -1 0 -6z"/>
<path d="M4881 413 c-7 -14 -29 -22 -86 -31 -42 -7 -81 -10 -86 -6 -5 3 -9 -2
-9 -10 0 -24 16 -27 84 -15 49 9 72 19 93 41 14 15 24 30 21 34 -4 3 -11 -3
-17 -13z"/>
<path d="M4503 393 c9 -2 23 -2 30 0 6 3 -1 5 -18 5 -16 0 -22 -2 -12 -5z"/>
<path d="M1309 30 l-27 -30 59 0 60 0 -16 30 c-19 38 -43 38 -76 0z"/>
</g>
</svg>
