<?xml version="1.0" standalone="no"?>
<!DOCTYPE svg PUBLIC "-//W3C//DTD SVG 20010904//EN"
 "http://www.w3.org/TR/2001/REC-SVG-20010904/DTD/svg10.dtd">
<svg version="1.0" xmlns="http://www.w3.org/2000/svg"
 width="890.000000pt" height="618.000000pt" viewBox="0 0 890.000000 618.000000"
 preserveAspectRatio="xMidYMid meet">

<g transform="translate(0.000000,618.000000) scale(0.100000,-0.100000)"
fill="#000000" stroke="none">
<path d="M7300 6155 c-101 -28 -218 -92 -279 -155 -133 -135 -194 -334 -207
-675 -10 -243 13 -361 162 -840 36 -115 88 -286 115 -380 27 -93 52 -178 55
-189 5 -16 2 -18 -27 -13 -64 12 -308 27 -1074 67 -423 22 -801 45 -840 50
-191 26 -303 86 -1154 618 -233 145 -457 280 -499 299 -163 76 -362 103 -497
68 -163 -42 -250 -121 -374 -341 -47 -82 -114 -195 -149 -252 l-65 -103 -26
23 c-14 13 -73 68 -132 123 -265 249 -504 320 -779 230 -289 -93 -393 -208
-700 -776 -164 -301 -311 -564 -559 -998 -258 -453 -276 -500 -269 -735 4
-162 15 -194 113 -341 69 -104 161 -190 307 -289 111 -75 117 -81 123 -120 27
-171 90 -321 183 -438 66 -82 113 -127 329 -316 145 -128 156 -141 275 -310
182 -261 249 -320 402 -352 97 -20 206 3 324 68 71 39 212 186 246 256 33 69
48 146 217 1101 114 645 240 1310 251 1321 3 3 57 -36 119 -86 312 -249 729
-489 900 -518 l41 -7 32 -97 c18 -53 48 -122 67 -154 52 -88 153 -184 240
-227 144 -71 282 -91 899 -133 450 -30 457 -30 600 38 145 69 249 193 317 377
30 82 47 88 71 26 77 -197 286 -359 553 -429 116 -31 212 -43 394 -51 77 -3
253 -12 390 -20 589 -33 726 -30 883 20 184 58 292 158 427 395 149 261 180
345 191 519 9 130 -5 263 -86 831 -123 862 -187 1384 -235 1902 -10 112 -22
180 -40 235 -86 258 -302 444 -536 460 l-77 6 -37 48 c-80 105 -213 206 -325
247 -82 30 -187 37 -260 17z m97 -282 c3 -7 -12 -16 -35 -23 -54 -14 -131 -67
-160 -110 -13 -19 -31 -61 -40 -92 -12 -40 -22 -58 -33 -58 -15 0 -16 6 -7 42
24 111 81 181 182 229 63 30 86 33 93 12z m23 -117 c0 -7 -12 -16 -27 -18 -16
-3 -36 -9 -47 -13 -14 -6 -18 -5 -14 6 2 8 20 19 39 26 45 16 49 16 49 -1z
m90 -52 c0 -11 -9 -8 -35 12 -19 14 -32 30 -29 35 8 13 64 -29 64 -47z m-190
11 c0 -11 -44 -65 -52 -65 -14 0 -9 16 13 44 18 23 39 34 39 21z m402 -56 c23
-22 59 -49 80 -60 25 -13 36 -24 32 -34 -4 -8 -8 -15 -11 -15 -30 0 -178 124
-167 141 10 16 24 9 66 -32z m-163 0 c13 -17 21 -33 17 -36 -8 -9 -56 37 -56
54 0 20 13 15 39 -18z m-134 -20 c4 -6 -2 -17 -13 -25 -11 -7 -23 -25 -26 -39
-4 -14 -13 -25 -21 -25 -24 0 -18 48 10 75 26 27 40 31 50 14z m-159 -25 c-3
-9 -6 -27 -6 -40 0 -14 -6 -24 -15 -24 -8 0 -13 6 -11 13 3 6 7 24 10 40 4 15
11 27 17 27 6 0 8 -7 5 -16z m381 -70 c-10 -10 -68 47 -60 59 3 5 19 -5 36
-22 17 -17 28 -34 24 -37z m42 -153 c42 -22 58 -36 54 -46 -7 -21 -8 -20 -87
27 -87 51 -196 156 -176 168 10 6 34 -11 81 -54 37 -34 95 -77 128 -95z m25
114 c11 -8 17 -18 13 -21 -9 -9 -67 28 -67 44 0 14 16 7 54 -23z m444 5 c66
-47 110 -138 127 -257 5 -43 4 -53 -7 -53 -10 0 -20 25 -31 78 -20 90 -56 155
-116 202 -70 57 -47 84 27 30z m-908 -18 c0 -38 -7 -55 -19 -47 -10 5 0 85 10
85 5 0 9 -17 9 -38z m544 -27 c20 -9 34 -20 31 -25 -4 -6 -20 -4 -42 5 -19 8
-37 15 -40 15 -2 0 -1 5 2 10 8 13 6 13 49 -5z m129 -31 c13 -14 -3 -20 -42
-16 -23 2 -41 8 -41 13 0 10 73 12 83 3z m107 -3 c0 -5 -18 -11 -41 -13 -39
-4 -55 2 -42 16 10 9 83 7 83 -3z m-790 -46 c0 -25 -4 -45 -10 -45 -5 0 -10
20 -10 45 0 25 5 45 10 45 6 0 10 -20 10 -45z m863 7 c10 -11 15 -22 10 -25
-10 -6 -63 38 -63 53 0 14 29 -1 53 -28z m41 -64 c8 -32 7 -58 -2 -58 -4 0
-13 18 -19 40 -8 31 -7 40 2 40 7 0 15 -10 19 -22z m-97 -87 c5 -50 3 -61 -9
-61 -11 0 -18 15 -23 48 -4 26 -12 53 -17 60 -7 8 -7 17 2 28 22 25 41 -5 47
-75z m-811 57 c-3 -13 -6 -31 -6 -40 0 -10 -4 -18 -10 -18 -5 0 -10 18 -10 40
0 30 4 40 16 40 12 0 15 -6 10 -22z m-112 -105 c3 -65 9 -133 12 -150 5 -25 3
-33 -9 -33 -20 0 -37 98 -37 213 0 67 3 87 14 87 10 0 15 -29 20 -117z m238 5
c3 -57 9 -111 13 -120 5 -14 2 -18 -13 -18 -24 0 -32 38 -32 158 0 63 3 82 14
82 10 0 15 -25 18 -102z m803 16 c6 -34 1 -54 -10 -42 -3 3 -9 22 -12 42 -7
48 13 48 22 0z m-932 -31 c7 -41 1 -55 -13 -33 -12 19 -13 70 -1 70 4 0 11
-17 14 -37z m940 -70 c5 -42 1 -56 -14 -48 -12 8 -12 85 0 85 5 0 11 -17 14
-37z m-925 -33 c5 -22 6 -42 2 -45 -12 -7 -17 3 -25 48 -10 51 10 48 23 -3z
m934 -77 c6 -42 4 -48 -11 -38 -13 8 -15 75 -2 75 5 0 11 -17 13 -37z m-907
-40 c3 -18 3 -33 -3 -33 -11 0 -33 70 -25 83 7 12 19 -8 28 -50z m917 -60 c6
-42 4 -48 -11 -38 -13 8 -15 75 -2 75 5 0 11 -17 13 -37z m136 -87 c15 -142
15 -143 -2 -149 -11 -4 -16 19 -25 106 -7 62 -14 122 -17 135 -3 16 0 22 14
22 16 0 20 -14 30 -114z m-1027 21 c-11 -11 -35 58 -25 75 5 7 12 -3 21 -27 8
-23 10 -42 4 -48z m788 -39 c6 -62 14 -123 17 -135 3 -17 0 -23 -14 -23 -16 0
-20 14 -30 114 -15 143 -15 156 2 156 10 0 16 -30 25 -112z m114 5 c7 -41 -3
-67 -14 -37 -11 27 -11 74 0 74 4 0 11 -16 14 -37z m-875 -20 c7 -22 8 -41 3
-46 -8 -8 -31 49 -31 76 0 21 18 2 28 -30z m191 -227 c-15 -17 -25 4 -64 128
-29 95 -34 121 -23 127 10 7 23 -21 54 -119 24 -74 38 -131 33 -136z m-258 59
c24 -76 35 -123 29 -129 -16 -16 -24 1 -60 119 -18 61 -35 116 -38 124 -3 8 1
12 13 10 13 -3 28 -36 56 -124z m954 84 c6 -37 2 -59 -10 -48 -10 11 -17 89
-7 89 6 0 13 -18 17 -41z m-4683 -66 c61 -38 85 -58 81 -68 -5 -16 -25 -7
-103 45 -14 9 -50 30 -80 46 -30 15 -57 29 -59 31 -2 1 -1 9 3 18 7 19 23 12
158 -72z m3822 67 c3 -11 9 -29 12 -40 9 -33 -13 -23 -25 11 -13 39 -14 49 -2
49 5 0 12 -9 15 -20z m-4134 -58 c0 -11 -70 -31 -75 -21 -3 4 3 12 12 18 21
12 63 14 63 3z m67 -14 c30 -11 45 -28 24 -28 -19 0 -71 23 -71 31 0 12 7 11
47 -3z m4937 -14 c9 -25 7 -64 -4 -64 -5 0 -10 8 -10 18 0 9 -3 27 -6 40 -7
25 11 31 20 6z m-5224 -5 c0 -11 -99 -190 -124 -224 -13 -17 -15 -18 -21 -4
-7 19 114 239 133 239 6 0 12 -5 12 -11z m4389 -20 c13 -39 14 -49 2 -49 -8 0
-31 52 -31 71 0 21 19 6 29 -22z m-4259 9 c0 -18 -49 -76 -50 -60 0 18 32 72
42 72 4 0 8 -6 8 -12z m280 -45 c0 -11 -10 -9 -40 8 -21 12 -37 26 -34 30 7
12 74 -23 74 -38z m75 -36 c11 -9 17 -18 13 -22 -10 -10 -79 35 -72 46 5 9 23
2 59 -24z m4753 -30 c2 -21 -1 -37 -7 -37 -6 0 -11 11 -11 24 0 13 -3 32 -7
42 -4 12 -2 15 8 12 8 -2 15 -21 17 -41z m-5158 26 c0 -5 -10 -24 -22 -43 -25
-41 -36 -25 -13 19 14 28 35 42 35 24z m407 -147 c-3 -6 -8 -10 -13 -9 -21 4
-209 124 -208 133 1 6 2 14 3 20 0 5 51 -23 111 -62 61 -39 109 -76 107 -82z
m3932 123 c13 -39 14 -49 2 -49 -9 0 -12 8 -27 63 -9 31 14 18 25 -14z m-4211
-8 c-33 -69 -126 -220 -136 -218 -20 3 -16 13 49 129 44 79 63 106 75 101 8
-3 14 -8 12 -12z m357 -16 c17 -13 24 -24 17 -25 -18 0 -72 32 -72 42 0 15 25
8 55 -17z m81 -49 c20 -13 31 -26 27 -29 -12 -7 -73 29 -73 43 0 15 7 13 46
-14z m-616 8 c0 -16 -43 -74 -50 -69 -10 6 28 75 41 75 5 0 9 -3 9 -6z m934
-60 c58 -37 106 -73 106 -81 0 -20 -14 -14 -131 59 -55 34 -99 67 -99 75 0 22
14 16 124 -53z m4288 25 c4 -39 -2 -55 -16 -42 -9 10 -7 83 3 83 5 0 11 -18
13 -41z m-6638 -1 c-3 -4 -11 -8 -18 -8 -36 0 -139 -66 -189 -120 -43 -45 -58
-56 -66 -47 -13 16 61 104 116 138 62 38 147 69 155 56 4 -6 4 -15 2 -19z
m5830 12 c3 -11 9 -29 12 -40 9 -33 -13 -23 -25 11 -13 39 -14 49 -2 49 5 0
12 -9 15 -20z m946 -122 c18 -151 18 -143 0 -143 -11 0 -18 24 -27 100 -6 55
-14 115 -17 133 -4 26 -1 32 13 32 15 0 19 -18 31 -122z m-4659 85 c26 -15 38
-33 24 -33 -14 0 -65 32 -65 40 0 14 8 13 41 -7z m4409 -6 c0 -7 7 -65 15
-127 10 -75 12 -117 5 -124 -5 -5 -12 -7 -15 -5 -5 6 -35 212 -35 246 0 14 6
23 15 23 8 0 15 -6 15 -13z m-6094 -39 c87 -74 153 -141 148 -150 -11 -17 -27
-6 -102 65 -42 40 -88 80 -101 89 -21 15 -22 38 -2 38 5 0 30 -19 57 -42z
m934 18 c0 -16 -44 -75 -52 -70 -5 3 -4 15 5 27 7 12 17 28 21 35 7 11 26 17
26 8z m-1206 -12 c29 -11 16 -24 -24 -24 -43 0 -55 16 -17 23 12 2 23 5 24 6
1 0 8 -2 17 -5z m2061 -27 c11 -9 17 -18 14 -22 -9 -9 -80 35 -73 46 5 9 24 2
59 -24z m4428 -9 c6 -47 1 -61 -13 -38 -12 19 -13 80 -1 80 4 0 11 -19 14 -42z
m-6373 -10 c0 -12 -18 -10 -51 7 -42 22 -26 38 16 18 19 -9 35 -20 35 -25z
m5586 7 c6 -32 1 -55 -10 -44 -11 11 -17 79 -8 79 6 0 14 -16 18 -35z m-5786
16 c0 -8 -52 -31 -71 -31 -20 0 -7 19 19 28 35 13 52 14 52 3z m5937 -121 c26
-127 28 -170 9 -170 -10 0 -18 22 -26 73 -6 39 -18 100 -26 135 -17 78 -18 74
4 70 13 -2 22 -27 39 -108z m-6032 91 c5 -9 -47 -41 -67 -41 -25 0 17 35 59
49 1 1 4 -3 8 -8z m2314 -18 c30 -18 40 -33 22 -33 -14 0 -71 34 -71 43 0 12
16 8 49 -10z m-1961 -13 c13 -11 22 -24 20 -30 -2 -6 -19 3 -38 19 -21 18 -29
30 -20 30 8 0 26 -8 38 -19z m972 -2 c-1 -18 -37 -64 -45 -57 -7 7 27 69 38
69 4 0 7 -6 7 -12z m4482 -137 c12 -61 19 -114 15 -117 -14 -14 -37 7 -37 33
-1 15 -9 68 -20 118 -13 66 -15 92 -7 97 17 11 24 -8 49 -131z m-3565 62 c59
-37 110 -68 112 -70 3 -2 0 -8 -6 -14 -10 -10 -109 44 -226 122 -8 6 -2 29 8
29 2 0 52 -30 112 -67z m-2327 49 c0 -14 -56 -63 -63 -55 -4 3 5 19 20 35 27
28 43 35 43 20z m2514 -44 c-3 -5 -15 -4 -27 5 -12 7 -28 17 -35 21 -7 4 -10
11 -7 16 3 5 21 0 40 -11 19 -12 32 -25 29 -31z m3475 15 c11 -38 7 -54 -8
-37 -13 14 -22 74 -11 74 5 0 14 -17 19 -37z m777 2 c6 -32 1 -55 -10 -44 -11
11 -17 79 -8 79 6 0 14 -16 18 -35z m-6253 -13 c15 -16 24 -32 20 -35 -7 -8
-63 41 -63 55 0 15 16 8 43 -20z m-333 4 c0 -8 -19 -21 -42 -31 -23 -9 -56
-32 -74 -52 -28 -31 -54 -38 -54 -14 0 16 67 75 105 92 48 22 65 24 65 5z
m264 -94 c47 -48 74 -82 67 -86 -6 -4 -53 30 -105 76 -68 60 -91 86 -84 95 14
18 32 6 122 -85z m897 39 c-20 -27 -41 -41 -41 -26 0 16 46 73 54 65 5 -5 -1
-22 -13 -39z m-128 31 c3 -4 -19 -47 -48 -96 -30 -49 -59 -102 -66 -118 -11
-28 -39 -39 -39 -16 0 13 70 143 108 201 24 36 36 44 45 29z m1357 -7 c26 -14
41 -35 24 -35 -12 0 -64 34 -64 42 0 11 7 10 40 -7z m337 -60 c108 -66 122
-78 104 -89 -8 -5 -196 99 -225 125 -7 6 -1 29 9 29 2 0 53 -29 112 -65z
m-2977 49 c0 -12 -34 -64 -42 -64 -13 0 -9 19 8 45 15 23 34 33 34 19z m679
-61 c1 -7 -1 -13 -4 -13 -12 0 -55 45 -55 58 0 17 59 -27 59 -45z m5397 20 c3
-16 7 -34 10 -40 2 -7 -3 -13 -11 -13 -9 0 -15 10 -15 24 0 13 -3 31 -6 40 -3
9 -1 16 5 16 6 0 13 -12 17 -27z m772 -16 c2 -21 -1 -37 -7 -37 -6 0 -11 11
-11 24 0 13 -3 32 -7 42 -4 12 -2 15 8 12 8 -2 15 -21 17 -41z m-4093 -8 c4
-5 5 -13 2 -16 -8 -7 -67 36 -67 48 0 11 56 -16 65 -32z m-1385 2 c0 -14 -34
-71 -42 -71 -13 0 -9 16 10 49 17 30 32 40 32 22z m-1435 -51 c-15 -30 -33
-46 -41 -37 -3 2 5 21 17 41 24 42 46 39 24 -4z m822 -26 c-10 -10 -68 47 -60
59 3 5 19 -5 36 -22 17 -17 28 -34 24 -37z m2064 39 c27 -16 38 -33 22 -33
-11 0 -73 39 -73 45 0 10 22 5 51 -12z m-1331 -8 c0 -3 -27 -51 -60 -107 -32
-55 -61 -106 -63 -112 -3 -8 -8 -8 -17 0 -9 9 -7 21 11 55 41 82 101 169 115
169 8 0 14 -2 14 -5z m4603 -42 c7 -40 -1 -63 -14 -42 -11 18 -12 79 0 79 4 0
11 -16 14 -37z m769 -4 c4 -39 -2 -55 -16 -42 -9 10 -7 83 3 83 5 0 11 -18 13
-41z m-3927 -18 c3 -5 2 -12 -2 -14 -11 -6 -75 38 -67 46 7 7 60 -18 69 -32z
m-1846 -92 c25 -20 31 -30 24 -42 -7 -14 -23 -4 -96 59 -71 62 -85 79 -76 90
10 12 21 6 63 -34 28 -26 66 -59 85 -73z m231 114 c0 -5 -10 -24 -22 -43 -25
-41 -36 -25 -13 19 14 28 35 42 35 24z m-510 -28 c35 -37 14 -44 -23 -7 -22
22 -27 32 -16 32 9 0 26 -11 39 -25z m-1047 -3 c-1 -6 -30 -61 -64 -122 -45
-82 -64 -109 -73 -100 -10 10 29 95 97 208 17 30 45 40 40 14z m120 -25 c-29
-48 -48 -47 -23 2 11 23 25 39 31 36 6 -4 3 -18 -8 -38z m3077 -113 c9 -9 11
-17 5 -23 -6 -6 -49 14 -115 54 -58 36 -109 66 -114 68 -5 2 -7 11 -3 20 5 14
22 8 109 -45 57 -33 110 -67 118 -74z m64 85 c-5 -9 -35 3 -61 23 -27 21 -1
26 32 7 19 -12 32 -25 29 -30z m3855 -51 c2 -32 -18 -19 -25 16 -8 45 8 74 17
31 4 -16 7 -38 8 -47z m-5994 32 c17 -18 23 -30 15 -30 -15 0 -60 39 -60 52 0
16 17 8 45 -22z m5215 -10 c0 -22 -4 -40 -10 -40 -5 0 -10 18 -10 40 0 22 5
40 10 40 6 0 10 -18 10 -40z m-4830 25 c0 -12 -35 -75 -42 -75 -11 0 -10 4 9
45 14 29 33 47 33 30z m1819 -22 c30 -18 40 -33 22 -33 -14 0 -71 34 -71 43 0
12 16 8 49 -10z m-3256 -38 c-9 -19 -23 -35 -30 -35 -10 0 -8 10 7 40 25 49
46 44 23 -5z m3565 11 c37 -18 84 -39 105 -45 37 -12 52 -41 21 -41 -20 0
-214 90 -214 100 0 7 11 20 17 20 2 0 34 -15 71 -34z m3603 17 c0 -5 8 -63 18
-131 9 -67 15 -125 12 -127 -19 -19 -29 4 -40 94 -6 54 -14 115 -18 135 -4 29
-2 36 11 36 9 0 16 -3 17 -7z m-7067 -102 c-73 -135 -84 -150 -99 -145 -11 5
-8 16 14 57 16 29 45 82 65 119 26 48 41 66 51 61 12 -4 6 -22 -31 -92z m1026
54 c32 -34 18 -43 -19 -12 -16 13 -27 28 -24 31 11 10 19 7 43 -19z m2215 8
c34 -16 46 -33 24 -33 -15 0 -69 33 -69 42 0 11 5 10 45 -9z m3602 -78 c6 -50
14 -109 18 -132 5 -34 3 -43 -9 -43 -16 0 -20 15 -36 135 -6 44 -12 93 -15
108 -4 23 -1 28 13 25 13 -3 19 -21 29 -93z m-5796 -92 c40 -26 47 -37 29 -48
-24 -15 -250 180 -236 203 5 9 33 -10 87 -58 44 -39 98 -82 120 -97z m224 112
c-10 -19 -22 -35 -27 -35 -13 0 -10 12 13 49 26 43 39 31 14 -14z m4892 9 c-3
-20 -9 -39 -12 -42 -11 -12 -16 8 -10 42 9 48 29 48 22 0z m791 -7 c2 -21 -1
-37 -7 -37 -6 0 -11 11 -11 24 0 13 -3 32 -7 42 -4 12 -2 15 8 12 8 -2 15 -21
17 -41z m-3623 6 c33 -16 46 -33 26 -33 -14 0 -71 34 -71 43 0 10 5 9 45 -10z
m-3482 -28 c-9 -19 -23 -35 -30 -35 -10 0 -9 8 4 35 9 19 23 35 30 35 10 0 9
-8 -4 -35z m1261 1 c15 -13 24 -26 19 -29 -5 -4 -25 7 -44 23 -41 35 -18 41
25 6z m4934 -9 c4 -19 -74 -107 -94 -107 -23 0 -16 27 12 45 14 9 32 32 40 51
15 36 36 41 42 11z m-2618 -12 c25 -13 41 -35 25 -35 -12 0 -75 35 -75 42 0
12 18 10 50 -7z m603 -1 c58 -4 77 -9 77 -20 0 -13 -19 -14 -127 -8 -71 3
-132 10 -137 14 -19 18 7 30 57 25 29 -2 87 -7 130 -11z m-2803 -15 c0 -12
-46 -23 -65 -15 -28 10 -15 21 25 22 22 1 40 -2 40 -7z m3378 -15 c27 -3 42
-10 42 -20 0 -11 -20 -13 -122 -8 -140 6 -148 8 -148 27 0 12 18 14 93 10 50
-2 111 -6 135 -9z m1542 7 c0 -19 -23 -71 -31 -71 -12 0 -11 7 3 47 11 30 28
45 28 24z m820 -15 c0 -13 3 -31 6 -40 4 -11 1 -16 -10 -16 -12 0 -16 10 -16
40 0 22 5 40 10 40 6 0 10 -11 10 -24z m-3446 -1 c20 -9 34 -20 31 -25 -7 -11
-68 13 -73 29 -5 14 -1 14 42 -4z m2752 -11 c-14 -53 -50 -117 -97 -168 -47
-51 -140 -112 -153 -99 -13 14 -5 31 19 37 39 10 146 116 171 171 13 28 24 58
24 68 0 11 8 17 21 17 18 0 20 -4 15 -26z m-6458 9 c-25 -51 -33 -63 -46 -63
-12 0 -12 3 0 23 8 12 18 28 22 35 8 13 30 17 24 5z m5360 -19 c6 -2 12 -10
12 -17 0 -12 -18 -14 -92 -10 -138 6 -178 12 -178 28 0 12 22 13 123 9 67 -3
128 -7 135 -10z m-1815 -30 c39 -20 98 -46 129 -58 43 -16 55 -25 48 -35 -7
-12 -16 -11 -57 4 -99 37 -213 96 -213 110 0 22 13 19 93 -21z m286 1 c0 -11
-17 -9 -56 6 -13 5 -22 13 -18 18 7 12 74 -10 74 -24z m2039 5 c22 0 32 -5 32
-15 0 -12 -15 -15 -74 -15 -40 0 -100 3 -134 6 -48 5 -59 10 -55 22 5 12 22
14 102 8 53 -3 111 -6 129 -6z m-1954 -15 c18 -4 25 -10 20 -15 -12 -12 -87 7
-79 20 3 5 11 7 18 5 7 -2 25 -6 41 -10z m125 -21 c11 -11 -12 -15 -48 -9 -24
4 -38 11 -35 17 6 9 72 3 83 -8z m2241 8 c0 -5 -13 -21 -30 -37 -35 -33 -42
-14 -8 22 22 23 38 30 38 15z m-2140 -15 c0 -9 -12 -11 -40 -9 -22 2 -40 8
-40 13 0 5 18 9 40 9 26 0 40 -5 40 -13z m3025 -28 c6 -36 2 -60 -9 -48 -10
11 -17 89 -8 89 6 0 13 -18 17 -41z m-7215 27 c0 -16 -44 -75 -52 -70 -5 3 -4
15 5 27 7 12 17 28 21 35 7 11 26 17 26 8z m4300 -6 c0 -5 -20 -10 -45 -10
-25 0 -45 5 -45 10 0 6 20 10 45 10 25 0 45 -4 45 -10z m98 -5 c12 -12 -9 -17
-47 -10 -24 4 -38 11 -35 17 6 10 71 5 82 -7z m102 -5 c0 -5 -18 -10 -40 -10
-22 0 -40 5 -40 10 0 6 18 10 40 10 22 0 40 -4 40 -10z m98 0 c11 0 13 -3 5
-11 -14 -14 -75 -7 -81 10 -4 11 3 13 28 8 18 -4 40 -7 48 -7z m112 -10 c0 -5
-18 -10 -40 -10 -22 0 -40 5 -40 10 0 6 18 10 40 10 22 0 40 -4 40 -10z m76 0
c13 0 24 -4 24 -10 0 -5 -18 -10 -40 -10 -30 0 -40 4 -40 16 0 11 5 14 16 10
9 -3 27 -6 40 -6z m129 -10 c4 -6 -12 -10 -39 -10 -25 0 -46 5 -46 10 0 6 18
10 39 10 22 0 43 -4 46 -10z m105 -11 c0 -12 -77 -12 -84 0 -3 4 -4 10 -1 12
8 8 85 -3 85 -12z m-3462 -9 c38 -17 101 -62 185 -133 18 -15 26 -29 21 -40
-5 -13 -18 -7 -73 38 -72 58 -172 115 -202 115 -12 0 -19 7 -19 20 0 26 31 26
88 0z m3562 7 c0 -9 -12 -11 -40 -9 -22 2 -40 8 -40 13 0 5 18 9 40 9 26 0 40
-5 40 -13z m110 -7 c0 -5 -20 -10 -45 -10 -25 0 -45 5 -45 10 0 6 20 10 45 10
25 0 45 -4 45 -10z m95 -1 c4 -6 5 -12 3 -14 -7 -8 -87 8 -82 16 7 13 72 11
79 -2z m935 5 c0 -10 -71 -35 -82 -28 -7 5 2 13 23 20 38 14 59 17 59 8z
m-830 -14 c0 -5 -18 -10 -40 -10 -22 0 -40 5 -40 10 0 6 18 10 40 10 22 0 40
-4 40 -10z m105 1 c3 -5 1 -12 -3 -15 -13 -8 -82 5 -82 15 0 12 77 11 85 0z
m105 -11 c0 -5 -18 -10 -39 -10 -22 0 -43 5 -46 10 -4 6 12 10 39 10 25 0 46
-4 46 -10z m98 -5 c12 -12 -9 -17 -43 -11 -47 9 -47 31 1 23 20 -3 39 -9 42
-12z m112 -5 c0 -5 -20 -10 -45 -10 -25 0 -45 5 -45 10 0 6 20 10 45 10 25 0
45 -4 45 -10z m100 0 c0 -5 -21 -10 -46 -10 -27 0 -43 4 -39 10 3 6 24 10 46
10 21 0 39 -4 39 -10z m100 0 c0 -5 -8 -10 -17 -11 -10 0 -28 -2 -40 -3 -14
-2 -23 3 -23 11 0 9 13 13 40 13 22 0 40 -4 40 -10z m105 0 c-3 -5 -24 -10
-46 -10 -21 0 -39 5 -39 10 0 6 21 10 46 10 27 0 43 -4 39 -10z m-6205 -6 c0
-15 -44 -77 -48 -66 -4 14 26 72 38 72 6 0 10 -3 10 -6z m7282 -41 c1 -18 -2
-34 -7 -35 -10 -3 -26 68 -17 77 10 10 20 -9 24 -42z m-7428 28 c9 -13 -115
-231 -131 -231 -21 0 -16 12 48 129 59 107 71 121 83 102z m4484 -7 c28 -4 42
-10 42 -20 0 -13 -13 -14 -82 -9 -163 12 -188 16 -188 31 0 12 15 14 93 9 50
-3 111 -8 135 -11z m570 -30 c6 -2 12 -10 12 -17 0 -12 -18 -14 -92 -10 -138
6 -178 12 -178 28 0 12 22 13 123 9 67 -3 128 -7 135 -10z m-3359 -23 c18 -12
3 -18 -39 -15 -48 3 -47 3 -30 14 19 12 51 13 69 1z m3859 -1 c39 0 52 -4 52
-15 0 -12 -15 -15 -72 -15 -40 0 -103 3 -140 6 -53 6 -65 10 -61 22 5 12 20
14 87 8 45 -3 105 -6 134 -6z m-5458 -16 c0 -15 -44 -77 -48 -66 -4 14 26 72
38 72 6 0 10 -3 10 -6z m1494 -49 c-18 -34 -34 -46 -34 -24 0 16 41 71 48 65
3 -3 -3 -22 -14 -41z m174 26 c35 -30 26 -44 -13 -19 -19 13 -35 26 -35 31 0
13 24 7 48 -12z m4379 2 c3 -8 3 -16 0 -19 -3 -3 -66 -2 -141 2 -108 5 -136
10 -136 21 0 21 269 17 277 -4z m1298 -29 c6 -34 1 -54 -10 -42 -3 3 -9 22
-12 42 -7 48 13 48 22 0z m-7225 9 c0 -4 -119 -222 -126 -232 -2 -2 -10 -1
-18 2 -12 5 -1 31 51 125 44 78 71 118 80 115 7 -3 13 -7 13 -10z m1627 -47
c15 -13 25 -27 21 -31 -7 -8 -68 34 -68 47 0 15 18 8 47 -16z m5745 -101 c21
-140 22 -155 3 -155 -8 0 -15 2 -15 5 0 10 -31 222 -36 243 -4 19 -1 23 13 20
15 -3 21 -23 35 -113z m-7542 98 c0 -5 -10 -24 -22 -43 -25 -41 -36 -25 -13
19 14 28 35 42 35 24z m1700 -58 c49 -50 61 -68 52 -77 -8 -8 -21 -2 -54 28
-24 22 -53 46 -65 55 -16 11 -20 22 -16 37 3 12 8 22 12 22 4 0 36 -29 71 -65z
m-199 2 c-6 -15 -15 -27 -21 -27 -13 0 -13 4 7 48 18 42 31 23 14 -21z m5807
-99 c17 -117 17 -128 2 -128 -22 0 -59 248 -38 261 16 10 14 18 36 -133z m104
92 c2 -28 0 -40 -9 -40 -7 0 -13 11 -13 24 0 13 -3 31 -6 40 -4 10 -1 16 9 16
10 0 16 -13 19 -40z m-5538 -6 c15 -14 25 -28 22 -31 -8 -8 -58 28 -64 45 -6
19 11 13 42 -14z m-504 -13 c0 -8 -63 -255 -66 -259 -1 -2 -9 0 -17 5 -11 7
-8 30 21 140 26 98 38 130 48 126 8 -3 14 -8 14 -12z m-1420 -7 c0 -16 -43
-74 -50 -69 -10 6 28 75 41 75 5 0 9 -3 9 -6z m1525 -46 c-7 -34 -21 -55 -30
-47 -7 8 17 79 27 79 5 0 7 -15 3 -32z m475 -3 c13 -14 20 -28 17 -32 -8 -7
-57 35 -57 49 0 15 16 8 40 -17z m5474 -20 c8 -43 -5 -72 -15 -35 -10 37 -10
70 0 70 5 0 12 -16 15 -35z m-5830 16 c10 -16 -56 -251 -71 -251 -7 0 -13 8
-13 18 0 14 37 163 56 225 6 18 19 23 28 8z m629 -68 c98 -81 104 -88 87 -98
-13 -8 -212 154 -204 166 10 17 25 9 117 -68z m-2323 33 c0 -16 -44 -75 -52
-70 -5 3 -4 15 5 27 7 12 17 28 21 35 7 11 26 17 26 8z m2127 -30 c15 -13 25
-27 21 -31 -7 -8 -66 34 -67 48 -2 14 18 7 46 -17z m-582 -33 c-7 -41 -12 -50
-21 -41 -9 9 7 78 18 78 6 0 8 -14 3 -37z m5995 -36 c0 -47 -17 -40 -20 8 -3
42 -1 47 10 40 6 -3 10 -25 10 -48z m-5330 -2 c13 -14 21 -28 17 -31 -7 -7
-66 36 -66 49 -2 16 27 6 49 -18z m-2260 11 c0 -16 -44 -75 -52 -70 -5 3 -4
15 5 27 7 12 17 28 21 35 7 11 26 17 26 8z m-158 -47 c-5 -22 -123 -219 -131
-219 -20 0 -19 17 3 54 12 23 42 74 65 114 24 40 48 71 54 69 7 -3 11 -10 9
-18z m1731 -21 c-6 -34 -19 -55 -28 -47 -7 8 15 79 25 79 5 0 7 -15 3 -32z
m745 -155 c-11 -13 -31 0 -160 107 -48 40 -64 58 -57 67 8 9 38 -11 119 -75
79 -64 105 -90 98 -99z m17 152 c16 -13 26 -27 22 -31 -8 -9 -59 26 -65 44 -6
19 10 14 43 -13z m5270 -31 c6 -34 1 -54 -10 -42 -3 3 -9 22 -12 42 -7 48 13
48 22 0z m-7676 -29 c-22 -37 -47 -39 -28 -2 18 34 30 47 40 42 4 -3 -1 -21
-12 -40z m2489 -5 c35 -29 22 -44 -15 -18 -18 13 -33 26 -33 31 0 13 25 7 48
-13z m-871 -36 c-6 -37 -13 -51 -22 -43 -8 9 7 79 18 79 6 0 7 -15 4 -36z
m-1497 15 c0 -16 -122 -229 -131 -229 -24 0 -13 31 43 130 56 97 88 133 88 99z
m7568 -52 c2 -21 -1 -37 -7 -37 -6 0 -11 11 -11 24 0 13 -3 32 -7 42 -4 12 -2
15 8 12 8 -2 15 -21 17 -41z m-7728 21 c0 -18 -35 -69 -43 -62 -7 8 24 74 35
74 4 0 8 -6 8 -12z m2611 -9 c16 -11 27 -25 24 -30 -6 -9 -75 31 -75 44 0 13
21 7 51 -14z m296 -44 c94 -55 121 -82 79 -79 -17 2 -145 73 -185 103 -14 11
-21 23 -17 30 9 14 -1 19 123 -54z m-1272 -32 c-7 -42 -12 -50 -21 -40 -10 10
6 77 18 77 6 0 8 -13 3 -37z m1056 20 c30 -18 38 -33 17 -33 -14 1 -58 34 -58
44 0 10 10 7 41 -11z m5174 -25 c7 -45 25 -208 25 -235 0 -13 -6 -23 -14 -23
-10 0 -16 17 -21 58 -3 31 -10 92 -15 136 -6 43 -7 82 -4 87 11 18 23 8 29
-23z m-7915 2 c0 -5 -9 -23 -19 -41 -24 -39 -37 -21 -14 20 18 30 33 40 33 21z
m7793 -27 c5 -43 -1 -62 -14 -42 -11 18 -11 79 0 79 5 0 11 -17 14 -37z
m-4933 -35 c0 -13 -13 -9 -48 12 -18 11 -30 25 -27 30 6 10 75 -29 75 -42z
m4828 -55 c15 -140 15 -153 -3 -153 -8 0 -15 8 -15 18 0 27 -19 194 -25 220
-4 17 -1 22 13 22 16 0 20 -14 30 -107z m-6138 40 c-1 -23 -46 -243 -52 -248
-2 -2 -9 -1 -15 3 -16 10 35 262 53 262 8 0 14 -8 14 -17z m114 -20 c-8 -45
-13 -55 -24 -48 -10 6 9 85 22 85 5 0 6 -16 2 -37z m1251 10 c34 -16 46 -33
24 -33 -15 0 -69 33 -69 42 0 11 5 10 45 -9z m-2965 2 c0 -12 -35 -75 -42 -75
-13 0 -9 20 9 51 15 25 33 38 33 24z m7859 -77 c2 -32 -18 -19 -25 16 -8 45 8
74 17 31 4 -16 7 -38 8 -47z m-4977 -5 c62 -37 115 -68 117 -70 3 -2 0 -8 -6
-14 -13 -13 -39 -1 -160 74 -46 27 -83 56 -83 63 0 23 13 17 132 -53z m653 12
c75 -31 139 -95 118 -116 -6 -6 -28 9 -56 35 -48 47 -120 76 -220 91 -47 7
-63 17 -53 34 7 11 155 -20 211 -44z m-1698 33 c-2 -7 -15 -66 -28 -130 -18
-92 -27 -118 -40 -118 -14 0 -13 14 10 130 22 112 28 130 44 130 11 0 17 -5
14 -12z m1218 -15 c34 -16 46 -33 25 -33 -18 0 -70 30 -70 40 0 13 4 13 45 -7z
m-1363 -71 c-7 -33 -30 -46 -24 -14 8 49 14 64 22 56 5 -5 6 -24 2 -42z
m-1742 31 c0 -5 -10 -24 -22 -43 -25 -41 -36 -25 -13 19 14 28 35 42 35 24z
m3199 -4 c29 -10 43 -29 21 -29 -13 0 -70 29 -70 35 0 8 15 6 49 -6z m4711
-36 c0 -10 3 -28 6 -40 5 -17 2 -23 -10 -23 -12 0 -16 10 -16 40 0 22 5 40 10
40 6 0 10 -8 10 -17z m-4582 -8 c11 -11 -5 -14 -41 -8 -20 3 -37 10 -37 16 0
10 67 3 78 -8z m2265 -1 c78 -6 91 -11 79 -30 -5 -7 -36 -8 -97 -2 -163 16
-175 18 -175 35 0 12 10 14 58 9 31 -3 92 -8 135 -12z m-5753 2 c0 -3 -22 -51
-50 -107 -27 -56 -53 -123 -56 -150 -7 -56 -34 -70 -34 -19 0 68 95 280 126
280 8 0 14 -2 14 -4z m3584 -15 c11 -4 15 -10 9 -14 -13 -8 -83 3 -83 14 0 11
47 11 74 0z m109 -28 c4 -2 5 -8 2 -12 -6 -11 -85 10 -85 22 0 9 66 1 83 -10z
m1507 -42 c-33 -41 -54 -94 -77 -196 -16 -73 -25 -91 -41 -81 -10 6 13 116 44
208 19 58 83 136 95 117 4 -7 -5 -27 -21 -48z m-5090 43 c0 -15 -44 -77 -48
-66 -4 14 26 72 38 72 6 0 10 -3 10 -6z m1772 -42 c-7 -33 -30 -46 -24 -14 8
49 14 64 22 56 5 -5 6 -24 2 -42z m1865 6 c21 -19 31 -48 18 -48 -8 0 -54 53
-55 63 0 13 13 8 37 -15z m4330 -34 c-3 -20 -9 -39 -12 -42 -12 -12 -17 9 -11
43 9 47 31 47 23 -1z m-7869 -13 c-37 -70 -78 -158 -78 -168 0 -7 -7 -13 -15
-13 -25 0 -17 36 25 120 30 59 44 78 55 73 9 -3 14 -8 13 -12z m5222 9 c0 -5
-18 -10 -39 -10 -22 0 -43 5 -46 10 -4 6 12 10 39 10 25 0 46 -4 46 -10z m100
0 c0 -5 -18 -10 -40 -10 -22 0 -40 5 -40 10 0 6 18 10 40 10 22 0 40 -4 40
-10z m-1930 -18 c53 -14 66 -21 68 -39 3 -22 2 -22 -30 -9 -18 8 -59 20 -90
26 -36 8 -58 18 -58 27 0 17 29 16 110 -5z m1730 10 c0 -5 -11 -14 -25 -20
-14 -6 -25 -16 -25 -22 0 -5 -4 -10 -10 -10 -18 0 -10 29 12 44 24 17 48 21
48 8z m310 -2 c0 -5 -20 -10 -45 -10 -25 0 -45 5 -45 10 0 6 20 10 45 10 25 0
45 -4 45 -10z m83 0 c9 0 17 -4 17 -10 0 -11 -33 -13 -67 -4 -13 4 -20 11 -17
16 4 5 16 7 28 4 11 -3 29 -6 39 -6z m-5663 -5 c0 -12 -35 -75 -42 -75 -12 0
-10 18 7 50 13 25 35 41 35 25z m5749 -1 c37 -8 42 -24 7 -24 -31 0 -56 10
-56 21 0 11 7 11 49 3z m-3945 -41 c-10 -46 -13 -53 -24 -53 -9 0 -7 26 6 68
7 25 24 12 18 -15z m1919 20 c3 -5 8 -23 12 -40 8 -38 -10 -46 -20 -10 -4 12
-9 30 -11 40 -5 17 10 24 19 10z m2135 1 c12 -4 22 -12 22 -19 0 -9 -9 -10
-40 -2 -22 6 -40 15 -40 19 0 9 26 10 58 2z m92 -90 c0 -8 -3 -14 -7 -14 -12
1 -52 68 -45 75 9 9 52 -42 52 -61z m2049 23 c-5 -17 -9 -33 -9 -34 0 -2 -5
-3 -11 -3 -10 0 -4 52 8 73 11 19 21 -7 12 -36z m-2804 -4 c-8 -45 -13 -55
-25 -48 -11 7 10 85 22 85 6 0 7 -15 3 -37z m-5243 -42 c-2 -23 -8 -41 -13
-41 -10 0 -12 73 -3 83 14 13 20 -3 16 -42z m5369 28 c-2 -8 -12 -48 -23 -89
-25 -101 -25 -100 -41 -94 -13 4 -12 16 3 77 10 40 21 85 24 100 5 20 12 27
24 25 9 -2 15 -11 13 -19z m371 1 c52 0 58 -2 58 -21 0 -20 -3 -21 -72 -15
-195 18 -198 18 -198 34 0 13 12 14 77 8 42 -3 102 -6 135 -6z m2163 -10 c8
-13 -116 -231 -130 -227 -5 2 -10 8 -10 13 0 14 119 224 127 224 4 0 10 -5 13
-10z m-6069 -16 c-3 -9 -6 -27 -6 -40 0 -14 -6 -24 -14 -24 -9 0 -12 9 -9 28
7 42 11 52 24 52 6 0 8 -7 5 -16z m1973 -21 c6 -20 8 -39 6 -42 -9 -8 -23 13
-30 47 -9 45 11 41 24 -5z m2201 -33 c0 -22 -4 -40 -10 -40 -5 0 -10 18 -10
40 0 22 5 40 10 40 6 0 10 -18 10 -40z m127 -32 c6 -40 13 -82 15 -93 5 -35
-26 -22 -39 15 -17 50 -17 150 0 150 9 0 17 -24 24 -72z m1883 62 c0 -6 -7
-24 -15 -41 -22 -42 -38 -26 -18 16 16 34 33 46 33 25z m-2802 -50 c-13 -51
-33 -54 -23 -3 8 45 13 55 25 48 4 -3 3 -23 -2 -45z m682 -30 c0 -84 26 -160
75 -217 28 -33 32 -43 21 -52 -11 -9 -21 -3 -46 26 -47 53 -70 111 -81 209
-10 89 -7 104 17 104 11 0 14 -16 14 -70z m-5900 0 c0 -29 -4 -40 -15 -40 -11
0 -15 11 -15 40 0 29 4 40 15 40 11 0 15 -11 15 -40z m3963 5 c9 -20 28 -40
42 -45 14 -5 25 -14 25 -19 0 -39 -76 -4 -96 44 -17 43 -18 55 -1 55 7 0 21
-16 30 -35z m-2147 -7 c-3 -13 -6 -31 -6 -40 0 -10 -4 -18 -10 -18 -11 0 -13
39 -4 64 9 25 27 19 20 -6z m2022 -15 c12 -38 9 -54 -8 -37 -14 14 -24 74 -13
74 5 0 15 -17 21 -37z m4285 21 c-1 -8 -120 -220 -129 -233 -2 -2 -10 -1 -18
2 -13 5 -5 26 40 104 79 138 84 145 97 140 7 -3 11 -8 10 -13z m-6423 -6 c-1
-23 -49 -261 -54 -265 -26 -26 -17 95 19 245 3 12 12 22 20 22 8 0 15 -1 15
-2z m6270 -7 c0 -14 -34 -71 -42 -71 -13 0 -9 16 10 49 17 30 32 40 32 22z
m-1955 -37 c6 -34 1 -54 -10 -42 -3 3 -9 22 -12 42 -7 48 13 48 22 0z m-820
-11 c-8 -45 -13 -55 -25 -48 -11 7 10 85 22 85 6 0 7 -15 3 -37z m-1450 -36
c27 -72 84 -130 160 -163 58 -25 86 -54 53 -54 -19 0 -129 55 -154 77 -55 48
-127 187 -101 196 16 6 22 -1 42 -56z m-1815 37 c0 -9 -10 -69 -22 -135 -15
-81 -26 -119 -35 -119 -18 0 -17 16 9 153 15 79 26 117 35 117 7 0 13 -7 13
-16z m-1909 -42 c17 -25 18 -32 7 -32 -13 0 -24 16 -46 64 -11 22 21 -3 39
-32z m3876 -41 c-14 -5 -59 48 -51 61 3 5 19 -5 34 -24 16 -18 23 -35 17 -37z
m-2102 22 c-7 -42 -12 -50 -21 -40 -10 10 6 77 18 77 6 0 8 -13 3 -37z m2683
21 c46 -4 62 -9 62 -21 0 -12 -15 -14 -102 -8 -142 8 -168 13 -168 31 0 16 3
16 208 -2z m-4129 -131 c3 -2 0 -8 -6 -14 -8 -8 -32 3 -84 40 -106 72 -112 78
-106 96 6 14 57 -18 196 -122z m7571 132 c0 -12 -35 -75 -42 -75 -13 0 -9 20
9 51 15 25 33 38 33 24z m-1862 -45 c14 -18 18 -31 12 -35 -12 -7 -49 33 -50
53 0 19 13 13 38 -18z m-1040 2 c6 -20 -22 -24 -114 -17 -73 5 -94 10 -94 22
0 12 16 14 102 10 56 -3 104 -10 106 -15z m142 -33 c-7 -16 -16 -29 -21 -29
-13 0 -11 17 8 53 20 39 30 19 13 -24z m1388 25 c38 -4 52 -10 52 -21 0 -14
-11 -15 -77 -9 -42 3 -100 6 -130 6 -46 0 -53 3 -53 19 0 18 6 19 78 15 42 -3
101 -7 130 -10z m-6455 -67 c-8 -13 -53 42 -53 63 1 9 12 2 30 -19 16 -19 26
-39 23 -44z m3907 31 c0 -11 -7 -10 -47 4 -18 7 -33 18 -33 24 0 9 10 8 40 -3
22 -9 40 -20 40 -25z m3134 2 c21 -20 -8 -29 -77 -24 -174 11 -196 15 -190 29
4 12 28 13 131 8 70 -3 131 -9 136 -13z m-5359 -42 c-8 -46 -12 -55 -21 -45
-9 9 7 87 18 87 6 0 7 -16 3 -42z m2303 36 c12 -4 22 -11 22 -16 0 -10 -70 0
-84 13 -11 10 27 12 62 3z m2082 -41 c0 -10 -10 -8 -40 7 -23 12 -38 25 -35
30 8 13 75 -20 75 -37z m1488 30 c-3 -16 -18 -18 -126 -21 -103 -2 -122 0
-122 12 0 13 20 16 108 19 59 1 115 4 125 5 13 1 17 -3 15 -15z m222 10 c0
-15 -48 -68 -55 -61 -8 8 32 68 46 68 5 0 9 -3 9 -7z m-3687 -13 c9 0 17 -4
17 -10 0 -11 -39 -13 -64 -4 -25 9 -19 27 7 20 12 -3 30 -6 40 -6z m115 -15
c12 -11 -8 -16 -42 -10 -48 9 -48 29 0 22 20 -3 39 -9 42 -12z m105 -1 c13
-14 -3 -20 -42 -16 -23 2 -41 8 -41 13 0 10 73 12 83 3z m717 -4 c0 -10 -52
-40 -70 -40 -21 0 -9 17 23 33 38 19 47 20 47 7z m-4965 -24 c17 -13 27 -27
23 -31 -7 -8 -68 34 -68 47 0 14 14 9 45 -16z m4355 14 c0 -5 -18 -10 -40 -10
-22 0 -40 5 -40 10 0 6 18 10 40 10 22 0 40 -4 40 -10z m76 0 c13 0 24 -5 24
-11 0 -15 -73 -6 -78 10 -3 10 0 12 12 8 10 -4 29 -7 42 -7z m129 -9 c3 -5 2
-12 -2 -14 -13 -7 -83 5 -83 14 0 12 77 12 85 0z m1544 -7 c2 -2 2 -7 -1 -10
-9 -9 -78 7 -78 18 0 9 69 2 79 -8z m-1439 -4 c0 -5 -18 -10 -40 -10 -22 0
-40 5 -40 10 0 6 18 10 40 10 22 0 40 -4 40 -10z m76 0 c13 0 24 -4 24 -10 0
-5 -18 -10 -40 -10 -30 0 -40 4 -40 16 0 11 5 14 16 10 9 -3 27 -6 40 -6z
m-4743 -130 c60 -41 84 -70 57 -70 -16 0 -148 91 -199 137 -65 58 -45 75 23
21 29 -24 82 -63 119 -88z m4866 115 c0 -5 -6 -10 -14 -9 -55 3 -65 5 -65 15
0 13 77 8 79 -6z m1339 0 c12 -11 -8 -16 -42 -10 -48 9 -48 29 0 22 20 -3 39
-9 42 -12z m101 -4 c7 -5 9 -11 4 -14 -14 -9 -83 4 -83 14 0 12 61 11 79 0z
m1341 0 c0 -12 -62 -41 -73 -34 -5 3 4 13 20 23 31 20 53 25 53 11z m-1230
-11 c0 -5 -18 -10 -40 -10 -22 0 -40 5 -40 10 0 6 18 10 40 10 22 0 40 -4 40
-10z m100 -3 c0 -9 -12 -11 -40 -9 -22 2 -40 8 -40 13 0 5 18 9 40 9 26 0 40
-5 40 -13z m-6430 -19 c16 -11 27 -25 24 -29 -5 -9 -74 31 -74 44 0 13 20 7
50 -15z m1516 -34 c-4 -18 -12 -34 -18 -34 -10 0 -3 64 10 84 10 17 14 -13 8
-50z m5024 46 c0 -5 -18 -10 -39 -10 -22 0 -43 5 -46 10 -4 6 12 10 39 10 25
0 46 -4 46 -10z m100 -6 c0 -11 -5 -14 -16 -10 -9 3 -27 6 -40 6 -13 0 -24 5
-24 10 0 6 18 10 40 10 30 0 40 -4 40 -16z m100 -4 c0 -5 -18 -10 -40 -10 -22
0 -40 5 -40 10 0 6 18 10 40 10 22 0 40 -4 40 -10z m93 0 c9 0 17 -4 17 -10 0
-11 -33 -13 -67 -4 -13 4 -20 11 -17 16 4 5 16 7 28 4 11 -3 29 -6 39 -6z
m117 -10 c0 -5 -18 -10 -40 -10 -22 0 -40 5 -40 10 0 6 18 10 40 10 22 0 40
-4 40 -10z m76 0 c13 0 24 -4 24 -10 0 -5 -18 -10 -40 -10 -30 0 -40 4 -40 16
0 11 5 14 16 10 9 -3 27 -6 40 -6z m444 1 c0 -8 -47 -21 -76 -21 -23 0 -16 18
9 23 40 8 67 7 67 -2z m-310 -11 c0 -5 -20 -10 -45 -10 -25 0 -45 5 -45 10 0
6 20 10 45 10 25 0 45 -4 45 -10z m100 -5 c0 -16 -20 -19 -57 -9 -37 10 -26
24 17 24 29 0 40 -4 40 -15z m100 5 c0 -5 -13 -10 -30 -10 -16 0 -33 0 -37 -1
-4 0 -9 4 -11 10 -2 7 12 11 37 11 23 0 41 -4 41 -10z m-3107 -16 c15 -3 27
-12 27 -20 0 -12 -11 -14 -57 -10 -32 3 -93 8 -135 12 -60 4 -78 9 -78 21 0
13 15 14 108 8 59 -3 119 -9 135 -11z m-4163 -24 c14 -10 22 -22 18 -25 -8 -8
-68 25 -68 37 0 14 24 8 50 -12z m4780 5 c0 -8 -14 -22 -31 -31 -44 -22 -289
-11 -289 14 0 13 16 14 123 9 94 -5 129 -3 152 7 39 19 45 19 45 1z m1387 -24
c77 -1 107 -11 87 -31 -9 -8 -273 5 -282 14 -2 3 -2 11 1 19 4 11 17 12 59 6
29 -4 90 -8 135 -8z m-6071 -27 c26 -7 33 -24 9 -24 -21 0 -65 22 -65 33 0 5
7 6 16 3 9 -3 27 -9 40 -12z m1314 -20 c-14 -62 -33 -63 -23 -1 3 20 11 37 18
37 10 0 11 -9 5 -36z m5343 16 c29 0 37 -4 37 -17 0 -16 -9 -17 -102 -12 -57
4 -118 7 -135 8 -24 1 -33 6 -33 18 0 14 11 15 98 10 53 -4 114 -7 135 -7z
m-6579 -62 c3 -16 3 -28 -2 -28 -10 0 -41 68 -34 75 9 9 29 -18 36 -47z m7179
38 c7 -19 -41 -26 -180 -26 -93 0 -113 3 -113 15 0 12 22 15 113 18 61 1 126
4 143 5 20 1 34 -3 37 -12z m-7053 -33 c0 -5 7 -62 15 -128 18 -145 18 -135 0
-135 -15 0 -16 5 -37 168 -13 96 -13 102 4 102 10 0 18 -3 18 -7z m1096 -39
c-3 -9 -6 -27 -6 -40 0 -14 -6 -24 -14 -24 -9 0 -12 9 -9 28 7 42 11 52 24 52
6 0 8 -7 5 -16z m-1316 -132 c15 -116 15 -122 -2 -122 -10 0 -18 8 -18 18 -1
9 -7 66 -14 125 -11 97 -11 107 3 105 12 -3 19 -31 31 -126z m106 83 c6 -32 1
-55 -10 -44 -11 11 -17 79 -8 79 6 0 14 -16 18 -35z m1084 7 c0 -24 -41 -246
-46 -251 -2 -3 -9 0 -15 6 -15 15 29 263 48 263 7 0 13 -8 13 -18z m237 -44
c-3 -13 -13 -70 -23 -128 -17 -107 -25 -127 -42 -116 -6 3 -2 46 9 113 26 149
27 153 45 153 12 0 15 -6 11 -22z m-131 -20 c-3 -13 -6 -31 -6 -40 0 -10 -4
-18 -10 -18 -11 0 -13 39 -4 64 9 25 27 19 20 -6z m-1182 -24 c9 -24 7 -62 -4
-69 -6 -3 -10 4 -10 17 0 13 -3 33 -6 46 -7 25 11 31 20 6z m1161 -96 c-8 -46
-12 -55 -21 -45 -9 9 7 87 18 87 6 0 7 -16 3 -42z m-1141 -40 c4 -22 3 -38 -2
-38 -11 0 -22 34 -22 70 0 34 16 13 24 -32z m1123 -59 c-3 -22 -8 -43 -11 -46
-12 -13 -16 6 -10 46 9 54 28 54 21 0z m-1083 -68 c-6 -7 -26 12 -35 36 -16
42 2 48 21 7 9 -22 16 -41 14 -43z m252 -72 c52 -45 94 -85 94 -90 0 -27 -30
-10 -112 63 -51 45 -95 83 -97 84 -4 4 9 24 16 24 3 0 47 -37 99 -81z m814 35
c-14 -62 -33 -63 -23 -1 3 20 11 37 18 37 10 0 11 -9 5 -36z m-1020 -9 c13
-14 20 -28 17 -32 -8 -7 -57 35 -57 49 0 15 16 8 40 -17z m73 -73 c15 -16 24
-32 20 -35 -7 -8 -63 41 -63 55 0 15 16 8 43 -20z m933 2 c-3 -9 -6 -27 -6
-40 0 -15 -6 -24 -15 -24 -12 0 -14 7 -9 28 10 45 13 52 25 52 6 0 8 -7 5 -16z
m-956 -134 c65 -60 92 -92 85 -99 -12 -12 -219 165 -210 180 12 19 32 6 125
-81z m110 55 c7 -8 10 -18 7 -21 -8 -8 -67 38 -61 48 6 10 35 -5 54 -27z m720
27 c0 -12 -40 -235 -45 -249 -2 -7 -10 -10 -18 -7 -11 4 -9 27 10 132 12 70
23 128 23 130 0 6 30 1 30 -6z m106 -54 c-3 -13 -6 -31 -6 -40 0 -10 -4 -18
-10 -18 -11 0 -13 39 -4 64 9 25 27 19 20 -6z m113 -80 c-10 -57 -21 -118 -24
-135 -4 -20 -12 -33 -20 -33 -19 0 -19 -7 7 143 18 102 26 127 39 127 15 0 15
-8 -2 -102z m-874 48 c17 -13 27 -27 23 -31 -7 -8 -68 34 -68 47 0 14 14 9 45
-16z m80 -70 c17 -13 27 -27 23 -31 -8 -8 -68 32 -68 46 0 15 13 10 45 -15z
m660 -13 c-7 -41 -12 -50 -21 -41 -9 9 7 78 18 78 6 0 8 -14 3 -37z m-405 -60
c78 -89 134 -173 122 -185 -7 -7 -13 -10 -15 -7 -2 2 -23 31 -47 64 -24 33
-63 83 -86 111 -39 46 -45 64 -23 64 4 0 26 -21 49 -47z m-180 5 c16 -11 27
-25 24 -30 -6 -10 -64 29 -64 43 0 14 8 11 40 -13z m566 -50 c-7 -44 -12 -55
-21 -46 -9 9 7 88 18 88 6 0 7 -16 3 -42z m-472 -59 c-3 -6 -18 4 -34 23 -36
43 -26 61 12 19 16 -18 26 -37 22 -42z m452 -55 c-4 -18 -11 -34 -17 -34 -10
0 -3 64 9 85 10 16 14 -15 8 -51z m-476 -86 c38 -51 46 -69 36 -77 -9 -8 -25
8 -65 63 -29 41 -63 84 -77 97 -19 18 -21 25 -12 37 14 16 32 -1 118 -120z
m85 62 c-4 -7 -16 2 -31 21 -30 42 -20 58 12 19 14 -16 22 -34 19 -40z m45
-51 c12 -16 19 -33 16 -37 -7 -6 -55 46 -56 61 0 17 20 5 40 -24z m330 -15
c-14 -62 -33 -63 -23 -1 3 20 11 37 18 37 10 0 11 -9 5 -36z m-271 -64 c12
-17 19 -35 15 -41 -5 -9 -54 50 -54 65 0 15 18 3 39 -24z m143 -6 c-4 -23 -6
-24 -20 -11 -17 18 -9 49 11 41 9 -3 12 -14 9 -30z m108 -30 c-14 -61 -30 -63
-22 -1 2 21 10 37 17 37 10 0 11 -9 5 -36z m124 -21 c-28 -154 -117 -253 -229
-253 -43 0 -112 27 -133 53 -19 22 3 32 30 12 67 -47 152 -38 214 23 36 35 84
122 84 154 0 28 11 48 27 48 11 0 12 -8 7 -37z m-314 -34 c12 -16 19 -33 16
-37 -7 -6 -55 46 -56 61 0 17 20 5 40 -24z m170 -14 c0 -14 -32 -65 -40 -65
-13 0 -13 6 5 40 13 26 35 41 35 25z m-125 -45 c3 -5 15 -10 25 -10 20 0 36
-17 26 -27 -9 -9 -76 24 -76 37 0 13 17 13 25 0z"/>
</g>
</svg>
