<?xml version="1.0" standalone="no"?>
<!DOCTYPE svg PUBLIC "-//W3C//DTD SVG 20010904//EN"
 "http://www.w3.org/TR/2001/REC-SVG-20010904/DTD/svg10.dtd">
<svg version="1.0" xmlns="http://www.w3.org/2000/svg"
 width="822.000000pt" height="255.000000pt" viewBox="0 0 822.000000 255.000000"
 preserveAspectRatio="xMidYMid meet">

<g transform="translate(0.000000,255.000000) scale(0.100000,-0.100000)"
fill="#000000" stroke="none">
<path d="M5045 2400 c-3 -5 1 -10 9 -10 14 0 16 -23 16 -170 0 -144 -2 -170
-15 -170 -13 0 -15 -27 -15 -185 l0 -185 -35 0 -35 0 0 174 c0 171 0 174 -22
179 -12 4 -25 2 -28 -2 -3 -5 -26 -12 -52 -16 -55 -8 -61 -24 -23 -57 22 -19
25 -30 25 -90 l0 -68 -42 0 c-24 0 -38 -4 -33 -8 6 -4 9 -34 7 -69 l-4 -61
-49 -12 c-37 -9 -50 -17 -54 -34 -12 -51 -115 -528 -115 -531 0 -2 -525 -6
-1167 -8 -786 -3 -1206 -8 -1283 -16 -340 -34 -530 -71 -774 -151 -151 -49
-413 -125 -578 -169 -38 -9 -38 -9 -48 27 -5 21 -29 109 -53 197 l-44 160
-154 0 -154 0 -12 -215 c-6 -118 -12 -234 -12 -256 l-1 -41 -59 -13 c-32 -7
-63 -15 -69 -19 -6 -3 -12 -44 -13 -91 l-2 -85 69 -18 c37 -10 70 -19 72 -21
2 -3 20 -276 22 -333 0 -10 42 -13 178 -13 l178 0 29 111 c16 61 35 113 40
116 6 2 69 -12 141 -31 188 -50 297 -72 499 -100 372 -53 456 -58 1059 -63
531 -5 573 -6 618 -24 47 -18 97 -19 1577 -19 1502 0 1529 0 1586 20 56 19 84
20 864 20 880 0 867 -1 974 58 104 56 153 150 145 278 -14 219 -239 419 -613
545 -103 35 -110 39 -113 66 -8 59 -43 71 -112 36 l-50 -25 -93 16 c-255 43
-330 48 -884 53 l-542 5 -6 42 c-3 22 -17 149 -31 281 -14 132 -30 245 -35
251 -13 16 -72 23 -201 25 l-108 2 0 99 c0 54 -3 98 -7 98 -5 0 -7 40 -5 90 3
77 1 90 -12 90 -13 0 -16 -15 -16 -90 0 -73 -3 -90 -15 -90 -12 0 -15 -18 -15
-99 l0 -98 -55 -1 -55 0 0 194 0 194 25 0 c16 0 25 6 25 15 0 10 -10 15 -30
15 -28 0 -30 -3 -30 -36 0 -31 -3 -36 -20 -31 -13 3 -20 0 -20 -9 0 -8 9 -14
20 -14 19 0 20 -7 20 -164 l0 -163 -50 -2 -50 -1 0 215 c0 117 -4 216 -8 219
-15 9 -30 -9 -35 -39 -2 -17 -5 52 -6 153 -1 151 -3 182 -15 182 -8 0 -18 -4
-21 -10z m695 -830 c0 -5 -4 -10 -9 -10 -6 0 -13 5 -16 10 -3 6 1 10 9 10 9 0
16 -4 16 -10z m-1093 -346 c-3 -3 -12 -4 -19 -1 -8 3 -5 6 6 6 11 1 17 -2 13
-5z m-590 -536 c-3 -8 -6 -5 -6 6 -1 11 2 17 5 13 3 -3 4 -12 1 -19z m-3489
-103 c-3 -3 -9 2 -12 12 -6 14 -5 15 5 6 7 -7 10 -15 7 -18z m3492 10 c0 -8
-2 -15 -4 -15 -2 0 -6 7 -10 15 -3 8 -1 15 4 15 6 0 10 -7 10 -15z"/>
<path d="M5334 2159 c-3 -6 -1 -16 5 -22 8 -8 11 -5 11 11 0 24 -5 28 -16 11z"/>
<path d="M68 663 c6 -2 9 -10 6 -15 -4 -6 -2 -8 4 -4 16 10 42 -34 42 -73 0
-33 -1 -34 -14 -15 -8 11 -16 31 -18 44 -1 14 -7 23 -13 20 -15 -8 -5 -103 13
-124 16 -18 16 -19 0 -13 -12 4 -18 1 -18 -8 0 -9 -10 -15 -24 -15 -21 0 -25
5 -29 38 l-4 37 -1 -42 c-2 -43 -2 -43 34 -43 24 0 33 -4 28 -12 -5 -7 -3 -8
5 -4 7 5 10 14 7 21 -2 7 2 16 11 19 14 6 14 9 -2 26 -11 12 -15 26 -10 37 6
16 9 14 22 -11 12 -23 13 -34 4 -47 -7 -12 -7 -20 -1 -24 6 -3 10 -20 10 -37
0 -30 -1 -30 -19 -14 -18 16 -19 16 -23 -23 -2 -21 0 -37 4 -35 5 3 8 17 8 31
0 22 2 24 15 13 26 -21 28 -11 26 127 -1 83 -3 94 -27 122 -14 17 -31 31 -37
30 -8 0 -8 -2 1 -6z"/>
<path d="M67 319 c7 -7 15 -10 18 -7 3 3 -2 9 -12 12 -14 6 -15 5 -6 -5z"/>
</g>
</svg>
