<?xml version="1.0" standalone="no"?>
<!DOCTYPE svg PUBLIC "-//W3C//DTD SVG 20010904//EN"
 "http://www.w3.org/TR/2001/REC-SVG-20010904/DTD/svg10.dtd">
<svg version="1.0" xmlns="http://www.w3.org/2000/svg"
 width="900.000000pt" height="820.000000pt" viewBox="0 0 900.000000 820.000000"
 preserveAspectRatio="xMidYMid meet">

<g transform="translate(0.000000,820.000000) scale(0.100000,-0.100000)"
fill="#000000" stroke="none">
<path d="M1250 7402 c0 -5 -11 -14 -24 -20 -13 -6 -39 -24 -57 -40 -19 -16
-61 -36 -96 -46 -101 -28 -150 -53 -188 -101 -20 -24 -50 -50 -66 -57 -16 -7
-29 -16 -29 -20 0 -5 -7 -8 -15 -8 -8 0 -15 -4 -15 -10 0 -5 -6 -10 -13 -10
-7 0 -22 -8 -33 -17 -10 -10 -37 -31 -59 -47 -57 -41 -165 -152 -203 -209
-109 -163 -138 -344 -84 -528 26 -89 44 -113 105 -144 71 -35 170 -35 275 1
89 31 101 36 362 171 233 121 336 165 490 208 141 40 254 57 368 54 84 -2 227
-27 287 -51 136 -53 237 -115 297 -182 41 -46 44 -65 15 -92 -15 -13 -29 -24
-32 -24 -4 0 -12 -6 -20 -12 -7 -7 -26 -22 -41 -33 -16 -11 -48 -40 -72 -65
-51 -54 -48 -57 -98 93 -35 104 -53 137 -77 137 -6 0 -32 -23 -58 -51 l-47
-51 -7 30 c-13 60 -50 63 -97 8 -94 -110 -229 -400 -272 -586 -2 -8 -9 -33
-15 -55 -5 -22 -13 -56 -16 -75 -3 -19 -8 -46 -10 -60 -15 -70 -18 -110 -22
-286 -4 -155 -2 -206 12 -275 27 -131 73 -276 115 -364 22 -44 46 -109 54
-145 35 -148 78 -225 168 -297 114 -90 109 -83 90 -138 -11 -30 -24 -48 -38
-51 -31 -8 -43 -44 -38 -105 8 -91 22 -126 73 -181 78 -85 88 -136 116 -603
l6 -100 -40 -17 c-52 -21 -62 -46 -49 -121 10 -59 52 -117 83 -117 9 0 16 -15
20 -37 16 -105 28 -143 46 -143 14 0 23 -15 35 -57 39 -133 93 -185 109 -105
8 46 18 44 37 -7 16 -43 24 -52 41 -49 18 2 24 13 32 57 6 30 15 56 21 58 5 2
21 -19 34 -46 48 -96 89 -87 97 22 3 37 9 67 13 67 4 0 15 -11 24 -25 38 -58
66 -15 70 105 2 50 8 84 19 101 17 25 26 97 14 115 -3 6 6 30 20 55 21 35 26
57 26 110 0 77 -21 117 -65 126 -16 3 -31 10 -34 15 -6 9 -29 168 -38 263 -3
33 -13 121 -23 195 l-16 135 36 37 c48 49 58 90 43 170 -10 53 -10 70 2 98 25
61 23 78 -9 136 l-32 56 22 66 c12 37 23 99 25 138 4 67 -13 216 -33 292 -6
20 -24 97 -42 170 -29 123 -30 135 -16 150 9 9 18 14 20 11 2 -2 30 -56 62
-119 37 -72 74 -130 100 -156 45 -43 100 -74 132 -74 24 0 48 -21 87 -75 16
-22 54 -64 84 -94 l54 -53 0 -107 c-1 -108 16 -225 45 -316 43 -136 142 -298
238 -387 38 -36 159 -122 173 -124 33 -3 64 -32 74 -68 15 -50 19 -55 84 -91
l51 -29 34 -135 c19 -75 41 -143 50 -152 14 -14 16 -32 12 -101 -4 -55 -1 -99
7 -124 17 -54 62 -148 72 -152 4 -2 8 -8 8 -13 0 -10 35 -53 67 -82 13 -11 33
-41 44 -66 82 -174 136 -288 175 -368 24 -50 44 -96 44 -102 0 -5 30 -31 68
-56 37 -25 89 -62 117 -81 27 -20 123 -87 213 -151 l164 -116 65 12 c55 10 69
9 101 -5 20 -10 44 -23 52 -29 8 -7 43 -28 78 -46 l64 -34 -9 -45 c-26 -145
15 -278 127 -403 21 -25 132 -100 149 -103 3 0 13 -4 21 -7 8 -4 37 -11 64
-17 50 -11 65 -23 107 -85 13 -19 27 -35 32 -35 4 0 7 -7 7 -15 0 -8 3 -15 8
-15 4 0 18 -16 31 -35 13 -19 31 -44 41 -55 10 -11 28 -36 41 -55 13 -19 27
-35 32 -35 4 0 7 -6 7 -14 0 -8 4 -16 9 -18 5 -1 42 -52 81 -113 90 -136 131
-181 195 -211 56 -27 94 -30 159 -12 36 9 57 9 120 -5 95 -21 197 -22 262 -2
61 18 74 19 74 2 0 -8 11 -24 24 -36 30 -28 67 -24 155 16 56 27 91 56 124
106 17 26 42 36 49 19 4 -11 136 -71 168 -77 14 -3 37 -7 53 -11 23 -5 27 -2
27 15 0 12 -12 31 -26 44 -24 20 -63 93 -78 143 -6 19 -1 23 38 33 25 6 66 22
92 36 48 25 74 31 74 17 0 -8 34 -54 63 -84 9 -10 27 -18 39 -18 11 0 36 -12
55 -26 29 -22 39 -24 78 -18 25 3 48 10 51 15 2 5 -4 29 -16 53 -11 25 -20 50
-20 57 0 6 -14 34 -31 61 -16 28 -28 52 -26 55 3 2 21 6 40 10 28 4 46 -1 82
-22 49 -28 85 -42 148 -55 55 -11 66 14 28 66 -56 79 -52 83 56 60 71 -15 97
-8 70 22 -9 10 -17 23 -17 29 0 6 -4 13 -8 15 -5 2 -68 91 -140 198 -180 267
-226 313 -364 364 -38 15 -82 40 -102 59 -49 48 -96 67 -177 74 -119 10 -197
-18 -243 -88 -10 -17 -30 -29 -51 -33 -18 -4 -35 -10 -37 -15 -2 -5 -12 -11
-23 -15 -16 -5 -25 3 -45 41 -23 44 -159 188 -168 178 -2 -2 -16 9 -31 24 -26
26 -27 34 -26 106 1 43 -2 98 -7 123 -5 31 -4 58 4 82 18 54 19 61 19 123 0
33 -8 74 -18 95 -28 62 -132 181 -190 219 -30 20 -120 11 -228 -21 -44 -13
-83 -22 -87 -19 -11 6 -10 33 1 33 15 0 35 62 32 103 -2 40 -28 117 -40 117
-16 1 -54 43 -56 63 -2 12 -10 74 -19 137 -22 158 -25 199 -14 206 6 4 42 9
82 11 39 3 73 7 75 9 6 5 9 45 16 185 l6 127 -53 11 c-172 36 -160 31 -153 65
23 108 42 170 54 174 15 5 63 47 135 117 59 58 116 136 116 159 0 9 5 17 10
17 6 1 16 2 23 3 15 2 52 -19 95 -56 43 -37 83 -57 129 -64 38 -6 73 0 241 42
67 17 99 21 117 14 14 -5 25 -14 25 -19 0 -8 51 -30 90 -38 68 -14 106 -18
180 -18 77 0 89 3 117 25 17 14 47 50 67 80 20 30 39 60 44 65 4 6 17 25 27
42 11 18 23 33 26 33 4 0 10 8 13 18 4 10 34 33 69 51 34 19 69 40 78 47 8 8
20 14 25 14 6 0 8 40 6 97 -4 89 -7 103 -42 173 -21 41 -46 93 -55 115 -20 48
-46 107 -68 155 -15 33 -15 35 3 42 26 9 36 34 39 92 2 31 9 56 22 69 10 12
20 26 20 31 1 6 3 21 4 34 1 13 -8 60 -22 105 -23 78 -28 150 -12 172 9 13 19
61 24 117 11 115 -102 335 -198 385 -17 8 -45 31 -62 49 -18 19 -40 34 -48 34
-23 0 -33 24 -57 130 -11 51 -30 115 -42 141 -21 51 -87 119 -113 119 -10 0
-30 31 -54 83 -52 110 -76 132 -149 131 -66 0 -161 -43 -169 -75 -7 -27 -15
-24 -41 15 -33 49 -210 218 -409 391 l-171 150 -215 73 -215 74 -229 -87
c-125 -48 -259 -98 -298 -112 -57 -20 -80 -35 -122 -81 l-52 -56 -88 3 c-87 2
-89 2 -217 -53 l-128 -55 -90 23 c-83 21 -93 22 -141 9 l-52 -15 -130 71
c-111 60 -145 73 -230 90 -233 47 -375 52 -401 16 -18 -25 -18 -27 8 -60 13
-17 65 -48 127 -78 59 -27 100 -52 94 -54 -7 -3 -47 12 -88 31 -176 84 -366
102 -554 53 l-94 -24 -60 20 c-53 18 -67 19 -135 10 l-76 -11 -57 52 c-325
301 -889 381 -1364 195 -123 -49 -410 -188 -573 -278 -99 -55 -219 -101 -262
-101 -10 0 -28 9 -41 19 -20 16 -23 27 -21 71 3 73 45 192 98 277 54 87 133
159 226 208 61 33 74 36 121 30 47 -5 61 -2 152 41 55 26 120 49 145 51 25 3
54 13 66 24 11 11 41 30 65 42 58 29 78 65 61 109 -8 21 -8 36 -2 42 14 14 12
42 -2 53 -16 13 -228 27 -228 15z m50 -40 c0 -18 -26 -32 -59 -31 l-36 1 40
19 c44 21 55 23 55 11z m140 -9 c0 -21 -37 -43 -72 -43 -42 0 -46 5 -21 32 15
17 93 27 93 11z m-190 -73 c0 -5 -4 -10 -8 -10 -4 0 -16 -14 -26 -30 -25 -44
-9 -60 61 -60 34 0 52 -4 48 -10 -3 -5 -21 -10 -40 -10 -19 0 -76 -18 -127
-41 -147 -65 -141 -64 -134 -34 8 32 -15 88 -45 109 -20 14 -22 18 -9 26 42
27 162 58 268 69 6 0 12 -3 12 -9z m120 -19 c0 -17 -26 -30 -69 -35 l-44 -5
23 24 c23 25 90 36 90 16z m60 -26 c-21 -26 -31 -16 -13 11 9 15 19 21 21 15
2 -6 -2 -18 -8 -26z m-460 -96 c18 -33 12 -56 -17 -61 -16 -3 -35 -8 -44 -12
-13 -6 -15 0 -13 34 3 62 49 87 74 39z m-124 -46 c-3 -10 -8 -29 -11 -43 -3
-14 -23 -36 -43 -50 -50 -34 -56 -36 -49 -16 4 10 2 26 -3 37 -9 16 -3 24 42
53 61 40 71 43 64 19z m-152 -132 c-1 -29 -11 -51 -40 -85 -37 -44 -39 -45
-47 -24 -4 13 -15 29 -25 36 -15 12 -12 18 37 63 30 27 60 49 66 49 6 0 10
-16 9 -39z m1380 -110 c62 -2 14 -12 -98 -20 -123 -9 -166 -25 -166 -61 0 -29
58 -69 158 -109 50 -20 94 -40 99 -44 4 -5 -40 -5 -97 -1 -58 4 -107 10 -110
14 -16 23 -134 59 -250 76 -76 11 -77 17 -18 64 29 23 62 46 73 50 42 16 246
37 335 33 25 0 58 -2 74 -2z m3957 -57 c217 -74 192 -59 429 -269 255 -226
373 -351 423 -451 16 -30 15 -32 -8 -54 -14 -13 -25 -29 -25 -37 0 -7 -9 -13
-21 -13 -18 0 -132 103 -640 575 l-97 90 -113 28 c-63 15 -121 27 -131 27 -14
0 -203 -71 -427 -161 -40 -16 -79 -29 -85 -29 -15 0 -82 137 -72 147 12 13
529 211 552 212 11 1 108 -29 215 -65z m-3786 36 c68 -11 228 -60 221 -67 -2
-3 -37 5 -78 16 -167 47 -228 47 -228 -2 0 -52 71 -131 220 -244 28 -21 2 -25
-37 -5 -21 11 -78 32 -128 48 -61 18 -99 36 -117 55 -31 32 -63 50 -141 79
-53 20 -96 54 -84 66 4 4 45 10 92 15 59 5 101 15 133 31 26 14 56 23 67 22
11 -2 47 -8 80 -14z m-1661 -17 c5 -17 0 -44 -16 -79 -13 -30 -25 -54 -28 -54
-3 0 -10 10 -15 23 -11 24 -51 35 -68 18 -21 -21 -28 -11 -13 17 20 38 92 102
115 102 12 0 21 -10 25 -27z m948 -49 c-41 -27 -52 -40 -50 -57 5 -34 50 -48
177 -57 64 -4 130 -13 146 -20 29 -12 26 -13 -75 -35 -58 -13 -121 -27 -140
-32 -29 -8 -40 -5 -69 14 -54 37 -127 54 -193 47 -53 -6 -58 -5 -58 13 0 34
23 51 135 98 61 25 119 50 130 55 47 21 46 7 -3 -26z m809 -14 c63 -11 135
-20 161 -20 35 0 64 -9 113 -36 81 -44 93 -61 25 -34 -61 24 -88 25 -118 4
-31 -22 -29 -75 8 -176 17 -45 30 -86 30 -91 0 -5 -15 4 -34 21 -19 16 -49 38
-66 48 -18 11 -40 35 -50 54 -10 19 -59 76 -109 126 -80 80 -110 124 -82 124
5 0 60 -9 122 -20z m-1832 -77 c21 -18 21 -18 4 -94 l-17 -76 -28 20 c-26 19
-28 19 -52 3 -15 -9 -26 -23 -26 -31 0 -8 -4 -15 -9 -15 -18 0 2 73 35 127 55
91 59 94 93 66z m714 -42 c-8 -30 39 -48 157 -61 153 -18 155 -21 56 -58 l-85
-33 -42 28 c-35 23 -53 28 -103 28 -34 0 -80 -8 -104 -18 -58 -23 -64 -22 -60
15 3 29 10 36 87 75 47 24 88 43 92 43 4 0 5 -9 2 -19z m2717 -7 c153 -25 205
-41 311 -101 55 -31 98 -57 97 -58 -2 -2 -39 -17 -82 -35 -51 -22 -83 -30 -91
-24 -7 5 -52 39 -100 75 -97 74 -153 97 -268 108 -80 7 -142 35 -116 52 17 11
119 4 249 -17z m2022 -2 l107 -27 228 -210 c125 -115 259 -240 298 -276 38
-36 86 -80 105 -96 l35 -31 -105 5 c-115 6 -213 -8 -365 -52 -112 -33 -126
-25 -144 73 l-12 67 -115 108 c-111 106 -116 109 -201 136 -188 59 -175 59
-288 6 -55 -26 -113 -57 -130 -70 -40 -29 -110 -65 -130 -65 -8 0 -24 5 -34
12 -15 9 -24 8 -45 -5 -14 -10 -26 -15 -26 -13 0 3 43 63 95 134 l95 129 258
101 c141 56 259 101 262 101 3 0 53 -12 112 -27z m-3242 -31 c114 -47 116 -53
32 -95 -78 -40 -96 -62 -107 -139 -12 -77 -38 -54 -48 44 -4 30 -16 81 -27
114 -21 61 -25 97 -12 109 12 13 84 -2 162 -33z m2534 -47 l36 -76 -106 -147
c-59 -80 -109 -148 -111 -150 -1 -3 -13 5 -26 17 l-23 22 -119 -121 c-117
-118 -123 -122 -260 -191 -77 -39 -141 -71 -143 -73 -4 -4 99 -439 107 -450 5
-5 47 -62 94 -126 l85 -115 -36 -122 c-19 -67 -37 -121 -38 -119 -3 2 -104
389 -198 757 l-43 165 33 105 33 105 271 129 c263 125 271 130 265 155 -5 24
0 29 75 63 l81 37 -36 70 -36 70 28 36 c15 19 29 35 29 35 1 0 18 -34 38 -76z
m-4232 -65 c20 -11 54 -10 210 7 41 5 63 3 74 -7 14 -11 2 -20 -87 -65 l-103
-51 -45 23 c-47 26 -111 31 -168 15 -35 -10 -48 -2 -55 33 -2 16 14 29 72 63
l75 43 3 -25 c2 -14 13 -30 24 -36z m2353 40 c4 -11 5 -22 3 -23 -1 -2 -41
-16 -88 -31 -47 -16 -109 -39 -139 -52 -59 -26 -76 -25 -35 1 14 10 32 32 39
51 13 29 21 34 82 48 135 32 130 32 138 6z m120 -13 c22 -19 38 -36 35 -38 -3
-3 -69 -29 -148 -57 -79 -29 -237 -98 -350 -153 -114 -55 -275 -133 -359 -173
l-151 -73 -37 55 c-34 52 -35 56 -18 69 25 19 40 17 101 -11 30 -14 58 -25 63
-25 5 0 53 26 107 59 186 112 402 211 614 281 l98 32 -15 28 c-19 37 -19 40 3
40 9 0 35 -16 57 -34z m197 -10 l33 -15 -65 1 c-62 1 -120 24 -120 48 0 10
106 -14 152 -34z m1345 36 c7 -5 -2 -15 -28 -29 -38 -21 -39 -21 -49 -3 -6 10
-10 23 -10 29 0 12 69 15 87 3z m-1076 -27 c55 -27 164 -112 164 -127 0 -5
-29 -22 -65 -38 l-65 -29 -10 22 c-5 12 -22 39 -38 60 -23 29 -28 45 -24 67 5
23 1 33 -20 50 -37 29 -4 27 58 -5z m-875 0 c29 -12 33 -17 25 -33 -25 -47
-187 -106 -320 -116 -47 -4 -88 -9 -93 -12 -12 -7 -10 31 3 59 11 25 106 78
184 103 55 17 158 17 201 -1z m2062 -30 l22 -45 -62 -30 c-34 -17 -63 -30 -64
-30 -8 0 -45 72 -40 77 8 8 110 71 117 72 3 1 15 -19 27 -44z m-4652 -21 c19
-19 34 -39 34 -43 0 -4 -16 -13 -34 -19 -48 -18 -54 -44 -21 -93 15 -21 31
-39 34 -39 11 0 111 -91 111 -101 0 -27 -130 5 -167 41 -46 45 -60 106 -39
178 9 32 16 70 16 85 0 38 25 35 66 -9z m4064 5 c27 -6 50 -14 50 -17 0 -4
-224 -119 -498 -256 l-498 -249 -52 12 c-29 6 -66 11 -82 11 -17 0 -30 4 -30
10 0 38 753 404 990 481 67 22 58 21 120 8z m230 1 c-8 -6 -114 -60 -235 -121
-121 -61 -227 -118 -236 -126 -9 -8 -57 -66 -105 -129 -60 -77 -93 -112 -104
-109 -8 2 -58 14 -110 25 -52 11 -99 22 -105 24 -5 1 44 29 110 61 66 32 268
132 449 222 180 89 333 163 340 163 6 0 4 -5 -4 -10z m184 -64 c25 -40 46 -78
46 -83 0 -9 -192 -104 -431 -215 l-87 -40 -37 -122 -37 -122 62 -239 c147
-565 220 -856 220 -874 0 -16 -15 -23 -87 -39 -48 -11 -91 -18 -94 -16 -4 2
-19 55 -34 117 -15 61 -78 322 -141 578 l-114 466 56 189 c30 104 56 189 57
190 14 11 555 284 563 284 7 0 33 -33 58 -74z m-1110 18 c27 -18 71 -74 80
-101 6 -18 1 -25 -24 -38 -31 -16 -31 -16 -83 28 -51 43 -54 44 -142 50 l-89
6 -146 -56 c-308 -118 -565 -243 -753 -367 -47 -31 -88 -56 -91 -56 -7 0 -69
91 -64 95 2 2 159 79 348 171 197 95 418 195 515 231 l170 63 129 -6 c84 -4
137 -11 150 -20z m-3052 -6 c4 -31 53 -46 148 -48 137 -3 139 -9 23 -68 -78
-40 -102 -48 -106 -37 -6 13 -28 21 -125 45 -51 13 -82 41 -76 67 3 11 27 27
57 40 68 27 75 27 79 1z m-201 -28 c26 0 29 -3 23 -24 -4 -18 2 -32 23 -55 26
-30 71 -44 191 -61 1 0 2 -4 2 -8 0 -12 -132 -63 -179 -69 -36 -5 -39 -3 -45
23 -10 41 -51 90 -97 119 -22 14 -36 30 -33 38 7 18 57 47 72 42 8 -3 27 -5
43 -5z m2269 -91 c-63 -33 -143 -78 -177 -100 -34 -21 -66 -39 -70 -39 -15 0
-93 33 -93 39 0 4 36 31 80 60 77 52 82 54 172 62 51 5 113 15 138 23 76 24
69 18 -50 -45z m2890 -10 c91 -27 88 -24 205 -138 73 -70 96 -99 101 -126 8
-45 -1 -44 -25 3 -24 46 -92 112 -151 145 -61 34 -187 74 -294 92 -49 8 -91
17 -93 19 -3 2 20 15 49 28 48 22 57 24 93 12 22 -7 74 -22 115 -35z m-3487
-121 c25 -79 61 -208 80 -287 28 -118 33 -150 25 -180 -16 -59 -70 -191 -78
-191 -5 0 -13 14 -19 30 -8 26 -15 30 -45 30 -48 0 -66 -28 -66 -103 0 -32 5
-89 11 -127 l12 -69 -67 -100 c-37 -56 -70 -101 -75 -101 -4 0 -18 127 -30
283 l-24 282 -37 75 -38 75 113 225 c113 223 168 315 184 306 5 -3 29 -70 54
-148z m1347 141 c-29 -19 -943 -439 -947 -435 -9 9 203 132 372 215 143 71
353 160 525 224 8 3 26 6 40 6 20 0 22 -2 10 -10z m164 -18 c19 -20 19 -20
-45 0 -88 27 -92 30 -30 24 36 -3 62 -11 75 -24z m-1712 -43 c3 -49 -4 -66
-94 -250 -54 -109 -98 -205 -98 -213 0 -8 18 -52 39 -97 l40 -83 22 -299 23
-299 -44 -40 c-52 -46 -153 -97 -192 -97 -24 0 -27 5 -42 68 -66 292 4 754
165 1092 65 137 149 270 170 270 4 0 9 -24 11 -52z m1639 6 c30 -9 58 -18 62
-21 5 -3 -46 -34 -114 -70 -199 -105 -318 -183 -352 -230 -25 -34 -43 -46
-113 -73 -166 -64 -354 -214 -384 -306 -9 -26 -11 -87 -7 -203 6 -211 27 -286
138 -498 43 -83 79 -156 79 -162 0 -15 -52 12 -102 51 -27 21 -55 64 -103 159
-61 119 -66 133 -56 161 22 63 3 175 -46 272 l-26 51 22 61 22 61 -46 107 -45
108 28 55 27 55 470 218 c259 120 475 218 481 219 6 0 35 -6 65 -15z m3347 -2
c9 -6 1 -14 -26 -26 -34 -15 -43 -16 -63 -5 -24 13 -24 13 16 25 49 15 57 16
73 6z m-1516 -22 c113 -16 253 -56 318 -91 53 -28 139 -103 129 -113 -2 -2
-41 6 -86 17 -74 19 -88 20 -154 9 -244 -42 -610 -248 -801 -450 -48 -51 -69
-82 -75 -109 -4 -21 -8 -128 -7 -238 0 -288 24 -405 91 -446 24 -15 32 -26 27
-38 -3 -9 -8 -23 -11 -32 -2 -8 25 -103 60 -210 101 -303 178 -454 296 -580
180 -193 317 -197 725 -22 l128 56 46 -46 c25 -26 44 -48 42 -50 -10 -7 -339
-206 -432 -261 -127 -74 -324 -169 -416 -200 l-73 -25 -157 34 c-86 19 -158
35 -159 35 -2 0 -3 24 -3 53 0 64 -34 195 -93 352 -71 190 -92 231 -144 281
-28 27 -47 54 -45 64 4 25 -35 208 -63 298 l-24 77 44 45 44 45 -11 65 c-10
63 -9 70 36 225 25 88 46 165 46 173 0 10 -100 152 -181 257 -10 14 -99 398
-93 406 2 4 59 34 126 67 116 57 129 67 232 170 106 108 109 109 135 96 36
-19 70 -17 108 6 25 15 39 17 57 10 34 -13 82 3 152 49 39 25 67 37 84 35 14
-2 60 -9 102 -14z m1599 -85 c16 -35 29 -66 29 -69 0 -6 -87 -56 -98 -56 -9 0
-42 113 -42 143 0 12 52 45 73 46 5 1 21 -28 38 -64z m-186 33 c17 -8 28 -24
36 -52 6 -23 14 -56 19 -73 9 -37 3 -40 -49 -22 -17 6 -31 17 -31 25 0 8 -8
31 -18 52 -20 41 -18 82 3 82 8 0 26 -5 40 -12z m-4512 -132 c15 -24 27 -46
27 -50 0 -4 -17 -28 -37 -52 -41 -51 -44 -49 -62 34 -10 49 -9 56 10 83 11 16
23 29 27 29 4 0 19 -20 35 -44z m1781 -95 l-38 -131 37 -153 c82 -346 258
-1061 261 -1064 2 -2 32 3 67 11 72 17 94 13 28 -4 -24 -7 -70 -19 -102 -28
-31 -8 -59 -13 -62 -11 -2 3 -20 60 -39 126 -76 265 -173 478 -255 560 l-48
48 -30 169 -31 169 74 159 c63 138 159 296 172 284 2 -3 -13 -63 -34 -135z
m3034 64 c36 -30 67 -101 87 -197 23 -114 24 -115 50 -146 l25 -29 -59 -13
c-53 -11 -61 -10 -100 10 -39 19 -48 32 -104 148 -57 117 -65 129 -105 149
-24 12 -72 25 -108 28 -35 4 -64 11 -64 16 0 22 37 20 112 -6 73 -24 82 -25
90 -11 9 16 113 75 135 76 6 0 25 -11 41 -25z m-1341 -19 c56 -15 147 -55 177
-78 17 -14 8 -18 -105 -57 -168 -57 -261 -105 -329 -168 l-57 -53 -40 83 c-37
76 -44 84 -91 106 l-51 24 -61 -23 c-33 -12 -63 -21 -65 -18 -6 6 119 73 223
120 161 74 286 94 399 64z m-1965 -22 c68 -15 128 -29 135 -33 8 -4 -8 -47
-49 -136 -33 -71 -61 -131 -61 -131 -4 -3 -329 65 -333 69 -5 5 112 213 134
240 20 22 29 22 174 -9z m2753 -28 c44 -8 112 -16 150 -17 82 -3 184 -24 203
-43 61 -60 -351 -223 -805 -318 -145 -30 -173 -33 -338 -33 -169 0 -183 1
-227 23 -28 14 -48 31 -48 40 0 24 88 103 155 138 108 57 492 181 650 209 93
17 164 18 260 1z m-4165 -46 l32 -49 -28 -49 -28 -49 52 -121 c29 -66 52 -124
52 -129 -1 -8 -82 -73 -93 -73 -3 0 -9 15 -12 33 -4 17 -29 106 -56 197 -27
90 -49 170 -49 176 0 13 81 114 91 114 4 0 21 -22 39 -50z m942 26 c43 -7 81
-15 84 -19 6 -6 -122 -213 -138 -223 -9 -6 -200 15 -207 22 -4 3 31 64 106
182 38 58 36 58 155 38z m160 -87 c-45 -80 -64 -105 -89 -115 -18 -8 -37 -14
-42 -14 -18 0 107 184 141 208 17 12 35 22 39 22 4 0 -18 -46 -49 -101z
m-1017 -44 c-14 -32 -25 -64 -25 -72 0 -8 18 -59 41 -114 23 -55 39 -102 36
-105 -5 -5 -107 228 -107 246 0 21 68 115 77 106 2 -2 -8 -29 -22 -61z m582
-17 c-14 -24 -32 -70 -41 -103 -11 -42 -24 -67 -43 -83 -136 -113 -176 -177
-181 -294 -4 -78 25 -279 54 -377 16 -56 71 -121 101 -121 16 0 22 -10 29 -42
9 -42 10 -43 100 -81 l92 -39 -28 -62 c-15 -33 -30 -69 -34 -78 -3 -10 -9 -18
-14 -18 -13 0 -83 77 -123 135 -60 85 -217 408 -244 502 -29 97 -43 276 -31
376 9 68 54 131 144 202 52 42 232 139 240 130 2 -2 -8 -23 -21 -47z m3926
-39 c20 -45 37 -87 37 -93 0 -24 -60 -83 -109 -106 l-51 -24 -53 22 c-29 12
-58 22 -65 22 -8 0 -12 21 -12 70 l0 69 83 40 c45 22 91 49 101 60 11 12 22
21 25 21 3 0 23 -37 44 -81z m-1693 53 c0 -9 -59 -32 -83 -32 -26 0 -20 17 11
28 33 13 72 15 72 4z m-176 -114 l17 -102 -28 -22 -27 -22 47 -213 48 -214
-20 -39 c-33 -63 -53 -174 -49 -270 2 -47 1 -85 -2 -83 -3 2 -45 22 -95 45
-217 102 -210 96 -231 233 -19 123 -22 458 -5 502 17 43 106 132 214 213 54
41 101 74 106 74 4 0 16 -46 25 -102z m271 2 c21 -44 37 -82 34 -84 -3 -3 -35
-17 -72 -31 l-67 -25 -5 23 c-27 120 -33 152 -29 156 5 5 82 38 94 40 4 1 23
-35 45 -79z m-197 38 c11 -15 45 -158 38 -165 -2 -3 -15 3 -29 12 -18 12 -27
28 -31 63 -4 26 -9 59 -12 75 -6 29 14 38 34 15z m-1548 -52 c95 -19 175 -37
178 -40 8 -8 59 -305 54 -311 -3 -3 -15 -5 -26 -5 -33 0 -120 -55 -161 -102
-50 -58 -102 -168 -111 -234 -6 -51 -8 -54 -58 -83 -28 -17 -62 -37 -76 -45
-14 -8 -51 -26 -83 -40 -31 -14 -82 -48 -112 -77 l-55 -52 -82 34 -83 34 -22
90 c-12 50 -34 145 -49 212 l-28 123 63 237 c35 131 66 241 70 245 3 4 58 1
121 -6 l114 -13 81 33 c44 18 83 33 87 34 3 0 83 -16 178 -34z m3048 -43 l-3
-57 -40 -9 c-98 -21 -233 -61 -267 -80 l-37 -20 -51 47 c-29 27 -45 48 -37 51
6 2 85 24 175 50 90 25 177 53 195 60 61 27 68 22 65 -42z m-4363 -188 c26
-116 45 -237 45 -285 0 -24 10 -83 21 -131 l22 -87 -22 -118 c-29 -160 -56
-262 -86 -331 l-26 -57 7 -258 c8 -287 10 -275 -59 -242 -25 12 -37 27 -50 64
-25 69 -113 187 -182 243 -33 27 -97 67 -143 89 -90 44 -95 50 -114 145 -8 41
-8 56 2 68 18 22 61 18 114 -10 26 -14 49 -25 52 -25 3 0 4 112 3 248 l-3 249
51 69 c28 38 61 87 74 108 l23 40 16 -55 c35 -115 72 -151 113 -110 31 31 35
165 9 294 l-20 97 37 88 c21 48 41 96 46 107 6 16 13 5 31 -55 13 -41 31 -106
39 -145z m4871 107 c-2 -1 -51 -20 -109 -41 -99 -36 -107 -37 -139 -24 l-33
15 42 21 c23 12 55 41 72 63 l30 42 70 -36 c38 -20 68 -38 67 -40z m160 46
c95 -57 179 -185 205 -313 11 -58 6 -135 -9 -135 -4 0 -18 39 -31 88 -31 113
-31 114 -88 142 -109 55 -119 64 -137 129 -9 34 -20 61 -25 61 -4 0 -16 6 -26
14 -19 13 -18 15 15 24 51 15 55 14 96 -10z m-1875 -51 c9 -7 41 -89 73 -183
33 -100 65 -179 77 -190 17 -15 169 -315 220 -434 17 -41 123 -649 114 -658
-2 -2 -38 -12 -80 -23 l-77 -20 -151 83 c-132 73 -152 87 -161 116 -9 25 -23
38 -64 57 -142 66 -177 112 -248 334 -45 138 -46 147 -40 226 7 95 39 210 62
223 14 8 11 33 -30 215 -25 114 -46 214 -46 222 0 27 30 29 80 5 l49 -23 83
31 c92 34 115 37 139 19z m771 -57 c64 -58 66 -62 61 -98 -3 -20 -9 -41 -13
-45 -4 -5 -70 -26 -146 -48 -132 -37 -147 -39 -280 -39 l-141 0 -37 55 c-37
56 -40 72 -30 138 l7 37 52 0 c79 0 250 19 350 39 50 10 95 19 100 20 6 0 40
-26 77 -59z m-4142 -7 c43 -114 68 -289 52 -358 l-9 -40 -21 45 c-35 76 -81
334 -68 385 10 39 23 30 46 -32z m855 10 c-7 -27 -30 -107 -50 -180 l-36 -132
37 -156 c20 -86 34 -159 31 -162 -11 -10 -29 10 -48 53 -20 45 -69 309 -69
373 0 70 27 137 81 195 28 31 55 56 59 56 5 0 3 -21 -5 -47z m3904 -19 c75
-31 137 -58 139 -59 2 -2 -14 -13 -35 -25 -21 -13 -47 -32 -59 -42 -20 -17
-26 -18 -149 -3 -101 12 -137 20 -164 38 -41 27 -126 67 -141 67 -5 0 -10 4
-10 9 0 17 186 68 254 70 16 1 91 -24 165 -55z m385 24 c11 -41 8 -43 -77 -43
-54 0 -90 -5 -100 -13 -10 -9 -17 -10 -22 -2 -3 5 0 12 7 15 7 2 49 18 93 34
97 36 91 36 99 9z m-1628 -1 c1 -1 -2 -30 -7 -64 l-9 -62 48 -75 47 -76 165 0
c158 0 170 2 289 35 139 39 156 41 164 21 4 -10 -51 -30 -229 -81 l-235 -67
-77 19 c-112 26 -123 39 -182 217 l-49 148 37 -7 c20 -4 38 -8 38 -8z m-3130
-82 c-27 -67 -57 -83 -89 -47 -17 19 -16 21 45 70 35 28 64 47 66 43 1 -4 -9
-34 -22 -66z m3970 -11 c33 -14 79 -38 104 -54 48 -31 113 -45 251 -55 l86 -7
46 33 c25 19 63 44 83 57 l37 23 25 -23 c87 -78 84 -104 -25 -202 -34 -31 -74
-79 -90 -106 l-28 -49 -80 37 c-66 30 -95 37 -170 42 -56 4 -101 12 -120 23
-16 9 -51 25 -77 36 -35 15 -52 29 -67 58 -11 22 -36 52 -55 67 -39 29 -45 57
-25 115 13 38 28 39 105 5z m832 -5 c17 -6 32 -14 32 -17 0 -9 -104 -72 -118
-72 -5 0 -15 14 -22 30 -7 17 -23 39 -37 49 -16 13 -20 21 -11 25 17 7 114 -2
156 -15z m112 -57 c0 -5 -23 -19 -52 -33 -74 -34 -98 -56 -98 -87 0 -27 86
-289 101 -305 11 -14 -29 190 -57 285 -4 12 14 27 69 57 41 23 77 41 79 41 3
0 24 -69 48 -152 23 -84 50 -183 61 -220 10 -36 19 -80 19 -96 0 -29 -3 -31
-89 -60 l-88 -30 -112 73 -113 73 -56 -19 c-31 -11 -59 -16 -63 -12 -4 5 -15
37 -24 73 -9 36 -21 68 -27 71 -35 22 158 223 287 301 75 45 115 59 115 40z
m-4860 -80 c12 -37 21 -93 22 -124 1 -52 -3 -62 -36 -102 l-36 -44 14 -64 c8
-35 30 -133 51 -218 46 -196 55 -324 30 -415 -9 -35 -23 -69 -31 -76 -14 -11
-186 -58 -216 -59 -16 0 -18 14 -18 145 0 123 3 152 19 183 26 52 45 124 80
303 29 150 30 159 15 205 -12 40 -44 262 -44 312 0 10 5 10 20 2 23 -12 64 -4
81 16 17 21 27 9 49 -64z m1399 -38 c28 -30 51 -59 51 -62 0 -4 -19 -15 -41
-26 -29 -13 -48 -32 -67 -67 -22 -40 -32 -49 -54 -49 -22 0 -147 -35 -206 -58
-12 -4 -14 2 -9 37 12 92 112 232 189 266 60 26 82 20 137 -41z m2441 -4 c8
-5 11 -12 7 -16 -3 -4 -86 -24 -183 -45 -192 -42 -216 -53 -233 -116 -12 -43
0 -131 37 -258 28 -97 28 -100 9 -103 -11 -2 -23 0 -27 5 -12 13 -112 394
-105 402 6 6 449 138 470 140 6 0 17 -3 25 -9z m63 -84 l38 -23 -110 -28
c-110 -27 -111 -27 -161 -9 -27 10 -50 21 -50 24 0 4 160 43 240 58 3 1 22 -9
43 -22z m-2399 -81 c14 -31 26 -57 26 -59 0 -2 -17 2 -37 10 -21 7 -51 13 -68
14 -57 1 -62 15 -23 54 51 51 70 47 102 -19z m1741 44 c51 -13 43 3 104 -225
47 -174 49 -186 22 -159 -33 34 -201 395 -185 395 8 0 35 -5 59 -11z m392 -55
l75 -34 140 35 c146 37 178 41 194 26 5 -5 50 -11 99 -13 76 -3 98 -9 145 -33
53 -29 55 -32 77 -105 13 -41 23 -80 23 -86 0 -7 -30 -19 -68 -28 l-67 -17
-70 -137 -70 -136 -90 -18 c-136 -26 -132 -27 -149 35 -46 164 -105 385 -108
401 -3 16 12 23 97 47 55 16 101 29 103 29 3 0 24 -49 43 -99 5 -13 12 -21 15
-18 3 3 -4 35 -16 71 -21 63 -23 66 -53 66 -35 -1 -92 -12 -176 -37 l-54 -15
6 -58 c4 -32 29 -147 57 -255 56 -220 53 -205 42 -205 -4 0 -13 19 -19 43 -6
23 -37 141 -68 262 -31 121 -62 225 -69 231 -6 6 -53 22 -105 34 l-94 23 23
19 c26 21 31 20 137 -28z m-64 -60 c42 -10 71 -23 75 -33 10 -26 129 -476 126
-479 -1 -2 -27 4 -57 13 -54 16 -57 18 -115 109 -48 75 -66 115 -91 204 -18
61 -35 134 -38 163 -6 47 -5 51 13 46 10 -4 50 -14 87 -23z m-2061 -32 l47
-21 45 -140 c24 -78 50 -166 57 -197 7 -31 19 -58 26 -61 8 -3 61 7 119 22 63
17 108 25 114 19 14 -14 70 -223 77 -288 l6 -58 -32 16 c-26 14 -38 15 -70 5
-38 -11 -42 -10 -89 25 l-50 36 -48 -18 c-27 -11 -50 -24 -51 -29 -2 -6 14
-26 37 -47 22 -20 40 -38 40 -40 0 -4 -58 -26 -70 -26 -4 0 -10 19 -14 41 -18
112 -88 265 -172 376 -118 154 -285 259 -449 281 l-60 9 87 42 c127 63 204 82
313 77 64 -2 104 -9 137 -24z m2913 18 c4 -6 17 -48 29 -93 19 -69 26 -81 42
-79 69 13 78 9 93 -37 12 -39 12 -48 0 -70 -19 -34 -57 -38 -92 -11 -35 27
-72 99 -59 112 6 6 1 40 -14 91 -13 44 -24 85 -24 89 0 12 18 10 25 -2z
m-5109 -150 c-3 -36 -6 -102 -6 -147 l0 -81 -58 5 c-36 3 -67 1 -81 -6 -20
-11 -23 -8 -45 41 -36 82 -68 186 -61 198 3 5 16 10 29 10 30 0 131 51 176 89
l35 29 8 -37 c5 -20 6 -65 3 -101z m5377 -26 c84 -54 82 -52 74 -60 -5 -6
-157 92 -157 101 0 10 14 3 83 -41z m-3562 -13 c134 -51 267 -161 355 -293 80
-120 155 -339 124 -358 -12 -7 -11 -10 3 -16 14 -5 17 -20 17 -103 0 -114 -18
-199 -61 -282 -105 -210 -347 -296 -546 -195 -38 18 -79 43 -93 55 -24 20 -23
20 20 -2 61 -30 193 -30 261 0 109 49 156 127 151 251 -2 39 -32 60 -133 92
-38 12 -69 24 -69 28 0 10 67 32 124 41 46 7 76 29 76 55 0 53 -81 225 -138
295 -58 73 -102 109 -177 146 -124 62 -254 57 -353 -15 -38 -28 -82 -92 -82
-122 0 -7 -10 -24 -21 -38 l-20 -25 6 70 c19 215 139 385 304 432 63 18 183
10 252 -16z m1316 -56 l92 -45 20 -68 c11 -37 25 -87 31 -112 7 -25 40 -103
75 -175 117 -242 218 -310 397 -265 35 9 51 9 69 0 30 -17 13 -26 -75 -40
-178 -28 -294 43 -409 251 -30 55 -82 214 -91 282 -9 61 -32 86 -135 145 -79
45 -109 72 -80 72 7 0 55 -20 106 -45z m1962 0 c24 -45 54 -76 125 -125 19
-14 36 -28 36 -33 0 -9 -31 -21 -126 -49 l-73 -22 -56 45 c-31 24 -66 51 -77
60 -19 15 -19 16 13 82 27 54 40 69 64 76 58 17 69 13 94 -34z m369 -120 c26
-49 48 -92 50 -95 1 -3 -4 -14 -11 -24 -13 -17 -19 -15 -103 37 -96 60 -138
97 -116 104 20 7 42 59 42 97 l0 36 46 -33 c37 -25 56 -51 92 -122z m212 113
c0 -13 -3 -33 -6 -45 l-6 -23 -26 21 c-24 19 -27 19 -39 4 -10 -14 -7 -27 13
-74 48 -106 49 -94 -7 -171 -28 -38 -55 -67 -60 -65 -4 3 -11 21 -15 40 -5 26
-1 41 15 64 l22 30 -46 92 c-26 50 -45 92 -43 94 2 2 19 6 38 9 19 3 60 14 90
25 70 25 70 25 70 -1z m-2568 -73 c42 -24 79 -53 82 -62 2 -10 10 -44 16 -76
27 -138 94 -286 174 -389 109 -138 248 -175 458 -123 44 11 72 14 83 8 16 -9
211 30 227 45 3 4 -4 70 -17 147 -12 77 -21 142 -19 144 1 2 36 -17 76 -41 73
-43 73 -44 128 -153 l55 -109 167 -71 c159 -67 170 -73 254 -150 l88 -80 -50
-12 c-27 -6 -74 -12 -106 -12 -51 -1 -61 3 -106 38 -60 48 -110 74 -184 95
-50 14 -71 29 -152 106 -51 50 -98 90 -104 90 -5 0 -73 -27 -150 -60 -232 -99
-314 -124 -412 -124 -104 -1 -153 20 -241 102 -72 67 -135 160 -199 295 -64
136 -169 437 -152 437 4 0 42 -20 84 -45z m1008 -1 c14 -3 40 -6 59 -7 30 -2
39 -11 90 -87 53 -80 59 -85 112 -102 47 -16 58 -24 62 -46 4 -15 16 -42 27
-61 17 -26 26 -32 46 -28 19 3 29 -2 45 -24 41 -57 205 -94 292 -64 57 19 54
21 109 -80 73 -133 106 -248 94 -327 l-7 -44 -57 -11 c-64 -12 -60 -14 -200
114 -55 50 -85 67 -227 127 l-164 70 -35 76 c-20 42 -36 79 -36 82 0 3 69 -21
153 -54 216 -85 204 -83 316 -58 119 27 157 42 86 36 -27 -3 -88 -8 -136 -12
l-85 -6 -150 65 -149 66 -57 113 c-62 122 -109 175 -199 225 -27 16 -49 34
-49 42 0 8 6 11 18 6 9 -3 28 -8 42 -11z m827 -114 c29 -23 53 -46 53 -53 0
-14 -127 -190 -141 -195 -12 -5 -201 156 -191 162 4 2 39 10 78 17 89 15 97
20 119 68 10 23 20 41 23 41 3 0 29 -18 59 -40z m-795 -14 c47 -37 63 -59 98
-131 23 -48 40 -89 38 -90 -2 -2 -43 21 -93 51 -60 36 -92 61 -96 77 -12 45
-20 137 -12 137 4 0 33 -20 65 -44z m1181 0 c9 -7 17 -15 17 -18 0 -3 -29 -8
-64 -11 -75 -7 -127 -27 -177 -67 -36 -29 -37 -29 -54 -9 -10 10 -15 22 -11
26 5 6 253 92 266 92 3 0 13 -6 23 -13z m-3658 -50 c124 -58 244 -177 315
-311 44 -84 40 -122 -16 -139 -19 -6 -22 -2 -27 36 -17 123 -171 320 -300 382
-107 52 -181 52 -255 2 -58 -39 -50 -15 9 27 75 54 162 55 274 3z m3744 -106
c52 -114 105 -262 115 -325 6 -36 3 -46 -35 -98 -22 -32 -46 -56 -53 -54 -6 2
-57 14 -113 27 l-101 23 -13 66 c-16 88 -53 198 -100 299 -26 57 -34 84 -26
87 95 36 246 83 260 82 12 -1 33 -35 66 -107z m48 71 c22 -21 113 -278 113
-321 0 -38 -14 -13 -45 80 -15 47 -45 123 -66 169 -22 46 -39 85 -39 87 0 10
18 2 37 -15z m236 -28 c26 -73 22 -182 -9 -275 -14 -43 -29 -78 -34 -78 -4 0
-11 12 -15 28 -3 15 -24 78 -47 141 l-40 114 58 58 c32 33 61 59 64 59 3 0 14
-21 23 -47z m-4080 -1 c95 -51 217 -195 259 -304 24 -63 23 -64 -14 -72 -40
-8 -78 -43 -78 -71 0 -27 16 -47 63 -75 21 -12 45 -33 53 -45 13 -21 13 -27
-1 -61 -32 -78 -86 -114 -167 -114 -85 1 -186 50 -310 152 -37 31 -53 55 -80
121 -55 129 -55 131 -8 150 23 9 40 22 40 31 0 9 -23 38 -51 65 -44 43 -49 52
-43 77 4 16 22 50 41 76 77 106 183 131 296 70z m3078 -54 l100 -83 -41 -3
c-59 -5 -136 24 -172 64 -18 19 -41 34 -53 34 -13 0 -30 11 -38 24 -16 24 -16
24 31 34 26 5 53 10 60 11 8 0 58 -36 113 -81z m361 -33 c55 -103 133 -343
117 -360 -8 -8 -99 26 -99 37 0 19 -72 164 -110 224 -22 33 -40 65 -40 71 0
18 71 104 83 100 6 -2 28 -34 49 -72z m-1529 -50 c45 -21 59 -33 68 -60 10
-26 26 -41 72 -66 66 -35 63 -49 -12 -49 -58 0 -122 32 -165 82 -31 36 -106
165 -106 183 0 3 19 -10 43 -29 24 -20 69 -47 100 -61z m-3464 -28 c24 -17 61
-47 82 -68 40 -40 115 -146 108 -153 -2 -2 -65 45 -139 105 -120 97 -180 157
-180 181 0 11 72 -26 129 -65z m2425 -13 c47 -35 47 -36 95 -23 46 11 51 11
92 -13 57 -33 102 -75 94 -88 -3 -5 -52 -33 -109 -61 l-103 -52 -87 61 c-48
33 -83 62 -79 65 4 2 32 12 61 21 28 10 52 21 52 24 0 4 -18 25 -40 46 -66 65
-50 77 24 20z m3302 -79 l6 -90 -47 -28 c-26 -15 -49 -26 -51 -24 -2 2 10 43
26 92 17 49 30 107 30 129 0 36 2 39 15 25 10 -10 17 -45 21 -104z m-4446 -10
c11 -13 11 -18 -1 -30 -8 -7 -23 -15 -33 -17 -20 -3 -33 22 -35 70 -1 22 0 22
27 8 16 -8 34 -22 42 -31z m-617 -16 c16 -23 26 -43 24 -45 -4 -5 -262 -64
-278 -64 -5 0 -9 22 -9 49 l0 49 98 25 c130 34 132 33 165 -14z m1726 -112
l84 -62 73 -255 c40 -140 74 -258 74 -263 0 -4 -19 2 -42 14 -37 19 -53 21
-123 16 -246 -18 -436 -147 -481 -327 -28 -114 -36 -107 -84 82 l-33 128 -63
35 c-45 25 -64 42 -64 55 0 18 7 20 79 20 138 0 246 46 338 142 93 99 144 234
147 390 0 49 3 88 6 87 3 0 43 -28 89 -62z m388 -33 c46 -112 109 -308 124
-382 10 -56 10 -64 -6 -82 -10 -11 -22 -20 -26 -20 -4 0 -42 -16 -83 -35 -106
-49 -111 -48 -134 28 -46 148 -135 468 -131 470 24 18 206 105 214 103 5 -1
24 -38 42 -82z m-2675 30 c7 -25 104 -769 124 -941 6 -59 5 -63 -14 -63 -25 0
-28 17 -42 240 -21 329 -32 379 -103 456 -53 58 -77 118 -77 191 0 37 4 45 24
53 15 5 30 25 41 55 20 50 36 54 47 9z m5457 -5 c11 -35 10 -44 -6 -67 l-17
-27 -9 42 c-10 42 -3 93 12 93 4 0 13 -18 20 -41z m-4879 17 c0 -1 -5 -17 -11
-35 -9 -24 -8 -47 1 -91 15 -72 9 -99 -33 -143 -26 -28 -38 -34 -60 -30 -31 6
-33 16 -12 93 22 81 25 78 -62 66 l-78 -11 -32 -80 c-17 -44 -34 -88 -36 -97
-4 -13 -15 -18 -40 -18 l-35 0 -31 125 c-17 68 -31 126 -31 128 0 2 25 -9 56
-25 89 -44 119 -36 126 32 l3 34 120 27 c118 26 155 32 155 25z m-475 -214
l40 -167 50 -5 c44 -4 50 -8 53 -30 5 -43 22 -77 46 -89 18 -10 24 -27 34 -93
7 -44 12 -82 10 -84 -12 -11 -78 -33 -82 -26 -2 4 -13 43 -24 87 -34 133 -43
149 -99 164 l-28 7 -22 169 c-11 92 -24 183 -28 201 -3 19 -2 34 2 34 4 0 26
-76 48 -168z m5280 48 c-8 -45 -65 -124 -107 -147 -23 -12 -54 -17 -104 -17
-91 1 -128 10 -120 30 3 8 9 50 12 94 6 74 8 79 28 75 171 -35 183 -34 237 14
l44 39 8 -27 c4 -14 5 -42 2 -61z m-3562 20 c20 0 21 -12 6 -97 -15 -88 -42
-118 -127 -142 -137 -40 -208 -36 -267 15 -32 27 -31 27 30 -1 53 -25 149 -25
195 -1 44 23 97 73 116 108 30 57 12 103 -56 150 -15 10 -2 7 30 -7 30 -14 63
-25 73 -25z m3166 39 l33 -12 -4 -87 c-1 -49 -7 -92 -11 -96 -13 -13 -82 29
-81 49 0 9 1 49 2 87 2 76 4 79 61 59z m-799 -80 c33 -22 60 -44 60 -48 0 -15
-52 -86 -98 -134 -86 -89 -194 -162 -547 -364 -192 -110 -361 -206 -375 -213
-14 -8 -68 -15 -120 -18 l-95 -4 -52 87 c-45 75 -49 86 -30 80 96 -30 147 -37
230 -31 242 16 616 216 994 530 40 33 71 62 69 63 -2 2 -93 -55 -202 -128
-545 -360 -776 -460 -994 -429 -105 15 -144 39 -179 108 -31 61 -48 122 -34
122 4 0 26 -7 48 -14 22 -8 100 -26 174 -41 l135 -28 70 22 c115 36 374 170
636 330 135 82 246 150 248 150 1 1 29 -17 62 -40z m-3770 -11 c0 -7 -6 -35
-13 -63 -8 -28 -12 -79 -9 -116 5 -83 -8 -113 -46 -104 -37 8 -62 41 -62 81 0
29 38 152 62 197 10 20 68 24 68 5z m880 -73 c14 -16 47 -55 75 -85 30 -33 36
-43 16 -25 -55 48 -158 166 -131 150 8 -5 26 -23 40 -40z m-818 -78 c9 -9 25
-113 46 -297 35 -300 35 -299 -12 -300 -11 0 -31 -11 -45 -24 -20 -19 -51 -29
-139 -46 -62 -11 -122 -18 -132 -15 -21 7 -20 0 -55 280 -14 110 -28 210 -30
223 -4 17 -1 22 14 22 26 0 28 -4 62 -133 16 -61 34 -116 39 -121 11 -11 124
29 141 51 9 11 10 35 3 95 -9 78 -9 80 13 89 36 13 55 54 58 122 2 34 3 63 4
65 3 6 21 0 33 -11z m2300 -285 c9 -31 52 -115 94 -186 53 -90 98 -185 149
-315 l73 -186 80 -65 c43 -36 182 -146 307 -245 126 -99 242 -192 258 -206
l30 -25 -49 -19 c-60 -22 -140 -73 -173 -109 -14 -14 -29 -26 -34 -26 -7 0
-466 376 -550 450 -7 6 -307 925 -307 941 0 6 87 48 100 49 3 0 13 -26 22 -58z
m1183 41 c-3 -10 -11 -42 -17 -70 l-11 -53 -106 0 c-69 1 -101 4 -91 10 83 51
217 128 224 129 4 1 5 -7 1 -16z m-1500 -25 c23 -12 62 -22 93 -24 30 -1 56
-4 58 -7 8 -8 274 -840 270 -844 -2 -3 -22 12 -44 31 -34 31 -50 63 -117 229
-145 359 -204 447 -350 517 -45 23 -108 46 -139 52 -31 7 -56 15 -56 19 0 13
142 44 220 48 14 0 43 -9 65 -21z m-263 -82 c122 -31 209 -75 270 -138 58 -60
125 -192 226 -445 l69 -172 344 -287 c189 -157 350 -292 358 -299 12 -12 12
-18 -2 -47 -8 -18 -21 -52 -28 -75 -7 -24 -14 -43 -16 -43 -4 0 -114 88 -343
275 -41 34 -136 110 -210 170 -254 205 -241 191 -292 312 -39 95 -44 114 -39
158 15 126 -38 291 -125 384 -119 129 -313 158 -447 67 -87 -59 -6 67 87 135
21 16 42 29 46 29 4 0 50 -11 102 -24z m1857 -75 c20 -5 48 -12 63 -15 23 -5
26 -10 23 -39 -3 -17 -6 -74 -9 -125 -3 -52 -6 -96 -9 -98 -7 -8 -190 -8 -262
0 -198 20 -251 26 -257 26 -5 0 -8 12 -8 28 1 40 38 203 51 218 6 7 37 15 72
16 98 6 296 -1 336 -11z m-469 -33 c-1 -7 -7 -40 -15 -73 -8 -33 -15 -79 -15
-101 0 -43 -10 -54 -52 -54 -20 0 -20 -4 -14 -92 3 -51 6 -144 7 -207 1 -74 8
-143 20 -194 11 -44 18 -81 17 -83 -2 -1 -59 42 -128 97 l-125 99 3 107 c5
179 5 179 66 197 104 31 139 80 134 188 l-3 69 45 29 c51 33 60 35 60 18z
m-1327 -44 c175 -60 295 -362 204 -516 -63 -108 -151 -163 -253 -159 l-32 1
33 33 c43 43 59 102 52 193 -15 199 -209 378 -351 324 -41 -15 -31 3 33 62 92
86 189 105 314 62z m1185 -82 c4 -57 -20 -99 -71 -123 -50 -22 -76 -24 -111
-5 -42 21 -71 66 -43 66 6 0 55 25 107 55 52 30 100 53 105 51 6 -1 11 -21 13
-44z m-2822 -38 c40 -11 55 -79 33 -157 -13 -50 -47 -71 -96 -62 -91 17 -307
-2 -373 -32 -126 -59 -180 -36 -197 83 -5 40 -4 43 28 59 28 15 49 16 130 11
135 -9 296 20 343 62 14 14 52 28 106 41 3 0 15 -2 26 -5z m1391 -49 c170 -51
277 -332 168 -441 -70 -70 -211 15 -284 170 -67 142 -59 236 24 272 38 17 32
17 92 -1z m1166 -20 c9 -19 28 -42 42 -51 23 -15 25 -22 24 -88 -1 -39 -4 -99
-8 -133 l-6 -62 -49 37 c-45 35 -52 46 -102 172 -29 74 -53 140 -54 146 0 8
24 12 68 12 69 1 69 1 85 -33z m592 -45 c196 -16 182 -10 187 -72 6 -67 -19
-293 -35 -327 l-12 -26 -176 -3 c-176 -2 -177 -2 -182 20 -4 13 -9 111 -13
219 -8 219 -10 212 61 204 17 -2 93 -9 170 -15z m-3256 -144 l24 -14 -22 -7
c-12 -4 -27 -18 -32 -32 -7 -20 -13 -23 -21 -15 -18 18 -63 14 -82 -7 -17 -18
-18 -18 -56 3 -43 23 -67 17 -84 -20 -9 -20 -10 -20 -45 -2 -30 15 -38 16 -55
4 -11 -7 -23 -24 -26 -37 -5 -21 -7 -22 -13 -6 -16 42 -8 65 24 72 17 4 51 16
76 27 28 12 74 21 122 24 43 2 88 8 102 13 33 14 60 13 88 -3z m109 -40 c2
-16 -1 -33 -7 -39 -8 -8 -11 -7 -11 2 0 7 -13 25 -28 39 l-29 27 36 0 c32 0
36 -3 39 -29z m-54 -73 c17 -49 22 -173 7 -173 -9 0 -45 90 -57 143 -8 35 3
77 20 77 8 0 21 -21 30 -47z m-115 -25 c22 -50 34 -187 23 -238 l-8 -35 -18
34 c-38 72 -64 168 -59 213 10 78 35 89 62 26z m-141 24 c29 -19 40 -250 12
-267 -13 -8 -50 147 -50 213 0 62 7 73 38 54z m-132 -20 c33 -23 44 -58 44
-144 0 -48 -4 -89 -9 -93 -14 -8 -61 147 -61 201 0 43 5 51 26 36z m2368 -137
l37 -90 216 -175 c119 -96 295 -240 392 -319 97 -78 184 -149 194 -156 27 -19
14 -49 -28 -64 -46 -16 -124 -79 -155 -124 -14 -20 -29 -37 -34 -37 -5 0 -60
29 -123 65 l-113 65 -65 -11 -65 -12 -78 54 c-43 30 -162 113 -264 184 l-187
130 -105 224 c-58 123 -106 227 -106 232 0 4 12 1 27 -6 126 -65 280 -25 371
97 20 26 39 45 43 40 3 -4 23 -48 43 -97z m1446 49 c0 -24 -5 -44 -10 -44 -6
0 -9 22 -8 49 3 61 18 57 18 -5z m78 -104 c12 -25 22 -63 22 -86 0 -35 -5 -47
-32 -69 -51 -43 -70 -49 -109 -32 -32 13 -35 17 -31 50 2 19 -1 45 -8 57 -16
30 1 67 48 103 52 40 81 34 110 -23z m-441 10 c55 -11 138 -19 201 -20 l42 0
0 -59 c0 -33 -4 -62 -9 -65 -4 -3 -57 -8 -117 -12 -106 -6 -110 -6 -131 17
-18 20 -53 113 -53 141 0 10 8 10 67 -2z m282 -225 l24 -23 -38 -17 c-73 -30
-81 -29 -133 9 -85 62 -85 64 25 59 85 -5 101 -8 122 -28z m491 10 c42 -29
120 -116 151 -169 31 -53 35 -137 11 -214 -16 -48 -18 -70 -11 -91 6 -16 9
-58 7 -94 l-3 -66 -48 44 -47 44 24 108 c13 59 23 109 21 111 -3 3 -311 -113
-413 -156 -156 -67 -273 -151 -331 -238 -16 -25 -42 -81 -56 -125 -17 -49 -32
-79 -41 -79 -25 0 -15 34 43 151 67 133 113 183 224 245 139 77 426 190 596
233 34 9 40 15 36 31 -3 11 -9 20 -14 20 -4 0 -59 -16 -122 -35 -245 -74 -510
-192 -613 -273 -31 -24 -70 -67 -87 -94 l-32 -51 -20 28 c-11 16 -54 68 -95
117 -119 141 -111 128 -100 170 23 80 159 196 275 232 33 10 72 25 87 33 59
30 160 62 303 97 131 31 167 39 209 45 6 0 26 -10 46 -24z m47 -408 c-2 -7
-10 -38 -16 -70 -12 -55 -13 -57 -54 -67 -23 -6 -49 -13 -57 -15 -8 -3 -37
-52 -63 -109 l-48 -103 -115 -52 -114 -51 -75 47 c-68 42 -78 45 -101 34 -35
-16 -39 -9 -18 30 26 51 113 129 199 178 65 38 432 190 459 191 4 0 6 -6 3
-13z m-915 -154 c41 -49 89 -109 107 -134 l33 -47 -18 -33 c-10 -19 -27 -63
-40 -99 -21 -61 -23 -63 -32 -40 -52 133 -117 231 -164 246 -16 5 -18 11 -13
32 12 50 47 162 50 162 2 0 37 -39 77 -87z m1061 -161 c122 -101 147 -123 167
-152 l22 -30 -179 -86 c-98 -48 -245 -119 -328 -159 -82 -40 -155 -70 -161
-66 -17 9 -364 345 -364 352 0 3 18 12 39 19 39 13 41 12 114 -33 l74 -47 209
95 c115 51 210 99 212 105 3 9 -12 60 -33 112 -5 13 1 19 27 26 31 8 37 5 91
-42 31 -28 81 -70 110 -94z m-1227 116 c-21 -74 -20 -75 22 -97 51 -26 80 -64
129 -171 51 -110 59 -117 126 -101 28 6 59 18 68 27 15 13 17 11 23 -26 3 -23
4 -45 1 -49 -2 -5 -26 -14 -52 -21 -72 -18 -83 -32 -83 -107 0 -54 -4 -70 -27
-100 -25 -32 -30 -34 -66 -29 -22 4 -48 11 -59 17 -18 10 -18 12 -4 34 23 36
20 115 -10 203 -53 163 -122 242 -210 242 l-45 0 23 41 c24 43 141 159 160
159 6 0 8 -9 4 -22z m984 -93 c0 -9 -53 -35 -72 -35 -3 0 6 24 20 53 l25 52
13 -30 c7 -16 13 -35 14 -40z m-1068 -150 c76 -52 168 -311 126 -353 -24 -24
-57 -12 -109 40 -68 68 -123 182 -123 254 0 86 37 106 106 59z m1980 14 c29
-6 55 -13 57 -15 2 -2 -15 -21 -38 -43 -28 -26 -39 -44 -35 -55 8 -21 -2 -20
-33 3 -22 18 -70 32 -166 46 -38 6 -38 7 -22 25 37 41 144 59 237 39z m188
-114 c87 -18 174 -78 249 -170 37 -46 232 -331 274 -401 4 -8 -11 -7 -51 2
-31 7 -61 21 -67 30 -54 91 -116 175 -187 254 -122 136 -222 209 -311 225 -28
6 -42 15 -53 37 -9 17 -12 34 -7 37 4 4 21 18 38 30 l30 23 25 -30 c14 -17 40
-33 60 -37z m-638 -30 c2 -15 -5 -20 -37 -26 -59 -11 -127 -43 -168 -79 -34
-29 -39 -31 -79 -22 l-43 9 155 75 c85 42 158 73 162 69 3 -3 8 -15 10 -26z
m331 29 c43 -8 47 -16 14 -31 -46 -21 -65 -90 -42 -147 7 -16 5 -17 -16 -11
-13 4 -47 26 -75 49 -27 23 -74 53 -102 66 -29 14 -52 28 -52 31 0 9 42 36 65
42 30 7 165 8 208 1z m-1157 -207 c85 -83 114 -118 123 -149 7 -22 10 -42 7
-45 -2 -3 -18 5 -34 17 -16 12 -43 25 -60 29 -23 5 -53 35 -136 139 -91 114
-106 139 -106 170 l0 36 47 -44 c26 -25 98 -94 159 -153z m1291 140 c16 -9 46
-19 68 -23 44 -8 119 -47 159 -81 14 -13 26 -21 26 -19 0 6 159 -163 185 -196
23 -28 75 -107 75 -113 0 -3 11 -23 25 -43 14 -20 25 -46 25 -57 0 -11 11 -37
25 -57 31 -45 31 -58 3 -58 -33 0 -186 81 -217 114 -87 95 -137 139 -178 155
-21 9 -46 34 -73 75 -36 56 -49 67 -118 101 -42 21 -83 38 -89 38 -7 0 -13 9
-13 19 0 10 -4 18 -10 18 -5 0 -10 6 -10 14 0 8 -5 16 -12 18 -6 2 -11 19 -11
38 0 67 67 94 140 57z m-379 -43 l50 -16 -32 -33 c-61 -60 -56 -112 22 -251
60 -107 68 -133 16 -54 -65 98 -108 132 -214 170 -19 7 -55 35 -80 62 l-45 50
30 24 c39 32 121 63 166 63 20 1 59 -6 87 -15z m-1035 -149 c87 -110 112 -135
132 -135 14 0 37 -7 51 -16 l25 -17 -31 -33 -32 -32 -35 24 c-20 13 -48 24
-62 24 -20 0 -45 20 -104 82 -125 132 -170 187 -164 202 5 13 60 33 98 35 9 1
61 -56 122 -134z m1150 60 c19 -8 50 -16 67 -17 17 -1 34 -6 36 -10 3 -4 11
-8 19 -8 7 0 34 -9 59 -20 26 -11 47 -19 49 -18 1 0 22 -11 47 -24 31 -18 63
-50 102 -104 31 -44 57 -85 57 -91 1 -7 6 -13 11 -13 6 0 10 -6 10 -14 0 -8 4
-16 8 -18 12 -4 72 -95 72 -107 0 -6 5 -11 10 -11 6 0 10 -7 10 -15 0 -8 3
-15 8 -15 8 0 23 -29 61 -122 l28 -67 -28 -11 c-25 -11 -32 -9 -66 19 -21 17
-45 31 -54 31 -22 0 -87 68 -119 124 -38 67 -69 104 -108 126 -44 26 -156 53
-203 48 -41 -4 -51 8 -124 147 -20 39 -41 74 -46 79 -13 14 -11 100 3 114 16
16 48 15 91 -3z m-481 -5 c20 -6 47 -19 60 -30 l23 -19 -28 -1 c-66 0 -116
-57 -104 -118 8 -37 90 -183 146 -259 28 -38 63 -71 88 -85 42 -22 44 -23 90
-6 28 10 49 13 51 8 2 -6 9 -10 15 -10 18 -1 81 -90 71 -99 -5 -5 -47 -29 -93
-52 -46 -24 -86 -49 -88 -56 -9 -23 12 -146 25 -151 11 -3 13 10 7 69 l-6 74
83 43 c46 23 88 43 94 42 10 0 64 -72 64 -85 0 -9 -98 -105 -108 -105 -5 0
-29 -10 -53 -23 -24 -13 -59 -27 -76 -30 -30 -6 -34 -4 -47 28 -8 19 -16 65
-17 102 -3 74 1 68 -100 153 -29 25 -61 53 -71 63 -11 10 -76 66 -146 125
-117 99 -133 109 -207 131 -44 14 -83 29 -87 35 -4 6 12 18 40 28 l47 18 28
-30 c15 -16 46 -34 70 -41 73 -20 131 -59 247 -169 111 -105 189 -137 260
-108 35 14 35 15 -27 10 -57 -4 -67 -1 -110 26 -27 17 -86 70 -133 118 -98
100 -150 138 -206 153 -23 6 -49 20 -59 31 -27 30 -6 87 53 147 75 77 125 95
204 73z m-277 -97 c-44 -74 -52 -83 -74 -83 -12 0 -21 12 -28 35 l-11 36 66
34 c37 19 70 34 74 35 3 0 -9 -26 -27 -57z m-520 -48 c42 -47 86 -96 97 -110
13 -17 30 -25 51 -25 18 -1 42 -7 55 -14 l23 -12 -35 -28 c-45 -34 -57 -57
-65 -120 l-6 -51 -126 165 c-69 91 -129 171 -133 178 -5 8 3 26 18 47 14 18
26 38 26 44 0 24 21 7 95 -74z m960 35 c21 -11 44 -20 51 -20 19 0 98 -48 121
-72 11 -13 81 -111 154 -218 73 -107 137 -196 141 -198 4 -2 8 -9 8 -16 0 -7
18 -46 40 -86 44 -80 47 -90 25 -90 -8 0 -15 4 -15 10 0 5 -6 7 -14 4 -7 -3
-20 2 -29 10 -8 9 -25 17 -36 19 -12 2 -27 9 -33 15 -7 7 -17 12 -24 12 -6 0
-35 36 -64 79 -60 93 -94 130 -151 168 -34 22 -44 25 -60 15 -48 -30 -111 2
-156 80 -10 15 -21 28 -25 28 -4 0 -8 5 -8 10 0 6 -15 34 -33 63 -50 79 -69
124 -65 160 2 27 9 34 38 44 44 14 84 9 135 -17z m-493 -218 c72 -25 92 -39
275 -196 109 -93 201 -172 204 -175 4 -3 9 -36 13 -72 l6 -66 -107 -6 c-94 -4
-192 3 -244 18 -12 4 -14 17 -11 64 7 102 -62 264 -169 390 -32 39 -56 71 -52
70 5 0 43 -12 85 -27z m1413 -93 c-4 -5 -10 -9 -15 -9 -10 0 -90 114 -90 127
1 4 25 -18 56 -50 30 -32 52 -63 49 -68z m-1535 81 c100 -71 238 -348 216
-434 -7 -27 -51 -56 -86 -56 -17 0 -20 6 -20 45 0 88 -64 235 -150 342 -22 29
-50 55 -60 58 -30 9 -24 22 18 44 47 25 48 25 82 1z m1030 -75 c16 -4 43 1 71
13 57 25 89 14 142 -49 43 -50 45 -63 14 -84 -22 -14 -132 -55 -148 -55 -7 0
-113 146 -154 215 l-19 30 35 -32 c19 -17 45 -34 59 -38z m-1108 -54 c74 -82
148 -245 148 -326 0 -33 -2 -36 -22 -30 -57 17 -145 114 -194 211 -29 59 -41
146 -25 187 14 35 31 28 93 -42z"/>
</g>
</svg>
